<svg width="392" height="115" viewBox="0 0 392 115" fill="none" xmlns="http://www.w3.org/2000/svg">
<g clip-path="url(#clip0_11_1234)">
<g clip-path="url(#clip1_11_1234)">
<path d="M139.114 32.4971L139.114 32.4971C139.245 32.4061 139.357 32.29 139.443 32.1553L139.737 32.3426L139.443 32.1553C139.529 32.0207 139.587 31.8704 139.615 31.713C139.642 31.5557 139.638 31.3944 139.602 31.2387L139.942 31.1613L139.602 31.2387C139.567 31.083 139.501 30.9359 139.408 30.806L139.406 30.8039C138.099 28.9459 136.318 27.472 134.249 26.5354L133.744 26.307L134.169 25.9515C135.429 24.897 136.333 23.4799 136.758 21.8931C137.184 20.3062 137.11 18.6268 136.547 17.0835C135.983 15.5402 134.958 14.2079 133.611 13.2681C132.263 12.3284 130.659 11.8267 129.016 11.8315L129.014 11.8315C128.283 11.8303 127.556 11.9312 126.852 12.1314L126.846 12.1332L126.846 12.1331C126.69 12.1745 126.544 12.2464 126.415 12.3449C126.287 12.4434 126.18 12.5663 126.1 12.7066C126.02 12.8469 125.968 13.0017 125.949 13.1621C125.929 13.3225 125.941 13.4851 125.985 13.6407C126.029 13.7962 126.103 13.9414 126.204 14.068L125.931 14.2844L126.204 14.068C126.304 14.1945 126.429 14.2998 126.57 14.3778L126.402 14.6826L126.57 14.3778C126.712 14.4557 126.867 14.5047 127.028 14.5219C127.189 14.5391 127.351 14.5242 127.506 14.478L127.51 14.4768L127.51 14.4768C128 14.3371 128.506 14.2668 129.016 14.2677M139.114 32.4971L129.015 14.6157M139.114 32.4971L139.11 32.5C138.907 32.6452 138.663 32.723 138.414 32.7223C138.218 32.7211 138.026 32.6734 137.853 32.5832C137.679 32.4931 137.53 32.3631 137.417 32.2039M139.114 32.4971L137.133 32.4047M129.016 14.2677L129.015 14.6157M129.016 14.2677C129.015 14.2677 129.015 14.2677 129.015 14.2677V14.6157M129.016 14.2677C130.492 14.2679 131.908 14.8546 132.953 15.8987C133.997 16.943 134.584 18.3594 134.584 19.8363C134.584 21.3131 133.997 22.7295 132.953 23.7738C131.908 24.8181 130.492 25.4048 129.015 25.4048C128.692 25.4048 128.382 25.5332 128.154 25.7616C127.925 25.99 127.797 26.2999 127.797 26.6229C127.797 26.946 127.925 27.2558 128.154 27.4843C128.382 27.7127 128.692 27.8411 129.015 27.8411H129.015C130.663 27.8429 132.286 28.2401 133.748 28.9993C135.21 29.7585 136.468 30.8575 137.417 32.2039M129.015 14.6157C130.4 14.6157 131.727 15.1658 132.706 16.1448C133.685 17.1238 134.236 18.4517 134.236 19.8363C134.236 21.2208 133.685 22.5487 132.706 23.5277C131.727 24.5068 130.4 25.0568 129.015 25.0568C128.6 25.0568 128.201 25.2218 127.908 25.5155C127.614 25.8092 127.449 26.2076 127.449 26.6229C127.449 27.0383 127.614 27.4367 127.908 27.7304C128.201 28.0241 128.6 28.1891 129.015 28.1891C130.607 28.1908 132.175 28.5746 133.587 29.3082C135 30.0417 136.216 31.1036 137.133 32.4047M137.417 32.2039C137.417 32.2037 137.417 32.2035 137.417 32.2033L137.133 32.4047M137.417 32.2039C137.417 32.204 137.417 32.2041 137.417 32.2042L137.133 32.4047M123.531 25.952L123.109 26.3077L123.612 26.5354C125.681 27.472 127.462 28.9459 128.769 30.8039L128.774 30.8109L128.78 30.8177C128.881 30.9478 128.955 31.0972 128.997 31.2568C129.04 31.4163 129.049 31.5828 129.024 31.746C129 31.9093 128.943 32.0659 128.857 32.2064C128.77 32.3468 128.656 32.4683 128.521 32.5633C128.386 32.6583 128.233 32.7249 128.072 32.759C127.91 32.7932 127.743 32.7942 127.582 32.7619C127.42 32.7297 127.266 32.6649 127.13 32.5715C126.994 32.4781 126.878 32.358 126.79 32.2186L126.786 32.2115L126.781 32.2047C125.834 30.8557 124.576 29.7545 123.113 28.9943C121.651 28.2342 120.026 27.8373 118.378 27.8373C116.73 27.8373 115.106 28.2342 113.643 28.9943C112.181 29.7545 110.923 30.8557 109.975 32.2047L109.975 32.2058C109.863 32.3657 109.715 32.4962 109.542 32.5862C109.369 32.6761 109.177 32.7228 108.982 32.7222L108.98 32.7223C108.73 32.7231 108.486 32.6453 108.283 32.5L108.281 32.4988C108.018 32.3128 107.839 32.0299 107.784 31.7121C107.729 31.3944 107.802 31.0678 107.987 30.8039C109.294 28.9459 111.075 27.472 113.145 26.5354L113.648 26.3077L113.225 25.952C111.969 24.8951 111.068 23.4773 110.644 21.891C110.221 20.3046 110.295 18.6265 110.858 17.0839C111.42 15.5414 112.444 14.2092 113.789 13.2679C115.134 12.3266 116.736 11.8217 118.378 11.8217C120.02 11.8217 121.622 12.3266 122.967 13.2679C124.313 14.2092 125.336 15.5414 125.899 17.0839C126.461 18.6265 126.536 20.3046 126.112 21.891C125.689 23.4773 124.788 24.8951 123.531 25.952ZM113.748 16.7425C113.136 17.6583 112.81 18.7349 112.81 19.8363C112.81 21.3131 113.396 22.7295 114.441 23.7738C115.485 24.8181 116.901 25.4048 118.378 25.4048C119.48 25.4048 120.556 25.0782 121.472 24.4664C122.388 23.8545 123.101 22.9848 123.523 21.9673C123.944 20.9497 124.055 19.8301 123.84 18.7499C123.625 17.6697 123.095 16.6775 122.316 15.8987C121.537 15.1199 120.545 14.5896 119.465 14.3747C118.384 14.1598 117.265 14.2701 116.247 14.6916C115.23 15.1131 114.36 15.8268 113.748 16.7425Z" fill="#5038ED" stroke="#5038ED" stroke-width="0.696069"/>
<g clip-path="url(#clip2_11_1234)">
<path d="M165.18 11.7345H162.149C162.093 11.3423 161.98 10.9939 161.809 10.6894C161.639 10.3803 161.42 10.1172 161.152 9.90039C160.884 9.68352 160.575 9.51742 160.224 9.40206C159.878 9.28671 159.502 9.22903 159.096 9.22903C158.363 9.22903 157.724 9.41129 157.179 9.7758C156.635 10.1357 156.213 10.6617 155.913 11.3538C155.613 12.0413 155.463 12.8765 155.463 13.8593C155.463 14.8698 155.613 15.7188 155.913 16.4063C156.217 17.0938 156.642 17.6128 157.186 17.9635C157.731 18.3142 158.36 18.4895 159.076 18.4895C159.477 18.4895 159.848 18.4365 160.19 18.3303C160.536 18.2242 160.843 18.0696 161.11 17.8666C161.378 17.659 161.599 17.4075 161.775 17.1122C161.955 16.8169 162.079 16.4801 162.149 16.1017L165.18 16.1156C165.102 16.7662 164.905 17.3937 164.592 17.9981C164.283 18.598 163.865 19.1355 163.339 19.6108C162.818 20.0814 162.195 20.4551 161.47 20.732C160.75 21.0042 159.936 21.1403 159.027 21.1403C157.763 21.1403 156.632 20.8543 155.636 20.2821C154.644 19.71 153.859 18.8817 153.283 17.7974C152.71 16.7131 152.424 15.4004 152.424 13.8593C152.424 12.3136 152.715 10.9985 153.296 9.91423C153.878 8.82991 154.667 8.00399 155.663 7.43646C156.66 6.86431 157.781 6.57824 159.027 6.57824C159.848 6.57824 160.61 6.69359 161.311 6.92429C162.017 7.155 162.642 7.49183 163.187 7.93478C163.731 8.37312 164.174 8.91066 164.516 9.54741C164.862 10.1842 165.083 10.9132 165.18 11.7345ZM170.222 14.8006V20.9465H167.274V6.77203H170.139V12.1913H170.264C170.504 11.5638 170.891 11.0724 171.426 10.7171C171.962 10.3572 172.633 10.1772 173.44 10.1772C174.179 10.1772 174.822 10.3387 175.371 10.6617C175.925 10.9801 176.354 11.4392 176.659 12.039C176.968 12.6342 177.12 13.3471 177.116 14.1777V20.9465H174.167V14.7037C174.172 14.0485 174.006 13.5386 173.669 13.1741C173.337 12.8096 172.871 12.6273 172.271 12.6273C171.869 12.6273 171.514 12.7127 171.205 12.8834C170.9 13.0541 170.66 13.3033 170.485 13.6309C170.314 13.9539 170.227 14.3438 170.222 14.8006ZM182.467 21.1472C181.789 21.1472 181.185 21.0296 180.654 20.7943C180.123 20.5543 179.703 20.2014 179.394 19.7353C179.09 19.2647 178.938 18.6787 178.938 17.9774C178.938 17.3868 179.046 16.8907 179.263 16.4893C179.48 16.0879 179.775 15.7649 180.149 15.5204C180.522 15.2758 180.947 15.0912 181.422 14.9667C181.902 14.8421 182.405 14.7544 182.931 14.7037C183.549 14.6391 184.048 14.5791 184.426 14.5237C184.804 14.4637 185.079 14.3761 185.25 14.2607C185.42 14.1454 185.506 13.9746 185.506 13.7485V13.707C185.506 13.2687 185.367 12.9295 185.09 12.6896C184.818 12.4497 184.431 12.3297 183.928 12.3297C183.397 12.3297 182.975 12.4474 182.661 12.6827C182.347 12.9134 182.14 13.2041 182.038 13.5548L179.311 13.3333C179.45 12.6873 179.722 12.129 180.128 11.6584C180.534 11.1831 181.058 10.8186 181.699 10.5648C182.345 10.3064 183.093 10.1772 183.941 10.1772C184.532 10.1772 185.097 10.2464 185.637 10.3849C186.182 10.5233 186.664 10.7378 187.084 11.0285C187.508 11.3192 187.843 11.693 188.087 12.1498C188.332 12.6019 188.454 13.1441 188.454 13.7762V20.9465H185.658V19.4723H185.575C185.404 19.8045 185.176 20.0975 184.89 20.3513C184.604 20.6005 184.26 20.7966 183.858 20.9396C183.457 21.078 182.993 21.1472 182.467 21.1472ZM183.312 19.1124C183.745 19.1124 184.128 19.0271 184.461 18.8563C184.793 18.681 185.053 18.4457 185.243 18.1504C185.432 17.8551 185.526 17.5206 185.526 17.1468V16.0187C185.434 16.0787 185.307 16.134 185.146 16.1848C184.989 16.2309 184.811 16.2748 184.613 16.3163C184.414 16.3532 184.216 16.3878 184.018 16.4201C183.819 16.4478 183.639 16.4732 183.478 16.4962C183.132 16.547 182.829 16.6277 182.571 16.7385C182.313 16.8492 182.112 16.9992 181.969 17.1884C181.826 17.3729 181.754 17.6036 181.754 17.8805C181.754 18.2819 181.9 18.5887 182.19 18.801C182.486 19.0086 182.859 19.1124 183.312 19.1124ZM196.396 10.3157V12.5304H189.994V10.3157H196.396ZM191.447 7.76867H194.396V17.6798C194.396 17.952 194.437 18.1642 194.52 18.3165C194.604 18.4641 194.719 18.568 194.867 18.6279C195.019 18.6879 195.194 18.7179 195.393 18.7179C195.531 18.7179 195.669 18.7064 195.808 18.6833C195.946 18.6556 196.052 18.6349 196.126 18.621L196.59 20.815C196.442 20.8612 196.235 20.9142 195.967 20.9742C195.699 21.0388 195.374 21.078 194.991 21.0919C194.281 21.1196 193.658 21.025 193.122 20.8081C192.592 20.5912 192.179 20.2544 191.884 19.7976C191.588 19.3408 191.443 18.7641 191.447 18.0673V7.76867ZM198.6 20.9465V6.77203H204.276C205.319 6.77203 206.188 6.9266 206.885 7.23574C207.582 7.54489 208.106 7.974 208.456 8.52308C208.807 9.06754 208.982 9.69506 208.982 10.4056C208.982 10.9593 208.871 11.4461 208.65 11.866C208.429 12.2813 208.124 12.6227 207.736 12.8903C207.353 13.1533 206.915 13.3402 206.421 13.4509V13.5894C206.961 13.6124 207.466 13.7647 207.937 14.0462C208.412 14.3276 208.798 14.7221 209.093 15.2297C209.388 15.7326 209.536 16.3324 209.536 17.0292C209.536 17.7813 209.349 18.4526 208.975 19.0432C208.606 19.6292 208.059 20.0929 207.335 20.4344C206.611 20.7758 205.718 20.9465 204.656 20.9465H198.6ZM201.597 18.4964H204.04C204.876 18.4964 205.485 18.3373 205.868 18.0189C206.251 17.6959 206.442 17.2668 206.442 16.7316C206.442 16.3394 206.348 15.9933 206.158 15.6934C205.969 15.3935 205.699 15.1581 205.349 14.9874C205.003 14.8167 204.59 14.7313 204.11 14.7313H201.597V18.4964ZM201.597 12.7034H203.819C204.23 12.7034 204.594 12.6319 204.913 12.4889C205.236 12.3412 205.489 12.1336 205.674 11.866C205.863 11.5984 205.958 11.2777 205.958 10.904C205.958 10.3918 205.775 9.97883 205.411 9.66507C205.051 9.35131 204.539 9.19443 203.874 9.19443H201.597V12.7034ZM216.234 21.1542C215.159 21.1542 214.229 20.9258 213.445 20.469C212.665 20.0076 212.063 19.3662 211.638 18.5449C211.214 17.719 211.001 16.7615 211.001 15.6726C211.001 14.5745 211.214 13.6147 211.638 12.7934C212.063 11.9675 212.665 11.3261 213.445 10.8693C214.229 10.4079 215.159 10.1772 216.234 10.1772C217.309 10.1772 218.236 10.4079 219.016 10.8693C219.801 11.3261 220.405 11.9675 220.829 12.7934C221.254 13.6147 221.466 14.5745 221.466 15.6726C221.466 16.7615 221.254 17.719 220.829 18.5449C220.405 19.3662 219.801 20.0076 219.016 20.469C218.236 20.9258 217.309 21.1542 216.234 21.1542ZM216.248 18.8702C216.737 18.8702 217.145 18.7318 217.473 18.4549C217.8 18.1735 218.047 17.7905 218.213 17.306C218.384 16.8215 218.469 16.2701 218.469 15.6519C218.469 15.0336 218.384 14.4822 218.213 13.9977C218.047 13.5132 217.8 13.1303 217.473 12.8488C217.145 12.5673 216.737 12.4266 216.248 12.4266C215.754 12.4266 215.339 12.5673 215.002 12.8488C214.67 13.1303 214.418 13.5132 214.247 13.9977C214.081 14.4822 213.998 15.0336 213.998 15.6519C213.998 16.2701 214.081 16.8215 214.247 17.306C214.418 17.7905 214.67 18.1735 215.002 18.4549C215.339 18.7318 215.754 18.8702 216.248 18.8702ZM229.038 10.3157V12.5304H222.636V10.3157H229.038ZM224.089 7.76867H227.038V17.6798C227.038 17.952 227.079 18.1642 227.162 18.3165C227.245 18.4641 227.361 18.568 227.508 18.6279C227.661 18.6879 227.836 18.7179 228.034 18.7179C228.173 18.7179 228.311 18.7064 228.45 18.6833C228.588 18.6556 228.694 18.6349 228.768 18.621L229.232 20.815C229.084 20.8612 228.876 20.9142 228.609 20.9742C228.341 21.0388 228.016 21.078 227.633 21.0919C226.922 21.1196 226.299 21.025 225.764 20.8081C225.234 20.5912 224.821 20.2544 224.525 19.7976C224.23 19.3408 224.085 18.7641 224.089 18.0673V7.76867ZM233.905 6.77203V8.267C233.905 8.69149 233.822 9.12522 233.656 9.56817C233.495 10.0065 233.278 10.4218 233.005 10.814C232.733 11.2016 232.436 11.5315 232.113 11.8037L230.811 11.0355C231.042 10.6709 231.245 10.2672 231.421 9.82425C231.6 9.3813 231.69 8.86683 231.69 8.28084V6.77203H233.905ZM243.382 13.3471L240.683 13.5132C240.637 13.2825 240.537 13.0749 240.385 12.8903C240.233 12.7011 240.032 12.5512 239.783 12.4404C239.538 12.3251 239.245 12.2674 238.904 12.2674C238.447 12.2674 238.062 12.3643 237.748 12.5581C237.434 12.7473 237.278 13.0011 237.278 13.3194C237.278 13.5732 237.379 13.7878 237.582 13.9631C237.785 14.1384 238.133 14.2792 238.627 14.3853L240.551 14.7729C241.585 14.9851 242.355 15.3266 242.863 15.7972C243.37 16.2678 243.624 16.8861 243.624 17.6521C243.624 18.3488 243.419 18.9602 243.008 19.4862C242.602 20.0122 242.044 20.4228 241.333 20.7181C240.627 21.0088 239.813 21.1542 238.89 21.1542C237.483 21.1542 236.362 20.8612 235.527 20.2752C234.696 19.6846 234.209 18.8817 234.066 17.8666L236.966 17.7144C237.054 18.1435 237.266 18.4711 237.603 18.6972C237.94 18.9186 238.371 19.0294 238.897 19.0294C239.414 19.0294 239.829 18.9302 240.143 18.7318C240.461 18.5287 240.623 18.268 240.627 17.9497C240.623 17.6821 240.51 17.4629 240.288 17.2922C240.067 17.1168 239.725 16.983 239.264 16.8907L237.423 16.5239C236.385 16.3163 235.612 15.9564 235.104 15.4442C234.601 14.9321 234.35 14.2792 234.35 13.4855C234.35 12.8027 234.534 12.2144 234.904 11.7206C235.277 11.2269 235.801 10.8463 236.475 10.5787C237.153 10.311 237.947 10.1772 238.856 10.1772C240.198 10.1772 241.255 10.461 242.025 11.0285C242.801 11.5961 243.253 12.3689 243.382 13.3471Z" fill="#4D4D4D"/>
<path d="M156.852 32.8717C156.804 32.471 156.612 32.1599 156.274 31.9384C155.937 31.7169 155.523 31.6062 155.033 31.6062C154.674 31.6062 154.36 31.6642 154.091 31.7802C153.825 31.8962 153.617 32.0557 153.466 32.2587C153.319 32.4617 153.245 32.6925 153.245 32.9508C153.245 33.167 153.296 33.3529 153.399 33.5085C153.505 33.6614 153.639 33.7893 153.803 33.8921C153.966 33.9923 154.137 34.0754 154.317 34.1413C154.496 34.2046 154.661 34.256 154.811 34.2955L155.634 34.517C155.845 34.5724 156.079 34.6488 156.338 34.7464C156.599 34.8439 156.848 34.9771 157.085 35.1458C157.325 35.3119 157.523 35.5255 157.678 35.7865C157.834 36.0476 157.912 36.3679 157.912 36.7476C157.912 37.1853 157.797 37.5808 157.568 37.9341C157.341 38.2874 157.009 38.5682 156.571 38.7765C156.136 38.9848 155.607 39.0889 154.985 39.0889C154.405 39.0889 153.903 38.9953 153.478 38.8081C153.056 38.6209 152.724 38.3599 152.482 38.025C152.242 37.6902 152.106 37.3013 152.074 36.8583H153.087C153.113 37.1642 153.216 37.4173 153.395 37.6177C153.577 37.8154 153.807 37.9631 154.083 38.0606C154.363 38.1555 154.663 38.203 154.985 38.203C155.36 38.203 155.696 38.1424 155.994 38.0211C156.292 37.8972 156.528 37.7258 156.702 37.5069C156.876 37.2855 156.963 37.0271 156.963 36.7318C156.963 36.4628 156.887 36.244 156.737 36.0752C156.587 35.9065 156.389 35.7694 156.144 35.6639C155.899 35.5585 155.634 35.4662 155.349 35.3871L154.352 35.1023C153.72 34.9204 153.219 34.6607 152.849 34.3232C152.48 33.9857 152.296 33.5441 152.296 32.9983C152.296 32.5448 152.418 32.1493 152.664 31.8118C152.911 31.4717 153.244 31.208 153.66 31.0208C154.079 30.831 154.547 30.7361 155.064 30.7361C155.586 30.7361 156.05 30.8297 156.456 31.0169C156.862 31.2014 157.184 31.4546 157.421 31.7762C157.661 32.0979 157.788 32.4631 157.801 32.8717H156.852ZM163.226 36.4628V32.8717H164.16V38.9465H163.226V37.9182H163.163C163.021 38.2267 162.799 38.4891 162.499 38.7053C162.198 38.9188 161.818 39.0256 161.36 39.0256C160.98 39.0256 160.642 38.9426 160.347 38.7765C160.052 38.6077 159.82 38.3546 159.651 38.0171C159.482 37.677 159.398 37.2485 159.398 36.7318V32.8717H160.331V36.6685C160.331 37.1114 160.455 37.4647 160.703 37.7284C160.953 37.9921 161.273 38.1239 161.66 38.1239C161.892 38.1239 162.128 38.0646 162.368 37.9459C162.611 37.8273 162.814 37.6454 162.977 37.4002C163.143 37.1549 163.226 36.8425 163.226 36.4628ZM165.869 41.2246V32.8717H166.771V33.8368H166.882C166.95 33.7313 167.045 33.5968 167.166 33.4333C167.29 33.2672 167.467 33.1196 167.696 32.9904C167.928 32.8586 168.242 32.7926 168.638 32.7926C169.149 32.7926 169.6 32.9205 169.99 33.1763C170.38 33.432 170.685 33.7946 170.904 34.2639C171.123 34.7332 171.232 35.2869 171.232 35.925C171.232 36.5683 171.123 37.1259 170.904 37.5979C170.685 38.0672 170.382 38.4311 169.994 38.6895C169.607 38.9452 169.16 39.0731 168.653 39.0731C168.263 39.0731 167.951 39.0085 167.716 38.8793C167.481 38.7475 167.301 38.5985 167.174 38.4324C167.048 38.2636 166.95 38.1239 166.882 38.0132H166.803V41.2246H165.869ZM166.787 35.9091C166.787 36.3679 166.854 36.7726 166.988 37.1233C167.123 37.4713 167.319 37.7442 167.578 37.942C167.836 38.1371 168.152 38.2346 168.527 38.2346C168.917 38.2346 169.243 38.1318 169.504 37.9262C169.767 37.7179 169.965 37.4384 170.097 37.0877C170.231 36.7344 170.299 36.3415 170.299 35.9091C170.299 35.482 170.233 35.0971 170.101 34.7543C169.972 34.4089 169.775 34.136 169.512 33.9356C169.251 33.7326 168.922 33.6311 168.527 33.6311C168.147 33.6311 167.828 33.7273 167.57 33.9198C167.311 34.1096 167.116 34.3759 166.984 34.7187C166.853 35.0588 166.787 35.4556 166.787 35.9091ZM175.124 39.0731C174.575 39.0731 174.094 38.9426 173.68 38.6816C173.269 38.4205 172.947 38.0554 172.715 37.586C172.486 37.1167 172.371 36.5683 172.371 35.9408C172.371 35.308 172.486 34.7556 172.715 34.2837C172.947 33.8117 173.269 33.4452 173.68 33.1842C174.094 32.9232 174.575 32.7926 175.124 32.7926C175.672 32.7926 176.152 32.9232 176.563 33.1842C176.977 33.4452 177.299 33.8117 177.528 34.2837C177.76 34.7556 177.876 35.308 177.876 35.9408C177.876 36.5683 177.76 37.1167 177.528 37.586C177.299 38.0554 176.977 38.4205 176.563 38.6816C176.152 38.9426 175.672 39.0731 175.124 39.0731ZM175.124 38.2346C175.54 38.2346 175.883 38.1279 176.152 37.9143C176.421 37.7007 176.62 37.4199 176.749 37.0719C176.878 36.7239 176.943 36.3468 176.943 35.9408C176.943 35.5347 176.878 35.1564 176.749 34.8057C176.62 34.455 176.421 34.1716 176.152 33.9554C175.883 33.7392 175.54 33.6311 175.124 33.6311C174.707 33.6311 174.364 33.7392 174.095 33.9554C173.826 34.1716 173.627 34.455 173.498 34.8057C173.369 35.1564 173.304 35.5347 173.304 35.9408C173.304 36.3468 173.369 36.7239 173.498 37.0719C173.627 37.4199 173.826 37.7007 174.095 37.9143C174.364 38.1279 174.707 38.2346 175.124 38.2346ZM179.301 38.9465V32.8717H180.203V33.7893H180.266C180.377 33.4887 180.577 33.2448 180.867 33.0576C181.157 32.8704 181.484 32.7768 181.848 32.7768C181.917 32.7768 182.002 32.7781 182.105 32.7808C182.208 32.7834 182.286 32.7874 182.339 32.7926V33.7418C182.307 33.7339 182.234 33.7221 182.121 33.7062C182.01 33.6878 181.893 33.6786 181.769 33.6786C181.474 33.6786 181.21 33.7405 180.978 33.8644C180.749 33.9857 180.567 34.1545 180.432 34.3707C180.3 34.5842 180.234 34.8281 180.234 35.1023V38.9465H179.301ZM186.467 32.8717V33.6627H183.319V32.8717H186.467ZM184.237 31.4163H185.17V37.2064C185.17 37.47 185.208 37.6678 185.285 37.7996C185.364 37.9288 185.464 38.0158 185.586 38.0606C185.709 38.1028 185.84 38.1239 185.977 38.1239C186.08 38.1239 186.164 38.1186 186.23 38.1081C186.296 38.0949 186.349 38.0844 186.388 38.0764L186.578 38.9149C186.515 38.9386 186.427 38.9624 186.313 38.9861C186.2 39.0124 186.056 39.0256 185.882 39.0256C185.618 39.0256 185.36 38.9689 185.107 38.8556C184.856 38.7422 184.648 38.5695 184.482 38.3375C184.319 38.1054 184.237 37.8128 184.237 37.4595V31.4163ZM190.353 39.0731C189.768 39.0731 189.263 38.9439 188.838 38.6855C188.417 38.4245 188.091 38.0606 187.862 37.5939C187.635 37.1246 187.521 36.5788 187.521 35.9566C187.521 35.3344 187.635 34.7859 187.862 34.3113C188.091 33.8341 188.41 33.4623 188.819 33.196C189.23 32.9271 189.71 32.7926 190.258 32.7926C190.575 32.7926 190.887 32.8454 191.196 32.9508C191.504 33.0563 191.785 33.2277 192.038 33.465C192.291 33.6996 192.493 34.0108 192.643 34.3984C192.793 34.7859 192.869 35.2632 192.869 35.83V36.2255H188.186V35.4187H191.919C191.919 35.076 191.851 34.7701 191.714 34.5012C191.579 34.2322 191.387 34.02 191.136 33.8644C190.888 33.7089 190.596 33.6311 190.258 33.6311C189.887 33.6311 189.565 33.7234 189.293 33.9079C189.024 34.0899 188.817 34.3272 188.672 34.6198C188.527 34.9125 188.455 35.2263 188.455 35.5611V36.099C188.455 36.5577 188.534 36.9467 188.692 37.2657C188.853 37.5821 189.076 37.8233 189.361 37.9894C189.645 38.1529 189.976 38.2346 190.353 38.2346C190.598 38.2346 190.82 38.2004 191.018 38.1318C191.218 38.0606 191.391 37.9552 191.536 37.8154C191.681 37.673 191.793 37.4964 191.872 37.2855L192.774 37.5386C192.679 37.8444 192.519 38.1134 192.295 38.3454C192.071 38.5748 191.794 38.7541 191.465 38.8833C191.135 39.0098 190.765 39.0731 190.353 39.0731ZM202.388 32.8717L200.142 38.9465H199.192L196.946 32.8717H197.959L199.635 37.7126H199.699L201.376 32.8717H202.388ZM203.62 38.9465V32.8717H204.553V38.9465H203.62ZM204.095 31.8593C203.913 31.8593 203.756 31.7973 203.624 31.6734C203.495 31.5495 203.43 31.4005 203.43 31.2265C203.43 31.0525 203.495 30.9035 203.624 30.7796C203.756 30.6557 203.913 30.5937 204.095 30.5937C204.277 30.5937 204.432 30.6557 204.561 30.7796C204.693 30.9035 204.759 31.0525 204.759 31.2265C204.759 31.4005 204.693 31.5495 204.561 31.6734C204.432 31.7973 204.277 31.8593 204.095 31.8593ZM208.051 39.0889C207.666 39.0889 207.316 39.0164 207.003 38.8714C206.689 38.7237 206.44 38.5115 206.255 38.2346C206.07 37.9552 205.978 37.6177 205.978 37.2222C205.978 36.8741 206.047 36.592 206.184 36.3758C206.321 36.157 206.504 35.9856 206.734 35.8617C206.963 35.7378 207.216 35.6455 207.493 35.5848C207.772 35.5216 208.053 35.4715 208.335 35.4345C208.704 35.3871 209.004 35.3515 209.233 35.3278C209.465 35.3014 209.634 35.2579 209.739 35.1972C209.847 35.1366 209.901 35.0311 209.901 34.8809V34.8492C209.901 34.459 209.795 34.1558 209.581 33.9396C209.37 33.7234 209.05 33.6153 208.62 33.6153C208.174 33.6153 207.825 33.7128 207.572 33.9079C207.319 34.103 207.141 34.3113 207.038 34.5328L206.152 34.2164C206.31 33.8473 206.521 33.5599 206.785 33.3542C207.051 33.146 207.341 33.0009 207.655 32.9192C207.971 32.8348 208.283 32.7926 208.588 32.7926C208.784 32.7926 209.008 32.8164 209.261 32.8638C209.517 32.9087 209.763 33.0023 210 33.1446C210.24 33.287 210.439 33.5019 210.598 33.7893C210.756 34.0767 210.835 34.4616 210.835 34.9441V38.9465H209.901V38.1239H209.854C209.791 38.2557 209.685 38.3968 209.538 38.5471C209.39 38.6974 209.194 38.8252 208.948 38.9307C208.703 39.0362 208.404 39.0889 208.051 39.0889ZM208.193 38.2505C208.562 38.2505 208.873 38.178 209.126 38.0329C209.382 37.8879 209.575 37.7007 209.704 37.4713C209.836 37.242 209.901 37.0007 209.901 36.7476V35.8933C209.862 35.9408 209.775 35.9843 209.64 36.0238C209.509 36.0607 209.356 36.0937 209.182 36.1227C209.01 36.1491 208.843 36.1728 208.679 36.1939C208.519 36.2124 208.388 36.2282 208.288 36.2414C208.045 36.273 207.819 36.3244 207.608 36.3956C207.399 36.4641 207.231 36.5683 207.101 36.708C206.975 36.8451 206.912 37.0323 206.912 37.2696C206.912 37.5939 207.032 37.8391 207.271 38.0053C207.514 38.1687 207.821 38.2505 208.193 38.2505ZM216.778 30.8468V38.9465H215.797V30.8468H216.778ZM219.077 38.9465H218.049L221.023 30.8468H222.035L225.009 38.9465H223.981L221.561 32.1282H221.497L219.077 38.9465ZM219.457 35.7826H223.601V36.6527H219.457V35.7826Z" fill="#717171"/>
</g>
</g>
<g clip-path="url(#clip3_11_1234)">
<path d="M28.0206 105.819V103.034C28.0206 101.557 27.4339 100.141 26.3896 99.0967C25.3453 98.0524 23.9289 97.4657 22.452 97.4657H21.0599C20.6906 97.4657 20.3366 97.3191 20.0755 97.058C19.8144 96.7969 19.6677 96.4428 19.6677 96.0736V89.1129C19.6677 88.3745 19.3744 87.6663 18.8522 87.1441C18.3301 86.622 17.6219 86.3286 16.8834 86.3286C16.145 86.3286 15.4368 86.622 14.9147 87.1441C14.3925 87.6663 14.0992 88.3745 14.0992 89.1129V101.642L10.758 97.1873C10.4987 96.8415 10.1624 96.5608 9.77578 96.3675C9.38917 96.1742 8.96286 96.0736 8.53062 96.0736H7.92643C6.72223 96.0736 5.74634 97.0495 5.74634 98.2537C5.74634 98.6491 5.85353 99.0375 6.05678 99.3758L9.92275 105.819M16.8834 82.1522V80.7601V82.1522ZM25.2363 90.505H26.6284H25.2363ZM7.13848 90.505H8.53062H7.13848ZM10.4003 84.0219L9.41602 83.0376L10.4003 84.0219ZM23.3666 84.0219L24.3509 83.0376L23.3666 84.0219Z" fill="#5038ED"/>
<path d="M28.0206 105.819V103.034C28.0206 101.557 27.4339 100.141 26.3896 99.0967C25.3453 98.0524 23.9289 97.4657 22.452 97.4657H21.0599C20.6906 97.4657 20.3366 97.3191 20.0755 97.058C19.8144 96.7969 19.6677 96.4428 19.6677 96.0736V89.1129C19.6677 88.3745 19.3744 87.6663 18.8522 87.1441C18.3301 86.622 17.6219 86.3286 16.8834 86.3286V86.3286C16.145 86.3286 15.4368 86.622 14.9147 87.1441C14.3925 87.6663 14.0992 88.3745 14.0992 89.1129V101.642L10.758 97.1873C10.4987 96.8415 10.1624 96.5608 9.77578 96.3675C9.38917 96.1742 8.96286 96.0736 8.53062 96.0736H7.92643C6.72223 96.0736 5.74634 97.0495 5.74634 98.2537C5.74634 98.6491 5.85353 99.0375 6.05678 99.3758L9.92275 105.819M16.8834 82.1522V80.7601M25.2363 90.505H26.6284M7.13848 90.505H8.53062M10.4003 84.0219L9.41602 83.0376M23.3666 84.0219L24.3509 83.0376" stroke="#5038ED" stroke-width="1.39214" stroke-linecap="round" stroke-linejoin="round"/>
<g clip-path="url(#clip4_11_1234)">
<path d="M45.9582 91.7893V77.6148H51.5504C52.6255 77.6148 53.5414 77.8201 54.2981 78.2308C55.0549 78.6368 55.6316 79.2021 56.0284 79.9265C56.4299 80.6463 56.6306 81.4768 56.6306 82.4181C56.6306 83.3594 56.4275 84.1899 56.0215 84.9097C55.6155 85.6295 55.0272 86.1901 54.2566 86.5915C53.4907 86.993 52.5632 87.1937 51.4743 87.1937H47.9099V84.792H50.9898C51.5666 84.792 52.0418 84.6928 52.4156 84.4944C52.7939 84.2914 53.0754 84.0122 53.26 83.657C53.4491 83.2971 53.5437 82.8841 53.5437 82.4181C53.5437 81.9474 53.4491 81.5368 53.26 81.1861C53.0754 80.8308 52.7939 80.5563 52.4156 80.3625C52.0372 80.1641 51.5574 80.0649 50.976 80.0649H48.955V91.7893H45.9582ZM60.342 95.7759C59.9683 95.7759 59.6176 95.7459 59.29 95.6859C58.967 95.6305 58.6994 95.559 58.4872 95.4714L59.1516 93.2704C59.4977 93.3766 59.8091 93.4342 60.0859 93.4435C60.3674 93.4527 60.6096 93.3881 60.8127 93.2497C61.0203 93.1112 61.1887 92.8759 61.3179 92.5437L61.4909 92.0938L57.6774 81.1584H60.7781L62.979 88.9655H63.0897L65.3114 81.1584H68.4328L64.3009 92.9382C64.1025 93.5104 63.8326 94.0087 63.4912 94.4332C63.1543 94.8623 62.7275 95.1922 62.2107 95.4229C61.694 95.6582 61.0711 95.7759 60.342 95.7759ZM75.5962 81.1584V83.3732H69.1942V81.1584H75.5962ZM70.6476 78.6114H73.596V88.5225C73.596 88.7948 73.6376 89.007 73.7206 89.1593C73.8037 89.3069 73.919 89.4107 74.0667 89.4707C74.2189 89.5307 74.3943 89.5607 74.5927 89.5607C74.7311 89.5607 74.8695 89.5492 75.0079 89.5261C75.1464 89.4984 75.2525 89.4776 75.3263 89.4638L75.79 91.6578C75.6424 91.7039 75.4347 91.757 75.1671 91.817C74.8995 91.8816 74.5742 91.9208 74.1912 91.9347C73.4807 91.9623 72.8578 91.8677 72.3225 91.6509C71.7919 91.434 71.379 91.0972 71.0836 90.6404C70.7883 90.1836 70.643 89.6068 70.6476 88.9101V78.6114ZM80.6937 85.6433V91.7893H77.7452V77.6148H80.6106V83.0341H80.7352C80.9751 82.4065 81.3627 81.9151 81.8979 81.5599C82.4332 81.2 83.1045 81.02 83.912 81.02C84.6502 81.02 85.2939 81.1815 85.843 81.5045C86.3967 81.8229 86.8258 82.282 87.1303 82.8818C87.4395 83.477 87.5917 84.1899 87.5871 85.0204V91.7893H84.6387V85.5464C84.6433 84.8912 84.4772 84.3814 84.1404 84.0169C83.8082 83.6523 83.3421 83.4701 82.7423 83.4701C82.3409 83.4701 81.9856 83.5555 81.6765 83.7262C81.3719 83.8969 81.132 84.1461 80.9567 84.4737C80.7859 84.7966 80.6983 85.1865 80.6937 85.6433ZM94.7107 91.9969C93.6356 91.9969 92.7059 91.7685 91.9215 91.3117C91.1417 90.8503 90.5396 90.209 90.1151 89.3877C89.6906 88.5617 89.4783 87.6043 89.4783 86.5154C89.4783 85.4172 89.6906 84.4575 90.1151 83.6362C90.5396 82.8103 91.1417 82.1689 91.9215 81.7121C92.7059 81.2507 93.6356 81.02 94.7107 81.02C95.7858 81.02 96.7132 81.2507 97.493 81.7121C98.2774 82.1689 98.8818 82.8103 99.3063 83.6362C99.7308 84.4575 99.9431 85.4172 99.9431 86.5154C99.9431 87.6043 99.7308 88.5617 99.3063 89.3877C98.8818 90.209 98.2774 90.8503 97.493 91.3117C96.7132 91.7685 95.7858 91.9969 94.7107 91.9969ZM94.7245 89.713C95.2136 89.713 95.622 89.5745 95.9496 89.2977C96.2772 89.0162 96.524 88.6333 96.6902 88.1488C96.8609 87.6643 96.9462 87.1129 96.9462 86.4946C96.9462 85.8763 96.8609 85.325 96.6902 84.8405C96.524 84.356 96.2772 83.973 95.9496 83.6916C95.622 83.4101 95.2136 83.2694 94.7245 83.2694C94.2308 83.2694 93.8156 83.4101 93.4787 83.6916C93.1465 83.973 92.8951 84.356 92.7243 84.8405C92.5582 85.325 92.4752 85.8763 92.4752 86.4946C92.4752 87.1129 92.5582 87.6643 92.7243 88.1488C92.8951 88.6333 93.1465 89.0162 93.4787 89.2977C93.8156 89.5745 94.2308 89.713 94.7245 89.713ZM104.809 85.6433V91.7893H101.86V81.1584H104.67V83.0341H104.795C105.03 82.4158 105.425 81.9267 105.978 81.5668C106.532 81.2023 107.203 81.02 107.992 81.02C108.731 81.02 109.374 81.1815 109.923 81.5045C110.472 81.8275 110.899 82.2889 111.204 82.8887C111.508 83.4839 111.661 84.1945 111.661 85.0204V91.7893H108.712V85.5464C108.717 84.8958 108.551 84.3883 108.214 84.0238C107.877 83.6547 107.413 83.4701 106.823 83.4701C106.426 83.4701 106.075 83.5555 105.771 83.7262C105.471 83.8969 105.235 84.1461 105.065 84.4737C104.899 84.7966 104.813 85.1865 104.809 85.6433Z" fill="#4D4D4D"/>
<path d="M45.011 101.69H46.1342L48.3806 105.471H48.4755L50.7219 101.69H51.8451L48.9184 106.451V109.789H47.9376V106.451L45.011 101.69ZM54.5957 109.916C54.0473 109.916 53.5661 109.785 53.1522 109.524C52.7409 109.263 52.4192 108.898 52.1872 108.429C51.9578 107.959 51.8431 107.411 51.8431 106.784C51.8431 106.151 51.9578 105.598 52.1872 105.126C52.4192 104.654 52.7409 104.288 53.1522 104.027C53.5661 103.766 54.0473 103.635 54.5957 103.635C55.1442 103.635 55.624 103.766 56.0353 104.027C56.4493 104.288 56.771 104.654 57.0004 105.126C57.2324 105.598 57.3484 106.151 57.3484 106.784C57.3484 107.411 57.2324 107.959 57.0004 108.429C56.771 108.898 56.4493 109.263 56.0353 109.524C55.624 109.785 55.1442 109.916 54.5957 109.916ZM54.5957 109.077C55.0123 109.077 55.3551 108.971 55.624 108.757C55.893 108.544 56.092 108.263 56.2212 107.915C56.3504 107.567 56.415 107.19 56.415 106.784C56.415 106.378 56.3504 105.999 56.2212 105.648C56.092 105.298 55.893 105.014 55.624 104.798C55.3551 104.582 55.0123 104.474 54.5957 104.474C54.1792 104.474 53.8364 104.582 53.5675 104.798C53.2985 105.014 53.0995 105.298 52.9703 105.648C52.8411 105.999 52.7765 106.378 52.7765 106.784C52.7765 107.19 52.8411 107.567 52.9703 107.915C53.0995 108.263 53.2985 108.544 53.5675 108.757C53.8364 108.971 54.1792 109.077 54.5957 109.077ZM59.7065 101.69V109.789H58.7732V101.69H59.7065ZM63.8839 109.916C63.3355 109.916 62.8543 109.785 62.4404 109.524C62.0291 109.263 61.7074 108.898 61.4754 108.429C61.246 107.959 61.1313 107.411 61.1313 106.784C61.1313 106.151 61.246 105.598 61.4754 105.126C61.7074 104.654 62.0291 104.288 62.4404 104.027C62.8543 103.766 63.3355 103.635 63.8839 103.635C64.4323 103.635 64.9122 103.766 65.3235 104.027C65.7375 104.288 66.0591 104.654 66.2885 105.126C66.5206 105.598 66.6366 106.151 66.6366 106.784C66.6366 107.411 66.5206 107.959 66.2885 108.429C66.0591 108.898 65.7375 109.263 65.3235 109.524C64.9122 109.785 64.4323 109.916 63.8839 109.916ZM63.8839 109.077C64.3005 109.077 64.6433 108.971 64.9122 108.757C65.1811 108.544 65.3802 108.263 65.5094 107.915C65.6386 107.567 65.7032 107.19 65.7032 106.784C65.7032 106.378 65.6386 105.999 65.5094 105.648C65.3802 105.298 65.1811 105.014 64.9122 104.798C64.6433 104.582 64.3005 104.474 63.8839 104.474C63.4673 104.474 63.1246 104.582 62.8556 104.798C62.5867 105.014 62.3876 105.298 62.2584 105.648C62.1293 105.999 62.0647 106.378 62.0647 106.784C62.0647 107.19 62.1293 107.567 62.2584 107.915C62.3876 108.263 62.5867 108.544 62.8556 108.757C63.1246 108.971 63.4673 109.077 63.8839 109.077ZM73.7406 109.916C73.1553 109.916 72.6504 109.787 72.2259 109.528C71.804 109.267 71.4784 108.903 71.249 108.437C71.0223 107.967 70.9089 107.422 70.9089 106.799C70.9089 106.177 71.0223 105.629 71.249 105.154C71.4784 104.677 71.7974 104.305 72.2061 104.039C72.6174 103.77 73.0973 103.635 73.6457 103.635C73.9621 103.635 74.2745 103.688 74.583 103.794C74.8915 103.899 75.1723 104.07 75.4254 104.308C75.6785 104.542 75.8802 104.854 76.0305 105.241C76.1808 105.629 76.256 106.106 76.256 106.673V107.068H71.5733V106.261H75.3068C75.3068 105.919 75.2382 105.613 75.1011 105.344C74.9667 105.075 74.7742 104.863 74.5237 104.707C74.2759 104.552 73.9832 104.474 73.6457 104.474C73.2739 104.474 72.9523 104.566 72.6807 104.751C72.4118 104.933 72.2048 105.17 72.0598 105.463C71.9148 105.755 71.8423 106.069 71.8423 106.404V106.942C71.8423 107.401 71.9214 107.789 72.0796 108.108C72.2404 108.425 72.4632 108.666 72.7479 108.832C73.0327 108.996 73.3636 109.077 73.7406 109.077C73.9858 109.077 74.2073 109.043 74.4051 108.975C74.6054 108.903 74.7781 108.798 74.9232 108.658C75.0682 108.516 75.1802 108.339 75.2593 108.128L76.1611 108.381C76.0661 108.687 75.9066 108.956 75.6825 109.188C75.4584 109.418 75.1815 109.597 74.852 109.726C74.5224 109.853 74.1519 109.916 73.7406 109.916ZM87.7688 105.739C87.7688 106.594 87.6146 107.332 87.3061 107.954C86.9976 108.576 86.5744 109.056 86.0365 109.394C85.4987 109.731 84.8843 109.9 84.1935 109.9C83.5027 109.9 82.8884 109.731 82.3505 109.394C81.8127 109.056 81.3895 108.576 81.081 107.954C80.7725 107.332 80.6183 106.594 80.6183 105.739C80.6183 104.885 80.7725 104.147 81.081 103.525C81.3895 102.902 81.8127 102.423 82.3505 102.085C82.8884 101.748 83.5027 101.579 84.1935 101.579C84.8843 101.579 85.4987 101.748 86.0365 102.085C86.5744 102.423 86.9976 102.902 87.3061 103.525C87.6146 104.147 87.7688 104.885 87.7688 105.739ZM86.8196 105.739C86.8196 105.038 86.7023 104.446 86.4676 103.964C86.2356 103.481 85.9205 103.116 85.5224 102.868C85.1269 102.62 84.6839 102.496 84.1935 102.496C83.7031 102.496 83.2589 102.62 82.8607 102.868C82.4652 103.116 82.1501 103.481 81.9155 103.964C81.6835 104.446 81.5675 105.038 81.5675 105.739C81.5675 106.441 81.6835 107.033 81.9155 107.515C82.1501 107.998 82.4652 108.363 82.8607 108.611C83.2589 108.859 83.7031 108.982 84.1935 108.982C84.6839 108.982 85.1269 108.859 85.5224 108.611C85.9205 108.363 86.2356 107.998 86.4676 107.515C86.7023 107.033 86.8196 106.441 86.8196 105.739ZM89.2915 112.067V103.715H90.1932V104.68H90.3039C90.3725 104.574 90.4674 104.44 90.5887 104.276C90.7126 104.11 90.8892 103.962 91.1186 103.833C91.3507 103.701 91.6644 103.635 92.0599 103.635C92.5714 103.635 93.0223 103.763 93.4125 104.019C93.8027 104.275 94.1072 104.637 94.3261 105.107C94.5449 105.576 94.6543 106.13 94.6543 106.768C94.6543 107.411 94.5449 107.969 94.3261 108.441C94.1072 108.91 93.804 109.274 93.4165 109.532C93.0289 109.788 92.582 109.916 92.0757 109.916C91.6855 109.916 91.3731 109.851 91.1384 109.722C90.9037 109.59 90.7231 109.441 90.5966 109.275C90.47 109.106 90.3725 108.967 90.3039 108.856H90.2248V112.067H89.2915ZM90.209 106.752C90.209 107.211 90.2762 107.615 90.4107 107.966C90.5452 108.314 90.7416 108.587 91 108.785C91.2584 108.98 91.5748 109.077 91.9492 109.077C92.3394 109.077 92.665 108.975 92.926 108.769C93.1897 108.561 93.3875 108.281 93.5193 107.93C93.6537 107.577 93.721 107.184 93.721 106.752C93.721 106.325 93.6551 105.94 93.5232 105.597C93.394 105.252 93.1976 104.979 92.934 104.778C92.6729 104.575 92.3447 104.474 91.9492 104.474C91.5695 104.474 91.2505 104.57 90.9921 104.763C90.7337 104.952 90.5386 105.219 90.4067 105.561C90.2749 105.902 90.209 106.298 90.209 106.752ZM98.6251 109.916C98.0398 109.916 97.5349 109.787 97.1104 109.528C96.6885 109.267 96.3629 108.903 96.1335 108.437C95.9067 107.967 95.7934 107.422 95.7934 106.799C95.7934 106.177 95.9067 105.629 96.1335 105.154C96.3629 104.677 96.6819 104.305 97.0906 104.039C97.5019 103.77 97.9818 103.635 98.5302 103.635C98.8466 103.635 99.159 103.688 99.4675 103.794C99.776 103.899 100.057 104.07 100.31 104.308C100.563 104.542 100.765 104.854 100.915 105.241C101.065 105.629 101.14 106.106 101.14 106.673V107.068H96.4578V106.261H100.191C100.191 105.919 100.123 105.613 99.9856 105.344C99.8511 105.075 99.6587 104.863 99.4082 104.707C99.1603 104.552 98.8677 104.474 98.5302 104.474C98.1584 104.474 97.8368 104.566 97.5652 104.751C97.2963 104.933 97.0893 105.17 96.9443 105.463C96.7992 105.755 96.7267 106.069 96.7267 106.404V106.942C96.7267 107.401 96.8058 107.789 96.964 108.108C97.1249 108.425 97.3477 108.666 97.6324 108.832C97.9172 108.996 98.2481 109.077 98.6251 109.077C98.8703 109.077 99.0918 109.043 99.2895 108.975C99.4899 108.903 99.6626 108.798 99.8076 108.658C99.9527 108.516 100.065 108.339 100.144 108.128L101.046 108.381C100.951 108.687 100.791 108.956 100.567 109.188C100.343 109.418 100.066 109.597 99.7364 109.726C99.4069 109.853 99.0364 109.916 98.6251 109.916ZM103.494 106.135V109.789H102.56V103.715H103.462V104.664H103.541C103.683 104.355 103.9 104.107 104.19 103.92C104.48 103.73 104.854 103.635 105.313 103.635C105.724 103.635 106.084 103.72 106.393 103.889C106.701 104.055 106.941 104.308 107.112 104.648C107.284 104.985 107.369 105.413 107.369 105.929V109.789H106.436V105.993C106.436 105.515 106.312 105.144 106.064 104.877C105.817 104.608 105.476 104.474 105.044 104.474C104.746 104.474 104.48 104.538 104.245 104.668C104.013 104.797 103.83 104.985 103.695 105.233C103.561 105.481 103.494 105.782 103.494 106.135ZM115.719 104.221H114.739C114.681 103.939 114.579 103.691 114.434 103.477C114.292 103.264 114.118 103.084 113.912 102.939C113.709 102.792 113.483 102.681 113.236 102.607C112.988 102.533 112.729 102.496 112.46 102.496C111.97 102.496 111.526 102.62 111.128 102.868C110.732 103.116 110.417 103.481 110.182 103.964C109.95 104.446 109.834 105.038 109.834 105.739C109.834 106.441 109.95 107.033 110.182 107.515C110.417 107.998 110.732 108.363 111.128 108.611C111.526 108.859 111.97 108.982 112.46 108.982C112.729 108.982 112.988 108.946 113.236 108.872C113.483 108.798 113.709 108.689 113.912 108.544C114.118 108.396 114.292 108.215 114.434 108.002C114.579 107.785 114.681 107.538 114.739 107.258H115.719C115.646 107.672 115.511 108.043 115.316 108.369C115.121 108.696 114.878 108.975 114.588 109.204C114.298 109.431 113.973 109.603 113.611 109.722C113.253 109.841 112.869 109.9 112.46 109.9C111.77 109.9 111.155 109.731 110.617 109.394C110.08 109.056 109.656 108.576 109.348 107.954C109.039 107.332 108.885 106.594 108.885 105.739C108.885 104.885 109.039 104.147 109.348 103.525C109.656 102.902 110.08 102.423 110.617 102.085C111.155 101.748 111.77 101.579 112.46 101.579C112.869 101.579 113.253 101.638 113.611 101.757C113.973 101.875 114.298 102.049 114.588 102.279C114.878 102.506 115.121 102.782 115.316 103.109C115.511 103.434 115.646 103.804 115.719 104.221ZM117.637 101.69L120.041 108.508H120.136L122.541 101.69H123.569L120.595 109.789H119.582L116.608 101.69H117.637Z" fill="#717171"/>
</g>
<path d="M202.386 88.0688V88.4168H202.734H227.792H228.14V88.0688V86.5026C228.14 85.718 227.829 84.9656 227.274 84.4108C226.719 83.856 225.967 83.5443 225.182 83.5443H205.344C204.56 83.5443 203.807 83.856 203.252 84.4108C202.697 84.9656 202.386 85.718 202.386 86.5026V88.0688ZM228.14 90.157V89.809H227.792H202.734H202.386V90.157V100.076C202.386 100.861 202.697 101.613 203.252 102.168C203.807 102.723 204.56 103.034 205.344 103.034H225.182C225.967 103.034 226.719 102.723 227.274 102.168C227.829 101.613 228.14 100.861 228.14 100.076V90.157ZM200.994 86.5026C200.994 85.3488 201.452 84.2423 202.268 83.4264C203.084 82.6106 204.19 82.1522 205.344 82.1522H225.182C226.336 82.1522 227.442 82.6106 228.258 83.4264C229.074 84.2423 229.533 85.3488 229.533 86.5026V100.076C229.533 101.23 229.074 102.336 228.258 103.152C227.442 103.968 226.336 104.426 225.182 104.426H205.344C204.19 104.426 203.084 103.968 202.268 103.152C201.452 102.336 200.994 101.23 200.994 100.076V86.5026ZM220.484 96.7697H223.616C223.801 96.7697 223.978 96.843 224.108 96.9735C224.239 97.1041 224.312 97.2811 224.312 97.4657C224.312 97.6503 224.239 97.8274 224.108 97.9579C223.978 98.0885 223.801 98.1618 223.616 98.1618H220.484C220.299 98.1618 220.122 98.0885 219.991 97.9579C219.861 97.8274 219.788 97.6503 219.788 97.4657C219.788 97.2811 219.861 97.1041 219.991 96.9735C220.122 96.843 220.299 96.7697 220.484 96.7697Z" fill="#5038ED" stroke="#5038ED" stroke-width="0.696069"/>
<g clip-path="url(#clip5_11_1234)">
<path d="M244.338 77.6148H248.034L251.937 87.1383H252.103L256.007 77.6148H259.703V91.7893H256.796V82.5634H256.678L253.01 91.7201H251.031L247.362 82.5288H247.245V91.7893H244.338V77.6148ZM266.961 91.9969C265.868 91.9969 264.927 91.7755 264.138 91.3325C263.353 90.8849 262.749 90.2528 262.324 89.4361C261.9 88.6148 261.688 87.6435 261.688 86.5223C261.688 85.4288 261.9 84.469 262.324 83.6431C262.749 82.8172 263.346 82.1735 264.117 81.7121C264.892 81.2507 265.801 81.02 266.844 81.02C267.545 81.02 268.198 81.1331 268.802 81.3591C269.411 81.5806 269.942 81.9151 270.394 82.3627C270.851 82.8103 271.206 83.3732 271.46 84.0515C271.714 84.7251 271.841 85.5141 271.841 86.4185V87.2283H262.864V85.4011H269.065C269.065 84.9766 268.973 84.6005 268.789 84.2729C268.604 83.9453 268.348 83.6893 268.02 83.5047C267.697 83.3155 267.321 83.2209 266.892 83.2209C266.445 83.2209 266.048 83.3247 265.702 83.5324C265.36 83.7354 265.093 84.0099 264.899 84.356C264.705 84.6974 264.606 85.0781 264.601 85.498V87.2352C264.601 87.7612 264.698 88.2157 264.892 88.5987C265.09 88.9816 265.37 89.2769 265.729 89.4846C266.089 89.6922 266.516 89.796 267.01 89.796C267.337 89.796 267.637 89.7499 267.91 89.6576C268.182 89.5653 268.415 89.4269 268.609 89.2423C268.802 89.0578 268.95 88.8317 269.052 88.5641L271.779 88.744C271.64 89.3992 271.356 89.9714 270.927 90.4604C270.503 90.9449 269.954 91.3233 269.28 91.5955C268.611 91.8631 267.838 91.9969 266.961 91.9969ZM273.765 91.7893V81.1584H276.623V83.0133H276.734C276.928 82.3535 277.253 81.8552 277.71 81.5183C278.167 81.1769 278.693 81.0062 279.288 81.0062C279.436 81.0062 279.595 81.0154 279.766 81.0338C279.936 81.0523 280.086 81.0777 280.215 81.11V83.7262C280.077 83.6846 279.885 83.6477 279.641 83.6154C279.396 83.5831 279.173 83.567 278.97 83.567C278.536 83.567 278.148 83.6616 277.807 83.8508C277.47 84.0353 277.202 84.2937 277.004 84.6259C276.81 84.9581 276.713 85.3411 276.713 85.7748V91.7893H273.765ZM286.048 91.9969C284.959 91.9969 284.023 91.7662 283.238 91.3048C282.458 90.8388 281.859 90.1928 281.439 89.3669C281.023 88.541 280.816 87.5905 280.816 86.5154C280.816 85.4265 281.026 84.4713 281.446 83.65C281.87 82.8241 282.472 82.1804 283.252 81.719C284.032 81.253 284.959 81.02 286.034 81.02C286.962 81.02 287.774 81.1884 288.471 81.5252C289.167 81.8621 289.719 82.335 290.125 82.9441C290.531 83.5531 290.755 84.2683 290.796 85.0896H288.014C287.935 84.559 287.728 84.1322 287.391 83.8092C287.059 83.4816 286.623 83.3178 286.083 83.3178C285.626 83.3178 285.227 83.4424 284.885 83.6916C284.549 83.9361 284.286 84.2937 284.096 84.7643C283.907 85.235 283.813 85.8048 283.813 86.4739C283.813 87.1521 283.905 87.7289 284.09 88.2042C284.279 88.6794 284.544 89.0416 284.885 89.2908C285.227 89.5399 285.626 89.6645 286.083 89.6645C286.42 89.6645 286.722 89.5953 286.989 89.4569C287.262 89.3185 287.485 89.1177 287.661 88.8547C287.841 88.5871 287.958 88.2664 288.014 87.8927H290.796C290.75 88.7048 290.528 89.42 290.132 90.0383C289.739 90.6519 289.197 91.1318 288.505 91.4779C287.813 91.8239 286.994 91.9969 286.048 91.9969ZM295.715 91.99C295.037 91.99 294.433 91.8724 293.902 91.637C293.371 91.3971 292.951 91.0441 292.642 90.5781C292.338 90.1075 292.186 89.5215 292.186 88.8201C292.186 88.2295 292.294 87.7335 292.511 87.3321C292.728 86.9307 293.023 86.6077 293.397 86.3631C293.77 86.1186 294.195 85.934 294.67 85.8094C295.15 85.6849 295.653 85.5972 296.179 85.5464C296.797 85.4818 297.296 85.4219 297.674 85.3665C298.052 85.3065 298.327 85.2188 298.498 85.1035C298.668 84.9881 298.754 84.8174 298.754 84.5913V84.5498C298.754 84.1114 298.615 83.7723 298.338 83.5324C298.066 83.2924 297.679 83.1725 297.176 83.1725C296.645 83.1725 296.223 83.2901 295.909 83.5255C295.595 83.7562 295.388 84.0469 295.286 84.3975L292.559 84.176C292.698 83.5301 292.97 82.9718 293.376 82.5011C293.782 82.0259 294.306 81.6614 294.947 81.4076C295.593 81.1492 296.341 81.02 297.19 81.02C297.78 81.02 298.345 81.0892 298.885 81.2276C299.43 81.3661 299.912 81.5806 300.332 81.8713C300.756 82.162 301.091 82.5357 301.335 82.9925C301.58 83.4447 301.702 83.9869 301.702 84.619V91.7893H298.906V90.3151H298.823C298.652 90.6473 298.424 90.9403 298.138 91.1941C297.852 91.4432 297.508 91.6393 297.106 91.7824C296.705 91.9208 296.241 91.99 295.715 91.99ZM296.56 89.9552C296.993 89.9552 297.376 89.8698 297.709 89.6991C298.041 89.5238 298.302 89.2885 298.491 88.9932C298.68 88.6979 298.774 88.3633 298.774 87.9896V86.8615C298.682 86.9214 298.555 86.9768 298.394 87.0276C298.237 87.0737 298.059 87.1175 297.861 87.1591C297.662 87.196 297.464 87.2306 297.266 87.2629C297.067 87.2906 296.887 87.3159 296.726 87.339C296.38 87.3898 296.078 87.4705 295.819 87.5813C295.561 87.692 295.36 87.8419 295.217 88.0311C295.074 88.2157 295.002 88.4464 295.002 88.7232C295.002 89.1247 295.148 89.4315 295.438 89.6438C295.734 89.8514 296.108 89.9552 296.56 89.9552ZM307.907 91.9623C307.099 91.9623 306.368 91.7547 305.713 91.3394C305.062 90.9195 304.546 90.3036 304.163 89.4915C303.784 88.6748 303.595 87.6735 303.595 86.4877C303.595 85.2696 303.791 84.2568 304.183 83.4493C304.576 82.6372 305.097 82.0305 305.748 81.6291C306.403 81.223 307.12 81.02 307.9 81.02C308.495 81.02 308.991 81.1215 309.388 81.3245C309.789 81.5229 310.112 81.7721 310.357 82.072C310.606 82.3673 310.795 82.658 310.925 82.9441H311.015V77.6148H313.956V91.7893H311.049V90.0867H310.925C310.786 90.382 310.59 90.675 310.336 90.9657C310.087 91.2518 309.762 91.4894 309.36 91.6786C308.964 91.8677 308.479 91.9623 307.907 91.9623ZM308.841 89.6161C309.317 89.6161 309.718 89.4869 310.046 89.2285C310.378 88.9655 310.632 88.5987 310.807 88.128C310.987 87.6574 311.077 87.106 311.077 86.4739C311.077 85.8417 310.989 85.2927 310.814 84.8266C310.638 84.3606 310.385 84.0007 310.052 83.7469C309.72 83.4932 309.317 83.3663 308.841 83.3663C308.357 83.3663 307.948 83.4978 307.616 83.7608C307.284 84.0238 307.033 84.3883 306.862 84.8543C306.691 85.3203 306.606 85.8602 306.606 86.4739C306.606 87.0922 306.691 87.6389 306.862 88.1142C307.037 88.5848 307.289 88.9539 307.616 89.2216C307.948 89.4846 308.357 89.6161 308.841 89.6161ZM321.183 91.9969C320.108 91.9969 319.179 91.7685 318.394 91.3117C317.614 90.8503 317.012 90.209 316.588 89.3877C316.163 88.5617 315.951 87.6043 315.951 86.5154C315.951 85.4172 316.163 84.4575 316.588 83.6362C317.012 82.8103 317.614 82.1689 318.394 81.7121C319.179 81.2507 320.108 81.02 321.183 81.02C322.258 81.02 323.186 81.2507 323.966 81.7121C324.75 82.1689 325.355 82.8103 325.779 83.6362C326.204 84.4575 326.416 85.4172 326.416 86.5154C326.416 87.6043 326.204 88.5617 325.779 89.3877C325.355 90.209 324.75 90.8503 323.966 91.3117C323.186 91.7685 322.258 91.9969 321.183 91.9969ZM321.197 89.713C321.686 89.713 322.095 89.5745 322.422 89.2977C322.75 89.0162 322.997 88.6333 323.163 88.1488C323.334 87.6643 323.419 87.1129 323.419 86.4946C323.419 85.8763 323.334 85.325 323.163 84.8405C322.997 84.356 322.75 83.973 322.422 83.6916C322.095 83.4101 321.686 83.2694 321.197 83.2694C320.704 83.2694 320.288 83.4101 319.951 83.6916C319.619 83.973 319.368 84.356 319.197 84.8405C319.031 85.325 318.948 85.8763 318.948 86.4946C318.948 87.1129 319.031 87.6643 319.197 88.1488C319.368 88.6333 319.619 89.0162 319.951 89.2977C320.288 89.5745 320.704 89.713 321.197 89.713ZM332.899 91.7893V77.6148H338.491C339.567 77.6148 340.482 77.8201 341.239 78.2308C341.996 78.6368 342.573 79.2021 342.969 79.9265C343.371 80.6463 343.572 81.4768 343.572 82.4181C343.572 83.3594 343.369 84.1899 342.963 84.9097C342.556 85.6295 341.968 86.1901 341.198 86.5915C340.432 86.993 339.504 87.1937 338.415 87.1937H334.851V84.792H337.931C338.508 84.792 338.983 84.6928 339.357 84.4944C339.735 84.2914 340.016 84.0122 340.201 83.657C340.39 83.2971 340.485 82.8841 340.485 82.4181C340.485 81.9474 340.39 81.5368 340.201 81.1861C340.016 80.8308 339.735 80.5563 339.357 80.3625C338.978 80.1641 338.498 80.0649 337.917 80.0649H335.896V91.7893H332.899ZM348.209 91.99C347.53 91.99 346.926 91.8724 346.395 91.637C345.865 91.3971 345.445 91.0441 345.136 90.5781C344.831 90.1075 344.679 89.5215 344.679 88.8201C344.679 88.2295 344.787 87.7335 345.004 87.3321C345.221 86.9307 345.516 86.6077 345.89 86.3631C346.264 86.1186 346.688 85.934 347.164 85.8094C347.644 85.6849 348.146 85.5972 348.672 85.5464C349.291 85.4818 349.789 85.4219 350.167 85.3665C350.546 85.3065 350.82 85.2188 350.991 85.1035C351.162 84.9881 351.247 84.8174 351.247 84.5913V84.5498C351.247 84.1114 351.109 83.7723 350.832 83.5324C350.56 83.2924 350.172 83.1725 349.669 83.1725C349.138 83.1725 348.716 83.2901 348.403 83.5255C348.089 83.7562 347.881 84.0469 347.78 84.3975L345.053 84.176C345.191 83.5301 345.463 82.9718 345.869 82.5011C346.275 82.0259 346.799 81.6614 347.44 81.4076C348.086 81.1492 348.834 81.02 349.683 81.02C350.274 81.02 350.839 81.0892 351.379 81.2276C351.923 81.3661 352.405 81.5806 352.825 81.8713C353.25 82.162 353.584 82.5357 353.829 82.9925C354.073 83.4447 354.196 83.9869 354.196 84.619V91.7893H351.399V90.3151H351.316C351.146 90.6473 350.917 90.9403 350.631 91.1941C350.345 91.4432 350.001 91.6393 349.6 91.7824C349.198 91.9208 348.735 91.99 348.209 91.99ZM349.053 89.9552C349.487 89.9552 349.87 89.8698 350.202 89.6991C350.534 89.5238 350.795 89.2885 350.984 88.9932C351.173 88.6979 351.268 88.3633 351.268 87.9896V86.8615C351.176 86.9214 351.049 86.9768 350.887 87.0276C350.73 87.0737 350.553 87.1175 350.354 87.1591C350.156 87.196 349.957 87.2306 349.759 87.2629C349.561 87.2906 349.381 87.3159 349.219 87.339C348.873 87.3898 348.571 87.4705 348.313 87.5813C348.054 87.692 347.853 87.8419 347.71 88.0311C347.567 88.2157 347.496 88.4464 347.496 88.7232C347.496 89.1247 347.641 89.4315 347.932 89.6438C348.227 89.8514 348.601 89.9552 349.053 89.9552ZM361.272 95.9974C360.317 95.9974 359.498 95.8659 358.815 95.6029C358.137 95.3445 357.597 94.9915 357.196 94.5439C356.794 94.0964 356.534 93.5934 356.414 93.0351L359.141 92.6683C359.224 92.8805 359.355 93.0789 359.535 93.2635C359.715 93.4481 359.953 93.5957 360.248 93.7065C360.548 93.8218 360.913 93.8795 361.342 93.8795C361.983 93.8795 362.511 93.7226 362.927 93.4089C363.346 93.0997 363.556 92.5806 363.556 91.8516V89.9068H363.432C363.303 90.2021 363.109 90.4812 362.85 90.7442C362.592 91.0072 362.26 91.2218 361.854 91.3879C361.448 91.554 360.963 91.637 360.4 91.637C359.602 91.637 358.875 91.4525 358.22 91.0833C357.57 90.7096 357.051 90.1398 356.663 89.3738C356.28 88.6033 356.088 87.6297 356.088 86.4531C356.088 85.2488 356.285 84.243 356.677 83.4355C357.069 82.628 357.59 82.0236 358.241 81.6221C358.896 81.2207 359.614 81.02 360.393 81.02C360.989 81.02 361.487 81.1215 361.888 81.3245C362.29 81.5229 362.613 81.7721 362.857 82.072C363.107 82.3673 363.298 82.658 363.432 82.9441H363.543V81.1584H366.47V91.8931C366.47 92.7975 366.249 93.5542 365.806 94.1633C365.363 94.7723 364.749 95.2291 363.965 95.5336C363.185 95.8428 362.288 95.9974 361.272 95.9974ZM361.335 89.4223C361.81 89.4223 362.211 89.3046 362.539 89.0693C362.871 88.8294 363.125 88.4879 363.3 88.045C363.48 87.5974 363.57 87.0622 363.57 86.4393C363.57 85.8164 363.483 85.2765 363.307 84.8197C363.132 84.3583 362.878 84.0007 362.546 83.7469C362.214 83.4932 361.81 83.3663 361.335 83.3663C360.85 83.3663 360.442 83.4978 360.11 83.7608C359.777 84.0192 359.526 84.3791 359.355 84.8405C359.185 85.3019 359.099 85.8348 359.099 86.4393C359.099 87.0529 359.185 87.5836 359.355 88.0311C359.531 88.4741 359.782 88.8178 360.11 89.0624C360.442 89.3023 360.85 89.4223 361.335 89.4223ZM373.62 91.9969C372.545 91.9969 371.615 91.7685 370.831 91.3117C370.051 90.8503 369.449 90.209 369.024 89.3877C368.6 88.5617 368.387 87.6043 368.387 86.5154C368.387 85.4172 368.6 84.4575 369.024 83.6362C369.449 82.8103 370.051 82.1689 370.831 81.7121C371.615 81.2507 372.545 81.02 373.62 81.02C374.695 81.02 375.622 81.2507 376.402 81.7121C377.186 82.1689 377.791 82.8103 378.215 83.6362C378.64 84.4575 378.852 85.4172 378.852 86.5154C378.852 87.6043 378.64 88.5617 378.215 89.3877C377.791 90.209 377.186 90.8503 376.402 91.3117C375.622 91.7685 374.695 91.9969 373.62 91.9969ZM373.634 89.713C374.123 89.713 374.531 89.5745 374.859 89.2977C375.186 89.0162 375.433 88.6333 375.599 88.1488C375.77 87.6643 375.855 87.1129 375.855 86.4946C375.855 85.8763 375.77 85.325 375.599 84.8405C375.433 84.356 375.186 83.973 374.859 83.6916C374.531 83.4101 374.123 83.2694 373.634 83.2694C373.14 83.2694 372.725 83.4101 372.388 83.6916C372.056 83.973 371.804 84.356 371.633 84.8405C371.467 85.325 371.384 85.8763 371.384 86.4946C371.384 87.1129 371.467 87.6643 371.633 88.1488C371.804 88.6333 372.056 89.0162 372.388 89.2977C372.725 89.5745 373.14 89.713 373.634 89.713Z" fill="#4D4D4D"/>
<path d="M244.087 109.789V101.69H246.824C247.459 101.69 247.978 101.804 248.382 102.034C248.788 102.26 249.088 102.568 249.284 102.955C249.479 103.343 249.576 103.775 249.576 104.252C249.576 104.73 249.479 105.163 249.284 105.554C249.091 105.944 248.793 106.255 248.39 106.487C247.986 106.716 247.47 106.831 246.839 106.831H244.878V105.961H246.808C247.243 105.961 247.592 105.886 247.856 105.735C248.12 105.585 248.311 105.382 248.429 105.126C248.551 104.868 248.611 104.577 248.611 104.252C248.611 103.928 248.551 103.638 248.429 103.382C248.311 103.127 248.118 102.926 247.852 102.781C247.586 102.634 247.232 102.56 246.792 102.56H245.068V109.789H244.087ZM252.817 109.932C252.432 109.932 252.083 109.859 251.769 109.714C251.455 109.567 251.206 109.354 251.022 109.077C250.837 108.798 250.745 108.46 250.745 108.065C250.745 107.717 250.813 107.435 250.951 107.219C251.088 107 251.271 106.828 251.5 106.704C251.73 106.581 251.983 106.488 252.26 106.428C252.539 106.364 252.82 106.314 253.102 106.277C253.471 106.23 253.77 106.194 254 106.171C254.232 106.144 254.401 106.101 254.506 106.04C254.614 105.979 254.668 105.874 254.668 105.724V105.692C254.668 105.302 254.561 104.999 254.348 104.782C254.137 104.566 253.817 104.458 253.387 104.458C252.941 104.458 252.592 104.556 252.339 104.751C252.086 104.946 251.908 105.154 251.805 105.376L250.919 105.059C251.077 104.69 251.288 104.403 251.552 104.197C251.818 103.989 252.108 103.844 252.422 103.762C252.738 103.678 253.049 103.635 253.355 103.635C253.55 103.635 253.774 103.659 254.028 103.707C254.283 103.751 254.53 103.845 254.767 103.987C255.007 104.13 255.206 104.345 255.364 104.632C255.522 104.919 255.602 105.304 255.602 105.787V109.789H254.668V108.967H254.621C254.557 109.099 254.452 109.24 254.304 109.39C254.157 109.54 253.96 109.668 253.715 109.773C253.47 109.879 253.171 109.932 252.817 109.932ZM252.96 109.093C253.329 109.093 253.64 109.021 253.893 108.876C254.149 108.731 254.341 108.544 254.47 108.314C254.602 108.085 254.668 107.843 254.668 107.59V106.736C254.629 106.784 254.542 106.827 254.407 106.867C254.275 106.904 254.122 106.936 253.948 106.965C253.777 106.992 253.61 107.016 253.446 107.037C253.285 107.055 253.155 107.071 253.055 107.084C252.812 107.116 252.585 107.167 252.374 107.238C252.166 107.307 251.997 107.411 251.868 107.551C251.742 107.688 251.678 107.875 251.678 108.112C251.678 108.437 251.798 108.682 252.038 108.848C252.281 109.012 252.588 109.093 252.96 109.093ZM259.757 112.194C259.306 112.194 258.919 112.136 258.594 112.02C258.27 111.907 258 111.756 257.784 111.569C257.57 111.384 257.4 111.187 257.274 110.976L258.017 110.454C258.101 110.564 258.208 110.691 258.337 110.833C258.467 110.978 258.643 111.104 258.867 111.209C259.094 111.317 259.391 111.371 259.757 111.371C260.248 111.371 260.652 111.253 260.971 111.015C261.29 110.778 261.45 110.406 261.45 109.9V108.666H261.371C261.302 108.777 261.205 108.914 261.078 109.077C260.954 109.238 260.775 109.382 260.54 109.509C260.308 109.632 259.995 109.694 259.599 109.694C259.109 109.694 258.668 109.578 258.278 109.346C257.891 109.114 257.583 108.777 257.357 108.334C257.132 107.891 257.02 107.353 257.02 106.72C257.02 106.098 257.13 105.556 257.349 105.095C257.568 104.631 257.872 104.272 258.262 104.019C258.652 103.763 259.103 103.635 259.615 103.635C260.01 103.635 260.324 103.701 260.556 103.833C260.791 103.962 260.97 104.11 261.094 104.276C261.221 104.44 261.318 104.574 261.387 104.68H261.482V103.715H262.383V109.963C262.383 110.485 262.265 110.91 262.027 111.237C261.793 111.566 261.476 111.808 261.078 111.961C260.683 112.116 260.242 112.194 259.757 112.194ZM259.726 108.856C260.1 108.856 260.416 108.77 260.675 108.599C260.933 108.427 261.13 108.181 261.264 107.859C261.399 107.538 261.466 107.153 261.466 106.704C261.466 106.267 261.4 105.881 261.268 105.546C261.136 105.211 260.941 104.948 260.683 104.759C260.424 104.569 260.105 104.474 259.726 104.474C259.33 104.474 259.001 104.574 258.737 104.774C258.476 104.975 258.279 105.244 258.148 105.581C258.018 105.919 257.954 106.293 257.954 106.704C257.954 107.126 258.02 107.499 258.152 107.824C258.286 108.145 258.484 108.398 258.745 108.583C259.008 108.765 259.335 108.856 259.726 108.856ZM265.879 109.932C265.495 109.932 265.145 109.859 264.831 109.714C264.518 109.567 264.269 109.354 264.084 109.077C263.899 108.798 263.807 108.46 263.807 108.065C263.807 107.717 263.876 107.435 264.013 107.219C264.15 107 264.333 106.828 264.562 106.704C264.792 106.581 265.045 106.488 265.322 106.428C265.601 106.364 265.882 106.314 266.164 106.277C266.533 106.23 266.833 106.194 267.062 106.171C267.294 106.144 267.463 106.101 267.568 106.04C267.676 105.979 267.73 105.874 267.73 105.724V105.692C267.73 105.302 267.624 104.999 267.41 104.782C267.199 104.566 266.879 104.458 266.449 104.458C266.003 104.458 265.654 104.556 265.401 104.751C265.148 104.946 264.97 105.154 264.867 105.376L263.981 105.059C264.139 104.69 264.35 104.403 264.614 104.197C264.88 103.989 265.17 103.844 265.484 103.762C265.8 103.678 266.112 103.635 266.417 103.635C266.612 103.635 266.837 103.659 267.09 103.707C267.345 103.751 267.592 103.845 267.829 103.987C268.069 104.13 268.268 104.345 268.426 104.632C268.585 104.919 268.664 105.304 268.664 105.787V109.789H267.73V108.967H267.683C267.62 109.099 267.514 109.24 267.367 109.39C267.219 109.54 267.022 109.668 266.777 109.773C266.532 109.879 266.233 109.932 265.879 109.932ZM266.022 109.093C266.391 109.093 266.702 109.021 266.955 108.876C267.211 108.731 267.403 108.544 267.533 108.314C267.664 108.085 267.73 107.843 267.73 107.59V106.736C267.691 106.784 267.604 106.827 267.469 106.867C267.338 106.904 267.185 106.936 267.011 106.965C266.839 106.992 266.672 107.016 266.508 107.037C266.347 107.055 266.217 107.071 266.117 107.084C265.874 107.116 265.647 107.167 265.437 107.238C265.228 107.307 265.059 107.411 264.93 107.551C264.804 107.688 264.74 107.875 264.74 108.112C264.74 108.437 264.86 108.682 265.1 108.848C265.343 109.012 265.65 109.093 266.022 109.093ZM270.367 109.789V103.715H271.269V104.664H271.348C271.475 104.339 271.679 104.088 271.961 103.908C272.243 103.726 272.582 103.635 272.978 103.635C273.378 103.635 273.712 103.726 273.978 103.908C274.247 104.088 274.457 104.339 274.607 104.664H274.67C274.826 104.35 275.059 104.101 275.37 103.916C275.681 103.729 276.055 103.635 276.49 103.635C277.033 103.635 277.477 103.805 277.822 104.146C278.168 104.483 278.341 105.009 278.341 105.724V109.789H277.407V105.724C277.407 105.275 277.285 104.955 277.039 104.763C276.794 104.57 276.505 104.474 276.173 104.474C275.746 104.474 275.415 104.603 275.181 104.861C274.946 105.117 274.829 105.442 274.829 105.834V109.789H273.879V105.629C273.879 105.283 273.767 105.005 273.543 104.794C273.319 104.581 273.03 104.474 272.677 104.474C272.434 104.474 272.208 104.538 271.997 104.668C271.789 104.797 271.62 104.976 271.491 105.206C271.364 105.432 271.301 105.695 271.301 105.993V109.789H270.367ZM282.594 109.916C282.009 109.916 281.504 109.787 281.079 109.528C280.657 109.267 280.332 108.903 280.102 108.437C279.876 107.967 279.762 107.422 279.762 106.799C279.762 106.177 279.876 105.629 280.102 105.154C280.332 104.677 280.651 104.305 281.06 104.039C281.471 103.77 281.951 103.635 282.499 103.635C282.816 103.635 283.128 103.688 283.436 103.794C283.745 103.899 284.026 104.07 284.279 104.308C284.532 104.542 284.734 104.854 284.884 105.241C285.034 105.629 285.109 106.106 285.109 106.673V107.068H280.427V106.261H284.16C284.16 105.919 284.092 105.613 283.955 105.344C283.82 105.075 283.628 104.863 283.377 104.707C283.129 104.552 282.837 104.474 282.499 104.474C282.127 104.474 281.806 104.566 281.534 104.751C281.265 104.933 281.058 105.17 280.913 105.463C280.768 105.755 280.696 106.069 280.696 106.404V106.942C280.696 107.401 280.775 107.789 280.933 108.108C281.094 108.425 281.317 108.666 281.601 108.832C281.886 108.996 282.217 109.077 282.594 109.077C282.839 109.077 283.061 109.043 283.258 108.975C283.459 108.903 283.632 108.798 283.777 108.658C283.922 108.516 284.034 108.339 284.113 108.128L285.014 108.381C284.92 108.687 284.76 108.956 284.536 109.188C284.312 109.418 284.035 109.597 283.705 109.726C283.376 109.853 283.005 109.916 282.594 109.916ZM287.463 106.135V109.789H286.529V103.715H287.431V104.664H287.51C287.652 104.355 287.869 104.107 288.159 103.92C288.449 103.73 288.823 103.635 289.282 103.635C289.693 103.635 290.053 103.72 290.362 103.889C290.67 104.055 290.91 104.308 291.081 104.648C291.253 104.985 291.338 105.413 291.338 105.929V109.789H290.405V105.993C290.405 105.515 290.281 105.144 290.033 104.877C289.785 104.608 289.445 104.474 289.013 104.474C288.715 104.474 288.449 104.538 288.214 104.668C287.982 104.797 287.799 104.985 287.664 105.233C287.53 105.481 287.463 105.782 287.463 106.135ZM295.686 103.715V104.506H292.538V103.715H295.686ZM293.455 102.259H294.389V108.049C294.389 108.313 294.427 108.511 294.503 108.642C294.582 108.772 294.683 108.859 294.804 108.903C294.928 108.946 295.058 108.967 295.195 108.967C295.298 108.967 295.383 108.961 295.449 108.951C295.515 108.938 295.567 108.927 295.607 108.919L295.797 109.758C295.733 109.781 295.645 109.805 295.532 109.829C295.418 109.855 295.275 109.868 295.101 109.868C294.837 109.868 294.579 109.812 294.325 109.698C294.075 109.585 293.867 109.412 293.701 109.18C293.537 108.948 293.455 108.656 293.455 108.302V102.259ZM299.493 109.916C298.944 109.916 298.463 109.785 298.049 109.524C297.638 109.263 297.316 108.898 297.084 108.429C296.855 107.959 296.74 107.411 296.74 106.784C296.74 106.151 296.855 105.598 297.084 105.126C297.316 104.654 297.638 104.288 298.049 104.027C298.463 103.766 298.944 103.635 299.493 103.635C300.041 103.635 300.521 103.766 300.932 104.027C301.346 104.288 301.668 104.654 301.897 105.126C302.129 105.598 302.245 106.151 302.245 106.784C302.245 107.411 302.129 107.959 301.897 108.429C301.668 108.898 301.346 109.263 300.932 109.524C300.521 109.785 300.041 109.916 299.493 109.916ZM299.493 109.077C299.909 109.077 300.252 108.971 300.521 108.757C300.79 108.544 300.989 108.263 301.118 107.915C301.247 107.567 301.312 107.19 301.312 106.784C301.312 106.378 301.247 105.999 301.118 105.648C300.989 105.298 300.79 105.014 300.521 104.798C300.252 104.582 299.909 104.474 299.493 104.474C299.076 104.474 298.733 104.582 298.464 104.798C298.195 105.014 297.996 105.298 297.867 105.648C297.738 105.999 297.673 106.378 297.673 106.784C297.673 107.19 297.738 107.567 297.867 107.915C297.996 108.263 298.195 108.544 298.464 108.757C298.733 108.971 299.076 109.077 299.493 109.077ZM307.973 105.075L307.134 105.312C307.082 105.173 307.004 105.037 306.901 104.905C306.801 104.77 306.664 104.66 306.49 104.573C306.316 104.486 306.093 104.442 305.821 104.442C305.45 104.442 305.14 104.528 304.892 104.699C304.647 104.868 304.524 105.083 304.524 105.344C304.524 105.576 304.609 105.759 304.777 105.894C304.946 106.028 305.21 106.14 305.568 106.23L306.47 106.451C307.013 106.583 307.418 106.785 307.684 107.056C307.95 107.325 308.084 107.672 308.084 108.097C308.084 108.445 307.983 108.756 307.783 109.03C307.585 109.304 307.308 109.52 306.953 109.679C306.597 109.837 306.183 109.916 305.711 109.916C305.091 109.916 304.578 109.781 304.172 109.512C303.766 109.244 303.509 108.851 303.401 108.334L304.287 108.112C304.371 108.439 304.531 108.685 304.765 108.848C305.003 109.012 305.313 109.093 305.695 109.093C306.13 109.093 306.475 109.001 306.731 108.816C306.989 108.629 307.119 108.405 307.119 108.144C307.119 107.933 307.045 107.756 306.897 107.614C306.75 107.469 306.523 107.361 306.217 107.29L305.204 107.052C304.648 106.921 304.239 106.716 303.978 106.439C303.72 106.16 303.591 105.811 303.591 105.391C303.591 105.049 303.687 104.745 303.88 104.482C304.075 104.218 304.34 104.011 304.674 103.861C305.012 103.711 305.394 103.635 305.821 103.635C306.423 103.635 306.895 103.767 307.237 104.031C307.583 104.295 307.828 104.643 307.973 105.075Z" fill="#717171"/>
</g>
</g>
</g>
<defs>
<clipPath id="clip0_11_1234">
<rect width="390.928" height="113.843" fill="white" transform="translate(0.177734 0.946533)"/>
</clipPath>
<clipPath id="clip1_11_1234">
<rect width="177.498" height="43" fill="white" transform="translate(106.893 0.946533)"/>
</clipPath>
<clipPath id="clip2_11_1234">
<rect width="132.949" height="43" fill="white" transform="translate(151.442 0.946533)"/>
</clipPath>
<clipPath id="clip3_11_1234">
<rect width="390.928" height="43" fill="white" transform="translate(0.177734 71.7893)"/>
</clipPath>
<clipPath id="clip4_11_1234">
<rect width="132.949" height="43" fill="white" transform="translate(44.7262 71.7893)"/>
</clipPath>
<clipPath id="clip5_11_1234">
<rect width="148" height="43" fill="white" transform="translate(243.106 71.7893)"/>
</clipPath>
</defs>
</svg>
