<svg width="308" height="302" viewBox="0 0 308 302" fill="none" xmlns="http://www.w3.org/2000/svg">
<path d="M153.903 265.199C219.724 265.199 273.082 262.084 273.082 258.241C273.082 254.398 219.724 251.283 153.903 251.283C88.0818 251.283 34.7234 254.398 34.7234 258.241C34.7234 262.084 88.0818 265.199 153.903 265.199Z" fill="#F5F5F5"/>
<path d="M214.909 102.845L208.812 100.386C208.812 100.386 200.766 115.058 198.46 115.802C195.326 116.81 188.835 119.613 184.987 120.105C184.464 120.72 183.61 122.631 183.69 123.326C188.859 125.053 200.218 122.76 202.653 120.953C208.191 116.853 214.909 102.845 214.909 102.845Z" fill="#E58A7B"/>
<path d="M216.784 99.5072C217.921 103.705 211.762 112.151 211.762 112.151L203.691 107.627C203.691 107.627 205.203 104.154 207.048 100.62C210.004 94.9094 215.487 94.7188 216.784 99.5072Z" fill="#5038ED"/>
<path opacity="0.2" d="M216.784 99.5072C217.921 103.705 211.762 112.151 211.762 112.151L203.691 107.627C203.691 107.627 205.203 104.154 207.048 100.62C210.004 94.9094 215.487 94.7188 216.784 99.5072Z" fill="black"/>
<path opacity="0.2" d="M206.894 109.434L210.072 111.217L210.631 101.462C208.781 102.882 207.478 107.16 206.894 109.434Z" fill="black"/>
<path d="M211.473 96.3477C211.473 96.3477 205.191 110.325 208.855 136.351H233.608C234.001 132.552 232.698 114.013 237.412 96.1142C234.697 95.5835 231.95 95.2324 229.188 95.0631C225.685 94.8601 222.174 94.8601 218.671 95.0631C216.243 95.3096 213.837 95.7391 211.473 96.3477Z" fill="#5038ED"/>
<path opacity="0.2" d="M211.473 96.3477C211.473 96.3477 205.191 110.325 208.855 136.351H233.608C234.001 132.552 232.698 114.013 237.412 96.1142C234.697 95.5835 231.95 95.2324 229.188 95.0631C225.685 94.8601 222.174 94.8601 218.671 95.0631C216.243 95.3096 213.837 95.7391 211.473 96.3477Z" fill="black"/>
<g style="mix-blend-mode:multiply">
<path d="M205.732 258.794C205.695 259.458 215.081 259.993 226.693 259.993C238.304 259.993 247.757 259.458 247.794 258.794C247.831 258.13 238.451 257.602 226.834 257.602C215.217 257.602 205.775 258.136 205.732 258.794Z" fill="#E8ECF1"/>
</g>
<path d="M222.255 241.351L217.865 243.051L221.646 252.82L226.037 251.121L222.255 241.351Z" fill="#E58A7B"/>
<path d="M241.832 254.067H237.203L235.507 243.353H240.135L241.832 254.067Z" fill="#E58A7B"/>
<path d="M236.884 253.532H242.084C242.174 253.533 242.261 253.565 242.33 253.624C242.399 253.682 242.444 253.763 242.459 253.852L243.129 257.964C243.143 258.067 243.135 258.172 243.105 258.272C243.075 258.372 243.023 258.464 242.955 258.542C242.886 258.62 242.801 258.683 242.706 258.725C242.611 258.767 242.508 258.789 242.404 258.788C240.59 258.757 239.717 258.647 237.431 258.647C236.023 258.647 233.128 258.794 231.173 258.794C229.219 258.794 229.09 256.876 229.895 256.698C233.509 255.917 234.911 254.854 236.115 253.821C236.328 253.635 236.601 253.532 236.884 253.532Z" fill="#263238"/>
<path d="M221.517 251.947L226.434 250.508C226.522 250.484 226.616 250.49 226.7 250.525C226.783 250.561 226.852 250.625 226.895 250.705L228.739 254.393C228.782 254.487 228.804 254.588 228.804 254.691C228.803 254.794 228.78 254.896 228.736 254.989C228.692 255.082 228.628 255.164 228.549 255.23C228.47 255.296 228.378 255.344 228.278 255.37C226.49 255.862 225.291 256.163 223.054 256.815C221.511 257.264 219.937 257.995 218.413 258.481C217.356 258.819 214.872 258.831 213.588 258.831C211.688 258.831 211.264 256.827 212.082 256.735C214.141 256.508 214.417 256.612 215.555 256.04C217.415 255.227 219.102 254.062 220.521 252.61C220.789 252.305 221.132 252.076 221.517 251.947Z" fill="#263238"/>
<path d="M185.761 120.08L180.672 117.947L178.576 123.59C180.662 123.908 182.784 123.908 184.87 123.59L185.761 120.08Z" fill="#E58A7B"/>
<path d="M176.885 117.8L176.75 121.549L178.576 123.578L180.672 117.935L176.885 117.8Z" fill="#E58A7B"/>
<path d="M222.857 242.181L218.453 243.881L220.404 248.933L224.808 247.233L222.857 242.181Z" fill="#CF6F64"/>
<path d="M240.135 243.353H235.507L236.386 248.879H241.014L240.135 243.353Z" fill="#CF6F64"/>
<path opacity="0.2" d="M208.068 129.313C208.16 130.425 208.265 131.562 208.4 132.73L226.803 126.756C229.677 125.904 232.175 124.098 233.884 121.635C233.958 119.994 234.05 118.267 234.192 116.466C234.253 115.593 234.327 114.696 234.407 113.786C234.487 112.876 234.597 111.868 234.714 110.897L208.068 129.313Z" fill="black"/>
<path d="M214.079 109.151L213.465 109.078C213.827 106.004 216.12 103.582 218.536 103.644V104.259C216.421 104.216 214.405 106.398 214.079 109.151Z" fill="white"/>
<path d="M217.356 114.825H217.251V114.21C219.366 114.29 221.351 112.083 221.677 109.336L222.291 109.41C221.966 112.415 219.747 114.825 217.356 114.825Z" fill="white"/>
<path d="M228.844 83.2183C227.977 86.6051 226.957 92.8072 229.188 95.0631C229.188 95.0631 227.627 98.4991 221.339 98.4991C215.591 98.4991 218.671 95.0631 218.671 95.0631C222.494 94.1656 222.562 91.375 222.058 88.7319L228.844 83.2183Z" fill="#E58A7B"/>
<path d="M226.078 85.468L222.064 88.7319C222.188 89.3393 222.26 89.9563 222.279 90.576C223.453 91.7438 225.807 88.7873 226.047 87.2752C226.169 86.6799 226.179 86.0671 226.078 85.468Z" fill="#CF6F64"/>
<path d="M215.161 83.1752C215.441 83.6593 215.817 84.0806 216.266 84.4127C216.716 84.7448 217.229 84.9806 217.774 85.1053C219.249 85.4311 219.986 84.0727 219.581 82.7081C219.218 81.4787 218.007 79.8253 216.507 80.108C216.186 80.1742 215.885 80.3164 215.63 80.5227C215.375 80.729 215.173 80.9934 215.042 81.2937C214.91 81.5941 214.852 81.9217 214.873 82.249C214.894 82.5764 214.992 82.894 215.161 83.1752Z" fill="#CF6F64"/>
<path d="M217.601 72.3385C215.303 73.3896 214.491 82.5237 217.38 83.876C220.269 85.2283 221.953 70.3408 217.601 72.3385Z" fill="#263238"/>
<path d="M229.545 78.1226C228.991 82.7081 228.93 85.4065 226.471 87.7546C225.709 88.5338 224.747 89.0873 223.69 89.3539C222.634 89.6206 221.524 89.5901 220.483 89.2658C219.443 88.9415 218.513 88.3359 217.795 87.516C217.077 86.6962 216.599 85.6938 216.415 84.6197C215.671 80.5014 216.698 73.697 221.296 71.8714C222.262 71.4453 223.324 71.2853 224.373 71.4081C225.421 71.5308 226.418 71.9319 227.26 72.5696C228.101 73.2073 228.757 74.0584 229.159 75.0348C229.56 76.0113 229.694 77.0773 229.545 78.1226Z" fill="#E58A7B"/>
<path d="M221.99 74.7112C225.396 73.8445 227.897 73.2544 227 76.088C225.814 79.8744 224.387 83.5379 226.299 83.7039C227.467 83.8084 232.63 81.6201 231.973 79.4011C231.401 77.4711 233.817 76.9424 234.247 75.9651C235.839 72.4246 231.284 72.8917 232.096 70.7404C232.907 68.589 228.407 65.1222 225.949 66.8495C221.947 69.6401 215.081 69.5971 218.689 65.0055C221.277 61.7292 216.661 62.3992 216.661 62.3992C216.661 62.3992 219.452 64.0527 214.756 66.6098C209.789 69.3389 214.344 76.672 221.99 74.7112Z" fill="#263238"/>
<path d="M231.352 83.1752C230.68 84.148 229.669 84.8359 228.518 85.1053C227 85.4311 226.416 84.0727 226.988 82.7081C227.498 81.4787 228.899 79.8253 230.35 80.108C231.8 80.3908 232.132 81.9705 231.352 83.1752Z" fill="#E58A7B"/>
<path d="M208.855 136.351C208.855 136.351 204.699 173.539 204.374 187.652C204.042 202.33 218.456 248.13 218.456 248.13L225.832 245.056C225.832 245.056 217.227 203.209 218.456 188.795C219.759 173.078 225.144 136.375 225.144 136.375L208.855 136.351Z" fill="#5038ED"/>
<path opacity="0.2" d="M219.181 146.561C215.868 153.433 218.099 167.023 219.894 175.075C220.577 169.39 221.388 163.218 222.156 157.508C222.082 148.73 221.4 141.95 219.181 146.561Z" fill="black"/>
<path d="M225.506 242.622C225.543 242.622 226.379 244.97 226.379 244.97L217.872 248.547L216.532 246.052L225.506 242.622Z" fill="#5038ED"/>
<path d="M217.638 136.351C217.638 136.351 220.816 171.719 222.918 184.965C225.23 199.478 234.29 247.81 234.29 247.81H242.766C242.766 247.81 237.689 200.652 236.73 186.281C235.685 170.693 233.608 136.351 233.608 136.351H217.638Z" fill="#5038ED"/>
<path d="M242.895 245.603C242.932 245.603 243.178 247.97 243.178 247.97H233.86L233.196 245.253L242.895 245.603Z" fill="#5038ED"/>
<path opacity="0.2" d="M239.65 242.8C239.631 242.8 239.612 242.794 239.597 242.781C239.583 242.769 239.573 242.752 239.57 242.733C239.521 242.302 234.941 199.705 234.081 186.797C233.147 172.795 231.266 141.735 231.247 141.422C231.246 141.412 231.248 141.401 231.251 141.392C231.254 141.382 231.26 141.373 231.267 141.366C231.274 141.358 231.282 141.352 231.291 141.348C231.301 141.344 231.311 141.342 231.321 141.342C231.341 141.342 231.361 141.349 231.375 141.363C231.39 141.377 231.399 141.396 231.401 141.416C231.401 141.729 233.3 172.764 234.235 186.791C235.095 199.699 239.674 242.265 239.717 242.726C239.719 242.737 239.719 242.747 239.716 242.757C239.714 242.767 239.709 242.776 239.703 242.785C239.696 242.793 239.688 242.799 239.679 242.804C239.67 242.809 239.66 242.812 239.65 242.813V242.8Z" fill="black"/>
<path d="M222.513 79.4012C222.513 79.7761 222.279 80.0773 222.033 80.0773C221.787 80.0773 221.609 79.7761 221.634 79.4012C221.658 79.0262 221.867 78.725 222.113 78.725C222.359 78.725 222.537 79.0324 222.513 79.4012Z" fill="#263238"/>
<path d="M218.296 79.4012C218.296 79.7761 218.056 80.0773 217.817 80.0773C217.577 80.0773 217.392 79.7761 217.411 79.4012C217.429 79.0262 217.651 78.725 217.897 78.725C218.142 78.725 218.321 79.0324 218.296 79.4012Z" fill="#263238"/>
<path d="M219.624 79.5917C219.111 80.7366 218.449 81.8092 217.657 82.7818C218.271 83.3965 219.421 83.1138 219.421 83.1138L219.624 79.5917Z" fill="#DF5753"/>
<path d="M219.734 84.6812C219.72 84.6812 219.706 84.6784 219.693 84.6727C219.68 84.6671 219.668 84.6588 219.658 84.6485C219.648 84.6381 219.641 84.6258 219.636 84.6125C219.631 84.5991 219.629 84.5848 219.63 84.5706C219.631 84.5407 219.644 84.5125 219.666 84.4919C219.688 84.4713 219.717 84.4599 219.747 84.4599C220.217 84.4632 220.682 84.3611 221.107 84.1611C221.533 83.9611 221.908 83.6684 222.205 83.3043C222.227 83.2858 222.254 83.2755 222.282 83.2755C222.31 83.2755 222.338 83.2858 222.359 83.3043C222.379 83.325 222.39 83.3525 222.39 83.3812C222.39 83.4098 222.379 83.4374 222.359 83.458C222.041 83.8449 221.64 84.1556 221.185 84.3673C220.731 84.5789 220.235 84.6862 219.734 84.6812Z" fill="#263238"/>
<path d="M223.263 78.2702C223.233 78.2853 223.2 78.2932 223.167 78.2932C223.134 78.2932 223.102 78.2853 223.072 78.2702C222.842 78.1215 222.58 78.0291 222.308 78.0002C222.036 77.9714 221.761 78.007 221.505 78.1042C221.48 78.1167 221.453 78.124 221.425 78.1258C221.397 78.1276 221.369 78.1238 221.343 78.1147C221.316 78.1055 221.292 78.0912 221.271 78.0725C221.251 78.0538 221.234 78.0311 221.222 78.0059C221.199 77.9512 221.199 77.8897 221.22 77.8346C221.242 77.7795 221.285 77.7351 221.339 77.7108C221.66 77.5796 222.008 77.5278 222.354 77.5599C222.7 77.592 223.032 77.707 223.324 77.8952C223.348 77.9112 223.368 77.9318 223.383 77.9557C223.399 77.9795 223.41 78.0062 223.415 78.0343C223.42 78.0623 223.419 78.091 223.413 78.1189C223.407 78.1467 223.396 78.1731 223.379 78.1964C223.348 78.2317 223.308 78.2573 223.263 78.2702Z" fill="#263238"/>
<path d="M216.667 77.0408C216.634 77.0328 216.605 77.0158 216.581 76.9916C216.561 76.9716 216.544 76.9477 216.533 76.9213C216.522 76.8949 216.517 76.8666 216.517 76.8379C216.517 76.8093 216.522 76.781 216.533 76.7546C216.544 76.7282 216.561 76.7043 216.581 76.6843C216.817 76.42 217.11 76.2138 217.438 76.0816C217.767 75.9494 218.121 75.8948 218.474 75.9221C218.503 75.9264 218.53 75.9366 218.554 75.9518C218.578 75.9671 218.599 75.9871 218.615 76.0108C218.631 76.0344 218.642 76.0611 218.648 76.0892C218.653 76.1173 218.653 76.1462 218.646 76.1741C218.633 76.231 218.6 76.2811 218.552 76.3151C218.505 76.3491 218.446 76.3645 218.388 76.3585C218.109 76.3409 217.829 76.3871 217.571 76.4936C217.312 76.6001 217.081 76.7641 216.895 76.9732C216.867 77.0043 216.831 77.027 216.79 77.039C216.75 77.0509 216.708 77.0515 216.667 77.0408Z" fill="#263238"/>
<path d="M239.791 102.163L233.399 100.46C233.399 100.46 227.129 115.894 224.91 116.896C221.898 118.273 214.27 123.043 211.024 125.299C210.846 126.067 210.988 128.102 211.393 128.661C216.925 127.653 227.516 123.578 229.729 121.506C234.776 116.78 239.791 102.163 239.791 102.163Z" fill="#E58A7B"/>
<path d="M235.329 254.344C235.017 254.369 234.706 254.284 234.45 254.104C234.371 254.033 234.311 253.942 234.278 253.84C234.245 253.739 234.238 253.631 234.259 253.526C234.263 253.461 234.285 253.398 234.321 253.344C234.358 253.29 234.409 253.247 234.468 253.219C234.985 252.955 236.429 253.871 236.595 253.975C236.613 253.986 236.627 254.003 236.635 254.023C236.643 254.043 236.644 254.065 236.638 254.086C236.633 254.107 236.622 254.127 236.607 254.143C236.592 254.159 236.573 254.171 236.552 254.178C236.151 254.276 235.741 254.332 235.329 254.344ZM234.714 253.385C234.667 253.375 234.619 253.375 234.573 253.385C234.549 253.397 234.53 253.415 234.516 253.438C234.503 253.461 234.497 253.488 234.499 253.514C234.483 253.586 234.485 253.66 234.507 253.73C234.528 253.8 234.568 253.864 234.622 253.914C234.862 254.129 235.464 254.153 236.257 254C235.785 253.689 235.253 253.479 234.696 253.385H234.714Z" fill="#5038ED"/>
<path d="M236.521 254.178C236.505 254.183 236.488 254.183 236.472 254.178C236.011 253.92 235.144 252.906 235.273 252.389C235.293 252.307 235.339 252.234 235.405 252.182C235.47 252.13 235.552 252.101 235.636 252.1C235.719 252.089 235.802 252.096 235.882 252.121C235.962 252.145 236.035 252.186 236.097 252.242C236.607 252.678 236.638 254.018 236.638 254.086C236.641 254.106 236.637 254.127 236.627 254.144C236.617 254.162 236.601 254.176 236.583 254.184C236.562 254.188 236.541 254.186 236.521 254.178ZM235.698 252.303H235.654C235.513 252.303 235.495 252.383 235.489 252.414C235.415 252.715 235.962 253.483 236.417 253.846C236.415 253.327 236.254 252.821 235.956 252.395C235.884 252.333 235.792 252.3 235.698 252.303Z" fill="#5038ED"/>
<path d="M219.009 253.576C218.633 253.707 218.223 253.707 217.847 253.576C217.762 253.529 217.69 253.462 217.637 253.381C217.584 253.299 217.553 253.205 217.546 253.108C217.538 253.048 217.546 252.986 217.569 252.929C217.591 252.872 217.628 252.822 217.675 252.783C218.167 252.34 220.177 252.783 220.404 252.869C220.426 252.874 220.445 252.887 220.459 252.905C220.472 252.923 220.479 252.945 220.478 252.967C220.479 252.99 220.473 253.013 220.461 253.033C220.449 253.052 220.431 253.068 220.411 253.078C219.958 253.282 219.489 253.449 219.009 253.576ZM218.007 252.844C217.937 252.858 217.871 252.89 217.817 252.936C217.797 252.951 217.782 252.971 217.773 252.994C217.765 253.017 217.763 253.041 217.767 253.065C217.771 253.13 217.792 253.192 217.826 253.247C217.86 253.302 217.908 253.347 217.964 253.379C218.29 253.551 219.046 253.416 220.023 253.004C219.365 252.838 218.683 252.784 218.007 252.844Z" fill="#5038ED"/>
<path d="M220.392 253.078H220.343C219.728 252.967 218.499 252.26 218.462 251.731C218.462 251.609 218.517 251.436 218.812 251.338C218.912 251.303 219.018 251.288 219.123 251.294C219.229 251.3 219.332 251.328 219.427 251.375C220.091 251.701 220.441 252.881 220.46 252.936C220.464 252.955 220.463 252.974 220.458 252.993C220.453 253.011 220.443 253.027 220.429 253.041C220.42 253.056 220.407 253.068 220.392 253.078ZM218.935 251.522H218.874C218.683 251.59 218.683 251.67 218.683 251.695C218.683 252.014 219.575 252.598 220.195 252.795C220.052 252.301 219.75 251.869 219.335 251.566C219.211 251.503 219.069 251.487 218.935 251.522Z" fill="#5038ED"/>
<path d="M211.547 124.936L205.136 127.887L204.392 129.731L206.759 131.323C206.759 131.323 211.184 130.843 212.444 127.997L211.547 124.936Z" fill="#E58A7B"/>
<path d="M211.817 128.766C211.674 127.534 211.267 126.347 210.625 125.287L211.639 124.524C212.402 125.747 212.889 127.121 213.065 128.551L211.817 128.766Z" fill="#263238"/>
<path d="M212.912 125.809C213.047 126.022 213.114 126.272 213.102 126.524C213.091 126.777 213.002 127.019 212.848 127.22C212.693 127.42 212.481 127.567 212.24 127.642C211.999 127.718 211.74 127.717 211.5 127.64C211.259 127.563 211.048 127.414 210.895 127.213C210.742 127.011 210.655 126.768 210.646 126.516C210.636 126.263 210.704 126.014 210.841 125.802C210.979 125.59 211.178 125.425 211.412 125.33C211.674 125.196 211.979 125.171 212.26 125.261C212.541 125.351 212.775 125.548 212.912 125.809Z" fill="#263238"/>
<path d="M200.802 130.272L201.657 131.132L207.41 128.674L205.136 127.887L200.802 130.272Z" fill="#E58A7B"/>
<path opacity="0.2" d="M225.506 242.622C225.543 242.622 226.379 244.97 226.379 244.97L217.872 248.547L216.532 246.052L225.506 242.622Z" fill="black"/>
<path opacity="0.2" d="M242.895 245.603C242.932 245.603 243.178 247.97 243.178 247.97H233.86L233.196 245.253L242.895 245.603Z" fill="black"/>
<path d="M241.457 100.392C243.147 105.844 236.54 113.3 236.54 113.3L227.412 109.576C228.494 106.424 229.741 103.332 231.149 100.312C233.952 94.2702 239.748 94.891 241.457 100.392Z" fill="#5038ED"/>
<path opacity="0.2" d="M241.457 100.392C243.147 105.844 236.54 113.3 236.54 113.3L227.412 109.576C228.494 106.424 229.741 103.332 231.149 100.312C233.952 94.2702 239.748 94.891 241.457 100.392Z" fill="black"/>
<path d="M150.756 45.7661H146.828V46.3992H150.756V45.7661Z" fill="#5038ED"/>
<path d="M201.6 70.8242L201.125 81.3737L201.758 81.4022L202.233 70.8527L201.6 70.8242Z" fill="#5038ED"/>
<path d="M200.378 48.6059H127.847L121.098 199.644H193.629L200.378 48.6059Z" fill="#5038ED"/>
<path opacity="0.56" d="M198.215 50.6835H125.683L118.934 201.721H191.466L198.215 50.6835Z" fill="#FAFAFA"/>
<path opacity="0.07" d="M196.051 52.7549H123.519L116.764 203.793H189.296L196.051 52.7549Z" fill="#5038ED"/>
<path d="M187.796 118.63H125.886L125.37 130.186H187.28L187.796 118.63Z" fill="white"/>
<path d="M159.933 110.196H126.261L126.033 115.366H159.705L159.933 110.196Z" fill="#5038ED"/>
<path d="M186.401 149.818H124.491L123.974 161.374H185.884L186.401 149.818Z" fill="white"/>
<path opacity="0.47" d="M175.048 176.981H133.416L132.795 190.829H174.427L175.048 176.981Z" fill="#5038ED"/>
<path d="M172.263 192.981H130.631C130.613 192.985 130.594 192.985 130.576 192.981C130.57 192.963 130.57 192.943 130.576 192.925L131.191 179.071C131.19 179.061 131.192 179.052 131.196 179.043C131.2 179.035 131.206 179.027 131.212 179.021C131.219 179.014 131.228 179.009 131.237 179.006C131.245 179.003 131.255 179.002 131.264 179.003H172.896C172.904 178.999 172.912 178.997 172.921 178.997C172.929 178.997 172.938 178.999 172.945 179.003C172.95 179.011 172.952 179.019 172.952 179.028C172.952 179.036 172.95 179.045 172.945 179.052L172.343 192.938C172.336 192.952 172.324 192.964 172.31 192.972C172.295 192.979 172.279 192.983 172.263 192.981ZM130.705 192.833H172.189L172.804 179.126H131.32L130.705 192.833Z" fill="white"/>
<path d="M152.661 141.385H124.866L124.638 146.561H152.428L152.661 141.385Z" fill="#5038ED"/>
<path d="M174.255 81.3004C174.096 84.6636 172.9 87.8951 170.831 90.5513C169.299 92.5577 167.329 94.1865 165.07 95.3128C162.811 96.439 160.324 97.0328 157.8 97.0484C155.76 97.064 153.739 96.6618 151.86 95.8666C149.982 95.0714 148.286 93.9 146.878 92.4247C145.469 90.9494 144.378 89.2013 143.67 87.2881C142.963 85.375 142.655 83.3372 142.765 81.3004C142.981 77.0739 144.804 73.0897 147.86 70.1624C150.916 67.2352 154.976 65.5861 159.207 65.5525C161.249 65.5334 163.272 65.9332 165.153 66.727C167.033 67.5208 168.731 68.6919 170.142 70.1677C171.552 71.6436 172.644 73.393 173.352 75.3078C174.059 77.2226 174.367 79.2622 174.255 81.3004Z" fill="white"/>
<path d="M175.736 68.8471C175.696 69.7414 175.378 70.6008 174.826 71.3058C174.418 71.8387 173.894 72.2714 173.293 72.5707C172.692 72.87 172.031 73.0282 171.36 73.0331C170.709 73.037 170.068 72.8817 169.491 72.5806C168.915 72.2795 168.421 71.8418 168.053 71.3058C167.565 70.5815 167.323 69.7194 167.364 68.8471C167.424 67.725 167.909 66.6678 168.721 65.8911C169.533 65.1144 170.611 64.6767 171.735 64.6673C172.277 64.6624 172.814 64.7685 173.313 64.9791C173.813 65.1897 174.264 65.5004 174.639 65.892C175.014 66.2836 175.305 66.7478 175.493 67.2561C175.682 67.7643 175.765 68.3058 175.736 68.8471Z" fill="#5038ED"/>
<path d="M132.555 124.408C132.526 124.903 132.309 125.369 131.95 125.711C131.591 126.053 131.115 126.246 130.619 126.252C130.379 126.255 130.142 126.208 129.921 126.116C129.7 126.023 129.5 125.886 129.334 125.713C129.168 125.54 129.04 125.335 128.956 125.111C128.873 124.886 128.836 124.647 128.849 124.408C128.875 123.911 129.091 123.444 129.451 123.101C129.81 122.758 130.288 122.566 130.785 122.564C131.024 122.562 131.261 122.609 131.482 122.701C131.702 122.794 131.902 122.931 132.067 123.104C132.233 123.277 132.362 123.481 132.446 123.706C132.53 123.93 132.567 124.169 132.555 124.408Z" fill="#263238"/>
<path d="M140.841 124.408C140.813 124.903 140.597 125.37 140.237 125.712C139.878 126.055 139.401 126.248 138.905 126.252C138.666 126.254 138.429 126.207 138.208 126.114C137.988 126.021 137.789 125.884 137.624 125.711C137.459 125.538 137.331 125.333 137.248 125.109C137.164 124.885 137.128 124.646 137.141 124.408C137.167 123.912 137.382 123.446 137.74 123.103C138.099 122.761 138.575 122.568 139.071 122.564C139.31 122.561 139.548 122.607 139.769 122.7C139.99 122.792 140.189 122.929 140.355 123.102C140.521 123.275 140.65 123.48 140.733 123.705C140.817 123.929 140.854 124.168 140.841 124.408Z" fill="#263238"/>
<path d="M149.133 124.408C149.105 124.903 148.889 125.37 148.529 125.712C148.17 126.055 147.693 126.248 147.197 126.252C146.957 126.254 146.72 126.207 146.5 126.114C146.279 126.021 146.08 125.884 145.914 125.711C145.748 125.539 145.62 125.334 145.536 125.11C145.452 124.886 145.415 124.647 145.426 124.408C145.455 123.912 145.67 123.445 146.03 123.103C146.39 122.76 146.866 122.567 147.363 122.564C147.602 122.561 147.84 122.607 148.061 122.7C148.282 122.792 148.481 122.929 148.647 123.102C148.813 123.275 148.942 123.48 149.025 123.705C149.109 123.929 149.146 124.168 149.133 124.408Z" fill="#263238"/>
<path d="M131.16 155.596C131.13 156.092 130.914 156.557 130.555 156.899C130.195 157.242 129.72 157.435 129.224 157.44C128.984 157.442 128.747 157.395 128.526 157.302C128.306 157.209 128.107 157.072 127.941 156.9C127.775 156.727 127.646 156.522 127.563 156.298C127.479 156.074 127.442 155.835 127.453 155.596C127.481 155.1 127.697 154.634 128.057 154.291C128.416 153.949 128.893 153.756 129.39 153.752C129.629 153.75 129.866 153.797 130.087 153.89C130.307 153.983 130.506 154.12 130.672 154.293C130.838 154.465 130.967 154.67 131.05 154.894C131.134 155.118 131.171 155.357 131.16 155.596Z" fill="#263238"/>
<path d="M139.446 155.596C139.418 156.091 139.203 156.557 138.844 156.899C138.486 157.241 138.011 157.435 137.516 157.44C137.276 157.443 137.038 157.397 136.817 157.304C136.596 157.212 136.397 157.075 136.231 156.902C136.065 156.729 135.936 156.524 135.853 156.299C135.769 156.075 135.733 155.835 135.745 155.596C135.773 155.1 135.989 154.634 136.349 154.291C136.708 153.949 137.185 153.756 137.681 153.752C137.921 153.75 138.157 153.797 138.378 153.89C138.598 153.983 138.797 154.12 138.962 154.293C139.127 154.466 139.255 154.67 139.339 154.895C139.422 155.119 139.458 155.357 139.446 155.596Z" fill="#263238"/>
<path d="M147.756 155.596C147.728 156.092 147.512 156.559 147.153 156.901C146.793 157.244 146.316 157.436 145.82 157.44C145.581 157.441 145.344 157.394 145.124 157.301C144.904 157.207 144.705 157.07 144.539 156.898C144.374 156.725 144.245 156.521 144.161 156.297C144.077 156.074 144.039 155.835 144.05 155.596C144.079 155.101 144.295 154.635 144.655 154.293C145.014 153.951 145.49 153.758 145.986 153.752C146.225 153.749 146.463 153.796 146.684 153.888C146.905 153.981 147.104 154.118 147.27 154.291C147.436 154.464 147.565 154.669 147.649 154.893C147.732 155.118 147.769 155.357 147.756 155.596Z" fill="#263238"/>
<path d="M156.03 155.596C156 156.092 155.784 156.557 155.425 156.899C155.065 157.242 154.59 157.435 154.093 157.44C153.854 157.441 153.617 157.394 153.397 157.301C153.177 157.207 152.978 157.07 152.813 156.898C152.647 156.725 152.518 156.521 152.434 156.297C152.35 156.074 152.312 155.835 152.323 155.596C152.353 155.101 152.569 154.635 152.928 154.293C153.287 153.951 153.763 153.758 154.259 153.752C154.499 153.75 154.736 153.797 154.956 153.89C155.177 153.983 155.376 154.12 155.542 154.293C155.708 154.465 155.836 154.67 155.92 154.894C156.004 155.118 156.041 155.357 156.03 155.596Z" fill="#263238"/>
<path d="M164.352 155.596C164.323 156.092 164.107 156.557 163.747 156.899C163.388 157.242 162.912 157.435 162.416 157.44C162.176 157.443 161.939 157.397 161.718 157.304C161.497 157.212 161.297 157.075 161.131 156.902C160.965 156.729 160.837 156.524 160.753 156.299C160.67 156.075 160.633 155.835 160.646 155.596C160.674 155.1 160.89 154.634 161.249 154.291C161.609 153.949 162.085 153.756 162.582 153.752C162.821 153.75 163.059 153.797 163.279 153.89C163.5 153.983 163.699 154.12 163.865 154.293C164.03 154.465 164.159 154.67 164.243 154.894C164.327 155.118 164.364 155.357 164.352 155.596Z" fill="#263238"/>
<path d="M163.094 80.4803C165.667 77.9644 165.804 73.9317 163.399 71.473C160.995 69.0143 156.96 69.0607 154.387 71.5766C151.815 74.0925 151.678 78.1252 154.082 80.5839C156.487 83.0426 160.522 82.9962 163.094 80.4803Z" fill="#5038ED"/>
<path d="M170.831 90.5513C169.299 92.5577 167.329 94.1865 165.07 95.3128C162.811 96.439 160.324 97.0328 157.8 97.0484C155.352 97.0692 152.937 96.4874 150.767 95.3543C148.598 94.2213 146.74 92.5718 145.359 90.5513C148.346 87.5763 153.073 85.6339 158.31 85.6339C163.547 85.6339 168.108 87.5763 170.831 90.5513Z" fill="#5038ED"/>
<path opacity="0.1" d="M163.094 80.4803C165.667 77.9644 165.804 73.9317 163.399 71.473C160.995 69.0143 156.96 69.0607 154.387 71.5766C151.815 74.0925 151.678 78.1252 154.082 80.5839C156.487 83.0426 160.522 82.9962 163.094 80.4803Z" fill="white"/>
<path opacity="0.1" d="M170.831 90.5513C169.299 92.5577 167.329 94.1865 165.07 95.3128C162.811 96.439 160.324 97.0328 157.8 97.0484C155.352 97.0692 152.937 96.4874 150.767 95.3543C148.598 94.2213 146.74 92.5718 145.359 90.5513C148.346 87.5763 153.073 85.6339 158.31 85.6339C163.547 85.6339 168.108 87.5763 170.831 90.5513Z" fill="white"/>
<path d="M80.3938 132.97C79.8098 134.249 79.1951 135.656 78.6604 137.021C78.1256 138.385 77.5785 139.793 77.1052 141.194C76.1389 143.956 75.4028 146.794 74.9047 149.677L74.7695 150.58C74.7566 150.735 74.7711 150.892 74.8125 151.041C74.9576 151.551 75.186 152.033 75.4886 152.468C76.278 153.593 77.1937 154.624 78.2178 155.541C79.2975 156.545 80.4301 157.491 81.6108 158.375C82.791 159.284 84.0326 160.169 85.2558 161.005L84.1064 163.163C81.1856 161.89 78.4132 160.301 75.839 158.424C74.4657 157.422 73.2262 156.249 72.151 154.932C71.5136 154.149 71.0166 153.261 70.6819 152.308C70.4873 151.712 70.3877 151.09 70.3868 150.464C70.3868 150.316 70.3868 150.101 70.3868 149.997V149.695L70.4483 149.081C70.8007 145.878 71.4741 142.719 72.4583 139.652C72.9377 138.139 73.4479 136.634 74.0319 135.164C74.6158 133.695 75.2182 132.257 75.9619 130.763L80.3938 132.97Z" fill="#E58A7B"/>
<path d="M84.3891 160.624L88.7349 158.424L87.61 163.194C87.61 163.194 84.6288 164.03 83.2458 162.579L84.3891 160.624Z" fill="#E58A7B"/>
<path d="M92.7119 159.204L91.5563 163.151L87.61 163.194L88.7349 158.424L92.7119 159.204Z" fill="#E58A7B"/>
<path d="M98.8463 109.957C99.0787 110.808 99.4023 111.633 99.8113 112.415C99.6918 112.551 99.5379 112.652 99.3659 112.707C99.1938 112.762 99.01 112.77 98.834 112.729L98.8463 109.957Z" fill="#DF5753"/>
<path d="M98.7172 109.993C98.9718 109.993 99.1782 109.677 99.1782 109.287C99.1782 108.896 98.9718 108.58 98.7172 108.58C98.4626 108.58 98.2562 108.896 98.2562 109.287C98.2562 109.677 98.4626 109.993 98.7172 109.993Z" fill="#263238"/>
<path d="M98.582 108.604L99.5163 108.34C99.5163 108.34 99.0614 109.065 98.582 108.604Z" fill="#263238"/>
<path d="M86.8417 114.468C87.4011 117.327 87.9604 122.57 85.9566 124.481C85.9566 124.481 86.7434 127.383 92.0603 127.383C97.9059 127.383 94.8509 124.481 94.8509 124.481C91.6607 123.719 91.7407 121.353 92.3 119.128L86.8417 114.468Z" fill="#E58A7B"/>
<path d="M85.2866 107.953C85.5816 112.729 85.6062 114.757 88.0157 117.21C91.6484 120.898 97.451 119.496 98.5881 114.751C99.6146 110.448 98.9631 103.367 94.2854 101.468C93.2586 101.045 92.1409 100.891 91.038 101.02C89.9351 101.15 88.8834 101.558 87.9825 102.208C87.0816 102.857 86.3612 103.725 85.8894 104.731C85.4177 105.736 85.2102 106.845 85.2866 107.953Z" fill="#E58A7B"/>
<path d="M85.7598 102.58C83.3626 103.453 80.1663 102.802 81.4202 110.196C82.7479 118.027 80.7072 120.603 80.7072 120.603C80.7072 120.603 89.7983 122.539 99.0799 120.486C99.0799 120.486 96.2462 115.532 97.0391 111.881C98.0534 107.27 97.2543 105.568 97.2543 105.568C97.2543 105.568 89.1283 101.351 85.7598 102.58Z" fill="#263238"/>
<path d="M95.902 110.442C95.9045 111.35 96.1645 112.239 96.6519 113.005C97.3035 114.001 98.0718 113.62 98.2624 112.563C98.4345 111.635 98.3054 109.993 97.4756 109.354C96.6458 108.715 95.9143 109.342 95.902 110.442Z" fill="#E58A7B"/>
<path d="M83.6761 103.386C82.9877 101.449 86.27 98.4683 93.2159 99.6977C100.162 100.927 100.463 106.711 100.463 106.711L99.0614 105.039L99.1229 106.797L91.9865 108.168L83.6761 103.386Z" fill="#263238"/>
<path d="M84.2662 124.807C84.2252 124.527 84.2954 124.241 84.4619 124.011C84.6284 123.782 84.878 123.626 85.1575 123.578C87.3212 123.221 92.2386 122.496 94.7095 122.84C96.5536 123.098 97.033 124.168 97.1129 125.047C97.1254 125.201 97.1049 125.356 97.0526 125.501C97.0003 125.646 96.9175 125.779 96.8098 125.889C96.702 126 96.5719 126.086 96.428 126.142C96.2842 126.198 96.13 126.223 95.9758 126.215L85.2927 125.735C85.0409 125.723 84.8011 125.623 84.6141 125.454C84.427 125.285 84.3042 125.056 84.2662 124.807Z" fill="#5038ED"/>
<path opacity="0.6" d="M84.2662 124.807C84.2252 124.527 84.2954 124.241 84.4619 124.011C84.6284 123.782 84.878 123.626 85.1575 123.578C87.3212 123.221 92.2386 122.496 94.7095 122.84C96.5536 123.098 97.033 124.168 97.1129 125.047C97.1254 125.201 97.1049 125.356 97.0526 125.501C97.0003 125.646 96.9175 125.779 96.8098 125.889C96.702 126 96.5719 126.086 96.428 126.142C96.2842 126.198 96.13 126.223 95.9758 126.215L85.2927 125.735C85.0409 125.723 84.8011 125.623 84.6141 125.454C84.427 125.285 84.3042 125.056 84.2662 124.807Z" fill="black"/>
<path d="M90.4437 232.191L94.4083 234.945L101.041 225.952L97.076 223.204L90.4437 232.191Z" fill="#E58A7B"/>
<path d="M81.199 232.013L85.3849 234.398L91.2551 224.889L87.0691 222.504L81.199 232.013Z" fill="#E58A7B"/>
<path d="M101.035 225.952L97.6169 230.587L93.6523 227.839L97.0699 223.204L101.035 225.952Z" fill="#CF6F64"/>
<path d="M87.063 222.504L91.255 224.895L88.2308 229.794L84.0388 227.403L87.063 222.504Z" fill="#CF6F64"/>
<path d="M93.7875 154.828C93.7875 154.828 109.265 174.332 106.358 192.987C104.016 208.053 90.4314 228.454 90.4314 228.454L84.0449 225.282C88.5465 216.262 92.388 206.927 95.5393 197.351C96.5111 194.378 96.7948 191.223 96.3688 188.125C95.9429 185.026 94.8185 182.065 93.0806 179.464C85.2374 168.013 72.6734 174.829 81.1252 154.828H93.7875Z" fill="#5038ED"/>
<path opacity="0.6" d="M93.7875 154.828C93.7875 154.828 109.265 174.332 106.358 192.987C104.016 208.053 90.4314 228.454 90.4314 228.454L84.0449 225.282C88.5465 216.262 92.388 206.927 95.5393 197.351C96.5111 194.378 96.7948 191.223 96.3688 188.125C95.9429 185.026 94.8185 182.065 93.0806 179.464C85.2374 168.013 72.6734 174.829 81.1252 154.828H93.7875Z" fill="black"/>
<path opacity="0.4" d="M101.379 167.355L99.129 165.118C99.129 165.296 103.487 192.2 104.71 199.761C105.432 197.552 105.985 195.292 106.364 192.999C107.802 183.847 104.796 174.498 101.379 167.355Z" fill="black"/>
<path d="M100.696 154.828C100.696 154.828 119.333 179.341 119.862 194.038C120.298 206.332 99.5778 230.15 99.5778 230.15L93.5539 226.253C93.5539 226.253 105.681 209.337 108.736 195.519C107.556 181.824 82.6004 154.828 82.6004 154.828H100.696Z" fill="#5038ED"/>
<path opacity="0.6" d="M100.696 154.828C100.696 154.828 119.333 179.341 119.862 194.038C120.298 206.332 99.5778 230.15 99.5778 230.15L93.5539 226.253C93.5539 226.253 105.681 209.337 108.736 195.519C107.556 181.824 82.6004 154.828 82.6004 154.828H100.696Z" fill="black"/>
<path d="M77.64 125.575C75.6485 126.049 73.7368 133.29 73.7368 133.29L81.5247 138.49C81.5247 138.49 84.1187 132.761 83.209 130.253C82.2685 127.641 80.1417 124.979 77.64 125.575Z" fill="#5038ED"/>
<path opacity="0.2" d="M79.1644 130.241L78.6235 136.554L81.5186 138.496C82.318 136.696 82.9098 134.811 83.2827 132.878L79.1644 130.241Z" fill="black"/>
<path d="M103.001 125.717C103.001 125.717 105.3 126.522 100.696 154.822H81.1129C81.4448 146.831 81.451 141.914 77.64 125.576C80.3821 125.01 83.1616 124.645 85.9565 124.481C88.9175 124.269 91.8899 124.269 94.8509 124.481C98.6742 124.832 103.001 125.717 103.001 125.717Z" fill="#5038ED"/>
<path d="M104.993 130.241C105.436 131.47 105.903 132.792 106.394 134.064C106.886 135.337 107.353 136.646 107.851 137.937L109.357 141.797L109.738 142.762L109.935 143.241L110.027 143.481C110.027 143.524 110.027 143.524 110.027 143.518C109.915 143.36 109.768 143.229 109.597 143.137C109.354 142.994 109.08 142.911 108.798 142.897C108.564 142.89 108.331 142.934 108.116 143.026C107.833 143.155 107.833 143.211 107.839 143.204C107.89 143.163 107.936 143.116 107.974 143.063C108.314 142.616 108.609 142.136 108.853 141.631C109.142 141.065 109.419 140.463 109.695 139.854C110.236 138.625 110.734 137.353 111.232 136.068C111.73 134.783 112.203 133.486 112.664 132.177L114.066 128.255L116.432 128.87C115.965 131.673 115.363 134.402 114.637 137.181C114.287 138.564 113.875 139.934 113.408 141.317C113.174 142.012 112.916 142.7 112.621 143.407C112.314 144.174 111.935 144.911 111.49 145.608C111.327 145.842 111.146 146.064 110.949 146.272C110.635 146.611 110.254 146.881 109.831 147.065C109.454 147.226 109.047 147.302 108.638 147.286C108.18 147.269 107.734 147.136 107.341 146.899C106.878 146.61 106.494 146.21 106.222 145.737C106.13 145.577 106.05 145.417 105.995 145.3L105.878 145.067L105.645 144.587L105.177 143.635C104.563 142.356 103.948 141.065 103.413 139.768C102.879 138.471 102.313 137.156 101.784 135.834C101.256 134.513 100.783 133.191 100.334 131.765L104.993 130.241Z" fill="#E58A7B"/>
<path d="M103.001 125.717C105.356 126.276 108.005 133.234 108.005 133.234L101.004 139.191C101.004 139.191 96.4736 131.605 97.3895 129.104C98.3423 126.497 99.9281 124.985 103.001 125.717Z" fill="#5038ED"/>
<path d="M115.178 126.055L117.637 124.002L119.346 126.663L118.086 128.882C118.086 128.882 116.082 130.726 114.312 129.786C114.031 129.154 113.963 128.448 114.12 127.775C114.276 127.102 114.648 126.498 115.178 126.055Z" fill="#E58A7B"/>
<path d="M122.075 124.008L121.89 124.678L118 125.33L117.618 124.002L122.075 124.008Z" fill="#E58A7B"/>
<path d="M100.057 230.464L93.0376 225.927L94.2977 223.739L102.184 228.589L100.057 230.464Z" fill="#5038ED"/>
<path d="M88.1325 234.078C87.5166 234.003 86.9248 233.793 86.3991 233.463C86.3774 233.456 86.3586 233.442 86.3453 233.423C86.332 233.404 86.3249 233.382 86.3249 233.359C86.3249 233.336 86.332 233.313 86.3453 233.295C86.3586 233.276 86.3774 233.262 86.3991 233.254C86.5897 233.193 88.2432 232.683 88.7226 233.076C88.7765 233.121 88.8174 233.179 88.8412 233.245C88.865 233.311 88.8707 233.382 88.8578 233.451C88.8493 233.562 88.8126 233.668 88.7513 233.761C88.69 233.853 88.6061 233.929 88.5075 233.98C88.3924 234.042 88.2636 234.076 88.1325 234.078ZM86.7495 233.402C87.5178 233.795 88.1325 233.937 88.4276 233.789C88.4918 233.753 88.5459 233.702 88.5846 233.64C88.6233 233.577 88.6455 233.506 88.6488 233.433C88.6488 233.334 88.6488 233.291 88.5935 233.267C88.3354 233.058 87.4133 233.217 86.7372 233.402H86.7495Z" fill="#263238"/>
<path d="M86.4422 233.506C86.4097 233.506 86.3788 233.493 86.3561 233.469C86.347 233.452 86.3422 233.433 86.3422 233.414C86.3422 233.395 86.347 233.376 86.3561 233.359C86.3561 233.303 86.7556 231.97 87.3826 231.668C87.4627 231.632 87.5497 231.613 87.6377 231.613C87.7257 231.613 87.8127 231.632 87.8928 231.668C87.9791 231.696 88.0538 231.751 88.1051 231.826C88.1563 231.9 88.1811 231.99 88.1755 232.08C88.1325 232.633 87.0077 233.396 86.4913 233.525L86.4422 233.506ZM87.6346 231.828C87.5748 231.83 87.5161 231.845 87.4625 231.871C87.0814 232.056 86.7679 232.775 86.6143 233.211C87.1552 232.984 87.8989 232.381 87.9235 232.043C87.9235 231.988 87.9235 231.92 87.7821 231.859C87.7362 231.834 87.6863 231.818 87.6346 231.81V231.828Z" fill="#263238"/>
<path d="M96.9039 236.733C96.2093 236.733 95.2443 235.842 94.7157 235.295C94.7022 235.276 94.6949 235.254 94.6949 235.23C94.6949 235.207 94.7022 235.185 94.7157 235.166C94.7278 235.146 94.7451 235.13 94.7656 235.119C94.7862 235.108 94.8093 235.103 94.8325 235.104C95.0783 235.104 97.2113 235.424 97.5125 236.026C97.5444 236.08 97.5612 236.142 97.5612 236.205C97.5612 236.267 97.5444 236.329 97.5125 236.383C97.4673 236.477 97.399 236.558 97.3141 236.618C97.2292 236.678 97.1303 236.716 97.0269 236.727L96.9039 236.733ZM95.1214 235.381C95.8959 236.131 96.5781 236.549 96.9654 236.5C97.0332 236.491 97.0978 236.465 97.1536 236.426C97.2093 236.386 97.2544 236.333 97.285 236.272C97.2988 236.251 97.3061 236.227 97.3061 236.202C97.3061 236.177 97.2988 236.152 97.285 236.131C97.1252 235.799 95.9881 235.516 95.1214 235.381Z" fill="#263238"/>
<path d="M95.189 235.35C95.051 235.354 94.913 235.344 94.7771 235.32C94.7582 235.317 94.7403 235.309 94.7252 235.297C94.7101 235.285 94.6983 235.27 94.6911 235.252C94.6819 235.234 94.6771 235.214 94.6771 235.194C94.6771 235.173 94.6819 235.153 94.6911 235.135C94.728 235.092 95.5578 234.09 96.3446 234.023C96.5673 234.005 96.7879 234.076 96.9592 234.219C97.199 234.428 97.1867 234.613 97.1252 234.729C96.9715 235.147 95.9081 235.35 95.189 235.35ZM95.0292 235.123C95.7176 235.16 96.8179 234.932 96.9592 234.631C96.9592 234.631 97.0084 234.533 96.8486 234.398C96.785 234.342 96.7107 234.301 96.6304 234.275C96.55 234.25 96.4653 234.241 96.3814 234.25C95.8515 234.398 95.3795 234.705 95.0292 235.129V235.123Z" fill="#263238"/>
<path d="M86.6081 232.842L81.3956 231.367C81.3058 231.34 81.2091 231.347 81.124 231.387C81.0389 231.426 80.9715 231.496 80.9346 231.582L79.1767 235.535C79.1354 235.636 79.116 235.745 79.1198 235.854C79.1236 235.963 79.1504 236.07 79.1986 236.169C79.2468 236.267 79.3152 236.354 79.3994 236.423C79.4835 236.493 79.5815 236.544 79.6868 236.573C81.5309 237.053 82.416 237.188 84.7087 237.846C86.1225 238.239 88.1386 238.971 90.0871 239.524C92.0357 240.077 92.6872 238.178 91.9312 237.772C88.5136 235.965 88.2431 234.699 87.3088 233.346C87.1415 233.102 86.8935 232.923 86.6081 232.842Z" fill="#5038ED"/>
<path d="M94.857 234.576L90.4068 231.502C90.3313 231.447 90.2383 231.422 90.1454 231.431C90.0525 231.44 89.9662 231.483 89.9028 231.552L86.9523 234.723C86.8804 234.805 86.8268 234.902 86.795 235.006C86.7632 235.11 86.754 235.22 86.7679 235.328C86.7819 235.436 86.8187 235.54 86.8759 235.633C86.9332 235.726 87.0095 235.806 87.0998 235.867C88.6673 236.918 89.4786 237.342 91.4395 238.7C92.6688 239.536 95.0476 241.393 96.7072 242.548C98.3668 243.704 99.6023 242.118 99.0122 241.491C96.3691 238.67 95.7913 236.899 95.3549 235.295C95.2792 235.004 95.1028 234.749 94.857 234.576Z" fill="#5038ED"/>
<path d="M91.2489 228.859L83.2274 224.87L84.0572 222.694L92.6258 226.899L91.2489 228.859Z" fill="#5038ED"/>
<path d="M80.8179 153.672L80.1417 155.443C80.0741 155.578 80.2339 155.719 80.4613 155.719H100.795C100.973 155.719 101.121 155.633 101.133 155.522L101.305 153.764C101.305 153.648 101.164 153.543 100.973 153.543H81.1375C81.0778 153.538 81.0176 153.546 80.962 153.569C80.9063 153.591 80.8569 153.627 80.8179 153.672Z" fill="#5038ED"/>
<path opacity="0.4" d="M80.8179 153.672L80.1417 155.443C80.0741 155.578 80.2339 155.719 80.4613 155.719H100.795C100.973 155.719 101.121 155.633 101.133 155.522L101.305 153.764C101.305 153.648 101.164 153.543 100.973 153.543H81.1375C81.0778 153.538 81.0176 153.546 80.962 153.569C80.9063 153.591 80.8569 153.627 80.8179 153.672Z" fill="white"/>
<path d="M84.0203 155.891H83.4856C83.3811 155.891 83.3012 155.836 83.3073 155.768L83.5593 153.488C83.5593 153.426 83.6577 153.371 83.7622 153.371H84.2969C84.4014 153.371 84.4813 153.426 84.4752 153.488L84.2232 155.768C84.217 155.836 84.1248 155.891 84.0203 155.891Z" fill="#5038ED"/>
<path d="M96.5597 155.891H96.0311C95.9266 155.891 95.8467 155.836 95.8528 155.768L96.0987 153.488C96.0987 153.426 96.2032 153.371 96.3077 153.371H96.8363C96.9408 153.371 97.0268 153.426 97.0145 153.488L96.7687 155.768C96.7379 155.836 96.6703 155.891 96.5597 155.891Z" fill="#5038ED"/>
<g style="mix-blend-mode:multiply">
<path d="M83.5532 259.986C92.6477 259.986 100.02 259.453 100.02 258.794C100.02 258.135 92.6477 257.602 83.5532 257.602C74.4586 257.602 67.086 258.135 67.086 258.794C67.086 259.453 74.4586 259.986 83.5532 259.986Z" fill="#F5F5F5"/>
</g>
<path d="M93.5847 257.11C90.6711 256.262 87.4379 255.174 85.4832 254.036C85.4279 254 85.3665 253.981 85.3111 253.95V240.759H91.2059C91.6533 240.733 92.0738 240.537 92.3812 240.21C92.6887 239.884 92.8599 239.453 92.8599 239.005C92.8599 238.556 92.6887 238.125 92.3812 237.799C92.0738 237.473 91.6533 237.276 91.2059 237.25H85.3419V177.122H81.8013V237.25H75.9435C75.7043 237.235 75.4647 237.27 75.2395 237.352C75.0143 237.434 74.8082 237.561 74.6338 237.725C74.4594 237.89 74.3205 238.088 74.2255 238.308C74.1306 238.528 74.0816 238.765 74.0816 239.005C74.0816 239.244 74.1306 239.481 74.2255 239.701C74.3205 239.921 74.4594 240.119 74.6338 240.284C74.8082 240.448 75.0143 240.575 75.2395 240.657C75.4647 240.739 75.7043 240.774 75.9435 240.759H81.8013V253.932C81.746 253.932 81.6907 253.981 81.6354 254.018C79.65 255.174 76.4414 256.262 73.5278 257.091C73.331 257.151 73.162 257.279 73.0514 257.452C72.9408 257.626 72.8959 257.833 72.9249 258.036C72.9539 258.24 73.0548 258.426 73.2094 258.562C73.3639 258.698 73.5619 258.773 73.7675 258.776H93.3449C93.5414 258.762 93.7273 258.682 93.8717 258.548C94.0161 258.414 94.1101 258.235 94.1382 258.04C94.1662 257.845 94.1266 257.646 94.0258 257.477C93.9251 257.308 93.7694 257.178 93.5847 257.11Z" fill="#E0E0E0"/>
<path d="M94.4882 171H72.6304C70.8719 171 69.4464 172.426 69.4464 174.184V180.681C69.4464 182.44 70.8719 183.865 72.6304 183.865H94.4882C96.2467 183.865 97.6723 182.44 97.6723 180.681V174.184C97.6723 172.426 96.2467 171 94.4882 171Z" fill="#5038ED"/>
<path d="M72.4276 183.871V184.99C72.4276 185.912 73.4295 186.662 74.6588 186.662H92.4844C93.7138 186.662 94.7157 185.912 94.7157 184.99V183.871H72.4276Z" fill="#5038ED"/>
<path opacity="0.3" d="M72.4276 183.871V184.99C72.4276 185.912 73.4295 186.662 74.6588 186.662H92.4844C93.7138 186.662 94.7157 185.912 94.7157 184.99V183.871H72.4276Z" fill="white"/>
</svg>
