<svg width="79" height="79" viewBox="0 0 79 79" fill="none" xmlns="http://www.w3.org/2000/svg">
<circle cx="39.5" cy="39.5" r="39.5" fill="white"/>
<path d="M59.9185 37.8977L57.0852 35.2643C56.5435 34.7643 56.106 33.831 56.106 33.1643V30.331C56.106 28.5643 54.2935 27.1143 52.0852 27.1143H48.5435C47.731 27.1143 46.5435 26.7643 45.9185 26.331L42.6268 24.0643C41.1893 23.081 38.8352 23.081 37.3768 24.0643L34.1059 26.3477C33.4809 26.7643 32.2934 27.1143 31.4809 27.1143H27.8767C25.6684 27.1143 23.8559 28.5643 23.8559 30.331V33.181C23.8559 33.831 23.4184 34.7643 22.8976 35.2643L20.0851 37.9143C18.8767 39.0643 18.8767 40.931 20.0851 42.081L22.8976 44.731C23.4184 45.231 23.8559 46.1643 23.8559 46.8143V49.6643C23.8559 51.431 25.6684 52.881 27.8767 52.881H31.4809C32.2934 52.881 33.4809 53.231 34.1059 53.6643L37.3977 55.931C38.8352 56.9143 41.1893 56.9143 42.6477 55.931L45.9393 53.6643C46.5643 53.231 47.731 52.881 48.5643 52.881H52.106C54.3143 52.881 56.1268 51.431 56.1268 49.6643V46.831C56.1268 46.181 56.5643 45.231 57.106 44.731L59.9393 42.0977C61.1477 40.9477 61.1477 39.0477 59.9185 37.8977ZM48.6685 36.8477L38.606 44.8977C38.3143 45.131 37.9185 45.2643 37.5018 45.2643C37.0852 45.2643 36.6893 45.131 36.3977 44.8977L31.3559 40.8643C30.7517 40.381 30.7517 39.581 31.3559 39.0977C31.9601 38.6143 32.9601 38.6143 33.5642 39.0977L37.5018 42.2477L46.4602 35.081C47.0643 34.5977 48.0643 34.5977 48.6685 35.081C49.2727 35.5643 49.2727 36.3643 48.6685 36.8477Z" fill="#292D32"/>
</svg>
