<svg width="80" height="79" viewBox="0 0 80 79" fill="none" xmlns="http://www.w3.org/2000/svg">
<ellipse cx="39.5626" cy="39.5" rx="39.5626" ry="39.5" fill="white"/>
<path d="M38.4984 19.3193C37.2333 19.5549 35.7474 20.0627 33.4649 20.8428L32.2696 21.2513C25.996 23.3954 22.8592 24.4674 22.0714 25.588C21.3009 26.6841 21.2841 29.8949 21.2837 36.2694L38.4984 30.5401V19.3193Z" fill="#1C274C"/>
<path d="M38.4984 33.8341L21.2837 39.5633V39.9817C21.2837 51.7277 30.1288 57.4277 35.6785 59.8481C36.7442 60.3129 37.4326 60.6131 38.4984 60.749V33.8341Z" fill="#1C274C"/>
<path d="M41.6284 60.749V33.8341L58.8431 39.5633V39.9817C58.8431 51.7277 49.9979 57.4277 44.4482 59.8481C43.3826 60.3129 42.6942 60.6131 41.6284 60.749Z" fill="#1C274C"/>
<path d="M41.6284 30.5401V19.3193C42.8935 19.5549 44.3794 20.0627 46.662 20.8428L47.8572 21.2513C54.1309 23.3954 57.2677 24.4674 58.0554 25.588C58.826 26.6841 58.8427 29.8949 58.8431 36.2694L41.6284 30.5401Z" fill="#1C274C"/>
</svg>
