<svg width="36" height="40" viewBox="0 0 36 40" fill="none" xmlns="http://www.w3.org/2000/svg">
<rect x="0.0712891" y="0.924316" width="35.6975" height="38.9381" rx="8" fill="white"/>
<path d="M15.3211 20.9218L17.1424 22.9084L20.785 18.9352M25.3382 20.9218C25.3382 25.3531 20.3661 28.5641 18.6371 29.5468C18.4502 29.6531 18.3566 29.7062 18.227 29.7337C18.1259 29.7552 17.9802 29.7552 17.8791 29.7337C17.7494 29.7062 17.6559 29.6531 17.4689 29.5468C15.7399 28.5641 10.7678 25.3531 10.7678 20.9218V17.1647C10.7678 16.3705 10.7678 15.9734 10.8869 15.6321C10.9921 15.3305 11.163 15.0615 11.3849 14.8482C11.6361 14.6067 11.977 14.4673 12.6587 14.1884L17.5414 12.1912C17.7307 12.1138 17.8254 12.075 17.9228 12.0597C18.0091 12.0461 18.0969 12.0461 18.1832 12.0597C18.2807 12.075 18.3753 12.1138 18.5646 12.1912L23.4473 14.1884C24.1291 14.4673 24.4699 14.6067 24.7211 14.8482C24.943 15.0615 25.1139 15.3305 25.2191 15.6321C25.3382 15.9734 25.3382 16.3705 25.3382 17.1647V20.9218Z" stroke="#5038ED" stroke-width="2" stroke-linecap="round" stroke-linejoin="round"/>
</svg>
