<svg width="46" height="40" viewBox="0 0 46 40" fill="none" xmlns="http://www.w3.org/2000/svg">
<path d="M45.7922 26.5517C45.7922 33.4714 40.1827 39.0809 33.263 39.0809L14.4691 39.0809C12.547 39.0809 10.9888 37.5227 10.9888 35.6006L10.9888 11.9342C10.9888 8.08993 14.1052 4.97353 17.9495 4.97353L42.3119 4.97353C44.234 4.97353 45.7922 6.53173 45.7922 8.45388L45.7922 26.5517Z" fill="#F0EDFF"/>
<path d="M19.2834 13.334C19.0662 13.334 18.8896 13.1577 18.8896 12.9402V12.2711C18.8896 12.0539 19.0659 11.8773 19.2834 11.8773C19.5006 11.8773 19.6771 12.0536 19.6771 12.2711V12.9402C19.6771 13.1577 19.5006 13.334 19.2834 13.334Z" fill="#103E13"/>
<path d="M17.6279 13.334C17.4107 13.334 17.2341 13.1577 17.2341 12.9402V12.2711C17.2341 12.0539 17.4104 11.8773 17.6279 11.8773C17.8451 11.8773 18.0216 12.0536 18.0216 12.2711V12.9402C18.0214 13.1577 17.8453 13.334 17.6279 13.334Z" fill="#103E13"/>
<path d="M15.9726 13.334C15.7554 13.334 15.5789 13.1577 15.5789 12.9402V12.2711C15.5789 12.0539 15.7551 11.8773 15.9726 11.8773C16.1898 11.8773 16.3664 12.0536 16.3664 12.2711V12.9402C16.3664 13.1577 16.1901 13.334 15.9726 13.334Z" fill="#103E13"/>
<path d="M19.2834 16.0704C19.0662 16.0704 18.8896 15.8941 18.8896 15.6766V15.0078C18.8896 14.7906 19.0659 14.614 19.2834 14.614C19.5006 14.614 19.6771 14.7903 19.6771 15.0078V15.6766C19.6771 15.8941 19.5006 16.0704 19.2834 16.0704Z" fill="#103E13"/>
<path d="M17.6279 16.0704C17.4107 16.0704 17.2341 15.8941 17.2341 15.6766V15.0078C17.2341 14.7906 17.4104 14.614 17.6279 14.614C17.8451 14.614 18.0216 14.7903 18.0216 15.0078V15.6766C18.0214 15.8941 17.8453 16.0704 17.6279 16.0704Z" fill="#103E13"/>
<path d="M15.9726 16.0704C15.7554 16.0704 15.5789 15.8941 15.5789 15.6766V15.0078C15.5789 14.7906 15.7551 14.614 15.9726 14.614C16.1898 14.614 16.3664 14.7903 16.3664 15.0078V15.6766C16.3664 15.8941 16.1901 16.0704 15.9726 16.0704Z" fill="#103E13"/>
<path d="M19.2834 18.8067C19.0662 18.8067 18.8896 18.6305 18.8896 18.413V17.7438C18.8896 17.5267 19.0659 17.3501 19.2834 17.3501C19.5006 17.3501 19.6771 17.5264 19.6771 17.7438V18.413C19.6771 18.6305 19.5006 18.8067 19.2834 18.8067Z" fill="#103E13"/>
<path d="M17.6279 18.8067C17.4107 18.8067 17.2341 18.6305 17.2341 18.413V17.7438C17.2341 17.5267 17.4104 17.3501 17.6279 17.3501C17.8451 17.3501 18.0216 17.5264 18.0216 17.7438V18.413C18.0214 18.6305 17.8453 18.8067 17.6279 18.8067Z" fill="#103E13"/>
<path d="M15.9726 18.8067C15.7554 18.8067 15.5789 18.6305 15.5789 18.413V17.7438C15.5789 17.5267 15.7551 17.3501 15.9726 17.3501C16.1898 17.3501 16.3664 17.5264 16.3664 17.7438V18.413C16.3664 18.6305 16.1901 18.8067 15.9726 18.8067Z" fill="#103E13"/>
<path d="M19.2834 21.5426C19.0662 21.5426 18.8896 21.3663 18.8896 21.1488V20.4797C18.8896 20.2625 19.0659 20.0859 19.2834 20.0859C19.5006 20.0859 19.6771 20.2622 19.6771 20.4797V21.1488C19.6771 21.3663 19.5006 21.5426 19.2834 21.5426Z" fill="#103E13"/>
<path d="M17.6279 21.5426C17.4107 21.5426 17.2341 21.3663 17.2341 21.1488V20.4797C17.2341 20.2625 17.4104 20.0859 17.6279 20.0859C17.8451 20.0859 18.0216 20.2622 18.0216 20.4797V21.1488C18.0214 21.3663 17.8453 21.5426 17.6279 21.5426Z" fill="#103E13"/>
<path d="M15.9726 21.5426C15.7554 21.5426 15.5789 21.3663 15.5789 21.1488V20.4797C15.5789 20.2625 15.7551 20.0859 15.9726 20.0859C16.1898 20.0859 16.3664 20.2622 16.3664 20.4797V21.1488C16.3664 21.3663 16.1901 21.5426 15.9726 21.5426Z" fill="#103E13"/>
<path d="M19.2834 24.279C19.0662 24.279 18.8896 24.1027 18.8896 23.8853V23.2164C18.8896 22.9992 19.0659 22.8226 19.2834 22.8226C19.5006 22.8226 19.6771 22.9989 19.6771 23.2164V23.8853C19.6771 24.1024 19.5006 24.279 19.2834 24.279Z" fill="#103E13"/>
<path d="M17.6279 24.279C17.4107 24.279 17.2341 24.1027 17.2341 23.8853V23.2164C17.2341 22.9992 17.4104 22.8226 17.6279 22.8226C17.8451 22.8226 18.0216 22.9989 18.0216 23.2164V23.8853C18.0214 24.1024 17.8453 24.279 17.6279 24.279Z" fill="#103E13"/>
<path d="M15.9726 24.279C15.7554 24.279 15.5789 24.1027 15.5789 23.8853L15.5791 23.2164C15.5791 22.9992 15.7554 22.8226 15.9729 22.8226C16.1901 22.8226 16.3666 22.9989 16.3666 23.2164V23.8853C16.3664 24.1024 16.1901 24.279 15.9726 24.279Z" fill="#103E13"/>
<path d="M4.72445 27.0022C4.72445 27.2194 4.90073 27.3959 5.1182 27.3959H29.0962C29.3134 27.3959 29.49 27.2197 29.49 27.0022C29.49 26.785 29.3137 26.6084 29.0962 26.6084H28.3684V15.3034C28.3684 15.0862 28.1921 14.9096 27.9746 14.9096L21.5459 14.9099V6.75953C21.5459 6.6217 21.474 6.49429 21.3564 6.4229C21.2392 6.35123 21.0926 6.34684 20.9707 6.41027L13.6617 10.2157C13.5313 10.2835 13.45 10.418 13.45 10.5649V17.6841H6.3765C6.15932 17.6841 5.98276 17.8604 5.98276 18.0779V26.6085H5.11732C4.90013 26.6082 4.72412 26.7845 4.72412 27.002L4.72445 27.0022ZM21.546 20.8734H27.5813V26.6088L21.546 26.6085V20.8734ZM21.546 18.1372H27.5813V20.0862L21.546 20.0859V18.1372ZM21.546 15.697H27.5813V17.3502H21.546V15.697ZM14.2371 10.804L20.7583 7.40856V26.6081H14.2371V10.804ZM8.71669 23.4636C8.71669 22.6465 9.36414 21.9814 10.1601 21.9814C10.9561 21.9814 11.6039 22.6462 11.6039 23.4636V26.6086H8.71669V23.4636ZM6.77023 18.4715H13.4499V26.6085H12.3913V23.4635C12.3913 22.2122 11.3908 21.1941 10.1601 21.1941C8.93003 21.1941 7.92949 22.2119 7.92949 23.4635V26.6085H6.77023V18.4715Z" fill="#103E13"/>
</svg>
