<svg width="46" height="40" viewBox="0 0 46 40" fill="none" xmlns="http://www.w3.org/2000/svg">
<path d="M45.6658 26.5517C45.6658 33.4714 40.0562 39.0809 33.1365 39.0809L14.3426 39.0809C12.4205 39.0809 10.8623 37.5227 10.8623 35.6006L10.8623 11.9342C10.8623 8.08993 13.9787 4.97353 17.823 4.97353L42.1854 4.97353C44.1076 4.97353 45.6658 6.53173 45.6658 8.45388L45.6658 26.5517Z" fill="#F0EDFF"/>
<path d="M20.1282 16.5594C19.9605 16.5594 19.8049 16.5133 19.6667 16.4392V16.4411C19.6667 16.7048 19.5642 16.9525 19.3782 17.1379C19.1923 17.3239 18.9448 17.4264 18.6814 17.4264C18.5113 17.4264 18.3537 17.3792 18.214 17.3031C18.1999 17.5443 18.1035 17.7698 17.9315 17.942C17.7455 18.128 17.498 18.2305 17.2345 18.2305C16.7108 18.2305 16.2856 17.8188 16.2549 17.3029C16.0929 17.3905 15.9097 17.4364 15.7208 17.4243C15.2057 17.3905 14.8023 16.9454 14.8023 16.4108V11.9792L14.2977 12.8534C14.1055 13.1878 13.7457 13.3954 13.3583 13.3954C13.1696 13.3954 12.9831 13.3458 12.818 13.2512C12.6123 13.132 12.4652 12.9406 12.404 12.7117C12.3425 12.4826 12.3744 12.243 12.4932 12.0377C12.4934 12.0377 14.1443 9.17875 14.245 9.00314C14.257 8.97674 14.2911 8.90016 14.3201 8.83489C14.3479 8.77257 14.3716 8.70861 14.3944 8.64433C14.8923 7.23877 16.1251 6.36567 17.6118 6.36567C19.5425 6.36567 21.1132 8.06888 21.1132 10.1624L21.1134 15.5739C21.1134 15.8373 21.011 16.0848 20.8252 16.2709C20.6393 16.4569 20.3918 16.5594 20.1281 16.5594L20.1282 16.5594ZM17.6118 6.88921C16.3343 6.88921 15.3161 7.6108 14.8879 8.81942C14.8605 8.89617 14.832 8.97291 14.7987 9.0477C14.7021 9.26433 14.7021 9.26433 14.6749 9.29549L14.6713 9.29237C14.5365 9.54672 14.136 10.2402 12.9466 12.2997C12.8977 12.3841 12.8847 12.4822 12.9097 12.576C12.9349 12.6698 12.9954 12.7488 13.0792 12.7972C13.3393 12.9466 13.6955 12.8502 13.8438 12.5919L14.8374 10.8716C14.8968 10.7691 15.0168 10.7188 15.1319 10.7499C15.2464 10.7806 15.3259 10.8844 15.3259 11.0028V16.4109C15.3259 16.6661 15.5185 16.8863 15.7551 16.9019C15.8916 16.9091 16.0188 16.8634 16.1144 16.7679C16.2013 16.681 16.2492 16.5652 16.2492 16.4414V12.9044C16.2492 12.7598 16.3665 12.6425 16.5111 12.6425C16.6558 12.6425 16.773 12.7596 16.773 12.9044L16.7729 17.2454C16.7729 17.4999 16.98 17.707 17.2345 17.707C17.3581 17.707 17.4742 17.6591 17.5613 17.5722C17.6482 17.4851 17.6961 17.369 17.6961 17.2454V12.9044C17.6961 12.7598 17.8132 12.6425 17.958 12.6425C18.1027 12.6425 18.2199 12.7596 18.2199 12.9044L18.2198 16.4007V16.4414C18.2198 16.6958 18.4269 16.9029 18.6816 16.9029C18.8051 16.9029 18.9208 16.8548 19.0084 16.7676C19.0953 16.6808 19.1432 16.5651 19.1432 16.4412V12.9042C19.1432 12.7596 19.2603 12.6424 19.4051 12.6424C19.5497 12.6424 19.667 12.7594 19.667 12.9042L19.6667 15.5741C19.6667 15.8287 19.8738 16.0359 20.1281 16.0359C20.2519 16.0359 20.3677 15.9878 20.4546 15.9011C20.5419 15.8138 20.5896 15.6977 20.5896 15.5741L20.5898 10.1626C20.5898 8.35784 19.2539 6.88926 17.6118 6.88926L17.6118 6.88921Z" fill="#103E13"/>
<path d="M9.83847 20.3205L13.6388 18.0407C14.097 17.7655 14.6866 17.8824 14.9804 18.307C15.0877 18.4617 15.1425 18.6419 15.151 18.8254C15.2927 18.7515 15.4468 18.7113 15.6038 18.7113C15.6841 18.7113 15.7648 18.7213 15.8445 18.7411C16.0998 18.8049 16.315 18.9645 16.4503 19.1901C16.5858 19.4161 16.6253 19.6809 16.5615 19.936C16.5026 20.172 16.3591 20.3706 16.1595 20.5068C16.2991 20.5892 16.4195 20.7015 16.5051 20.8445C16.6405 21.0705 16.6801 21.3352 16.6164 21.5905C16.5526 21.8455 16.3931 22.0607 16.1671 22.1963L16.1658 22.1971C16.3029 22.2793 16.4211 22.3905 16.5057 22.5314C16.6414 22.7573 16.6809 23.0222 16.6171 23.2775C16.5531 23.5327 16.3936 23.7478 16.1679 23.8833L11.5276 26.6671C10.6616 27.1865 9.66041 27.3657 8.70892 27.1714C7.74892 26.9753 6.95386 26.4234 6.47044 25.6175C5.7054 24.3425 5.82005 22.8361 6.76907 21.6863C6.81253 21.6338 6.85533 21.5804 6.8942 21.5249C6.93536 21.4664 6.98341 21.3975 6.99981 21.3739C7.09804 21.1984 8.70092 18.3105 8.70075 18.3108C8.86262 18.0188 9.166 17.8534 9.47889 17.8536C9.62485 17.8536 9.77293 17.8895 9.90954 17.9653C10.0745 18.0575 10.2131 18.1918 10.31 18.3536C10.5093 18.6857 10.5163 19.1013 10.3287 19.4376L9.83847 20.3205ZM9.86126 18.6229C9.81042 18.5381 9.74056 18.4705 9.65512 18.4226C9.4785 18.3249 9.25613 18.3885 9.15889 18.5645C8.01194 20.6308 7.62096 21.335 7.47008 21.5855L7.47352 21.5864C7.4609 21.6283 7.4609 21.6283 7.32282 21.8256C7.27591 21.8924 7.22491 21.9565 7.17293 22.0196C6.35688 23.0084 6.26213 24.2526 6.91923 25.3482C7.32626 26.0268 7.99897 26.492 8.8135 26.6583C9.6369 26.8258 10.5048 26.67 11.258 26.218L15.8987 23.4341C16.0046 23.3706 16.0794 23.2698 16.1093 23.1502C16.1391 23.0308 16.1206 22.9067 16.0569 22.8008C15.9261 22.5826 15.6419 22.511 15.4238 22.6423L13.1344 24.0158C13.0105 24.0902 12.8494 24.0502 12.7751 23.9261C12.7007 23.8021 12.7409 23.6412 12.8648 23.5668L15.1543 22.1933L15.8979 21.7473C16.0038 21.6836 16.0788 21.5828 16.1086 21.4636C16.1385 21.344 16.1199 21.2197 16.0563 21.1139C15.9253 20.8957 15.6411 20.8247 15.4231 20.9555L12.3901 22.775C12.2658 22.8496 12.1052 22.8093 12.0308 22.6853C11.9563 22.5613 11.9967 22.4005 12.1205 22.326L15.8429 20.0929C15.9489 20.0293 16.0237 19.9286 16.0535 19.8091C16.0834 19.6897 16.0648 19.5655 16.0014 19.4596C15.9379 19.3538 15.837 19.279 15.7175 19.2492C15.5973 19.2194 15.4736 19.2379 15.368 19.3012L14.6789 19.7146C14.6788 19.7146 14.6788 19.7148 14.6786 19.7148H14.6784L11.6456 21.5343C11.5213 21.6091 11.3605 21.5687 11.2863 21.4446C11.2118 21.3206 11.2521 21.1597 11.376 21.0853L14.409 19.2658C14.5149 19.2021 14.5899 19.1013 14.6197 18.9821C14.6525 18.8512 14.6276 18.7174 14.5499 18.6052C14.4151 18.4102 14.1268 18.3584 13.9082 18.4898L9.27083 21.2717C9.16932 21.3324 9.03927 21.3177 8.95416 21.2355C8.86889 21.1532 8.8497 21.0238 8.90709 20.9203L9.87138 19.183C9.96814 19.0093 9.96436 18.7948 9.86121 18.6229L9.86126 18.6229Z" fill="#103E13"/>
<path d="M27.9983 25.6174C27.515 26.4235 26.7201 26.9751 25.76 27.1713C24.8083 27.3653 23.8075 27.1864 22.9412 26.667L18.3005 23.8831C18.0747 23.7476 17.915 23.5325 17.851 23.2769C17.7876 23.0219 17.8273 22.7571 17.9626 22.5314C18.047 22.3904 18.1654 22.2792 18.3027 22.197L18.3014 22.1962C18.0755 22.0608 17.9158 21.8456 17.8522 21.5904C17.7882 21.3353 17.8279 21.0702 17.9634 20.8443C18.0506 20.6991 18.1702 20.5857 18.3066 20.5051C18.1085 20.3689 17.9658 20.1709 17.9071 19.9361C17.8432 19.6807 17.8829 19.4159 18.0183 19.1902C18.1536 18.9644 18.3689 18.8048 18.6241 18.7411C18.7038 18.721 18.7847 18.7112 18.8647 18.7112C19.0218 18.7114 19.176 18.7512 19.3176 18.8253C19.3263 18.6418 19.3809 18.4616 19.4882 18.307C19.7822 17.8827 20.3713 17.7653 20.8302 18.0406L24.6304 20.3201L24.1405 19.4378C23.9526 19.101 23.9595 18.6854 24.1587 18.3532C24.2558 18.1915 24.3945 18.0572 24.5603 17.9642C24.6966 17.8888 24.8442 17.853 24.9898 17.853C25.3026 17.8532 25.6063 18.0181 25.768 18.3102C26.3314 19.3255 27.3948 21.2403 27.4695 21.374C27.4854 21.3971 27.5335 21.466 27.5747 21.5245C27.6138 21.5801 27.6562 21.6332 27.6999 21.686C28.6488 22.8363 28.7633 24.3425 27.9983 25.6175L27.9983 25.6174ZM27.2959 22.0198C27.2438 21.9567 27.1926 21.8922 27.146 21.8258C27.0043 21.6247 27.0007 21.6195 26.9901 21.5668C26.8244 21.2928 26.4204 20.5654 25.3097 18.5643C25.2122 18.3886 24.9909 18.3245 24.8146 18.4219C24.7278 18.4705 24.6581 18.5382 24.6073 18.623C24.5043 18.7947 24.5004 19.0092 24.5976 19.1834L25.5616 20.9202C25.6191 21.0239 25.5999 21.1531 25.5148 21.2354C25.4299 21.3179 25.3 21.3323 25.198 21.2716L20.5606 18.4897C20.342 18.3586 20.0539 18.41 19.9188 18.6051C19.841 18.7173 19.8163 18.8511 19.8487 18.9818C19.8786 19.1012 19.9535 19.2019 20.0596 19.2655C20.06 19.2657 20.0601 19.266 20.0605 19.2662L23.0925 21.0852C23.2165 21.1596 23.2567 21.3203 23.1822 21.4445C23.1078 21.5683 22.9472 21.6088 22.8229 21.5342L19.1005 19.3011C18.9948 19.2378 18.8705 19.2191 18.7512 19.2491C18.6314 19.279 18.5308 19.3537 18.4673 19.4599C18.4037 19.5656 18.3853 19.6898 18.4148 19.8092C18.4447 19.9285 18.5196 20.0294 18.6255 20.093L19.3499 20.5275L22.3478 22.3261C22.4718 22.4006 22.512 22.5613 22.4375 22.6854C22.3631 22.8093 22.2025 22.8496 22.0782 22.7751L19.0455 20.9556C18.8274 20.8244 18.5434 20.8956 18.4122 21.1141C18.3486 21.22 18.3302 21.3441 18.3597 21.4635C18.3896 21.5829 18.4645 21.6836 18.5706 21.7474L19.3141 22.1935L21.6033 23.5669C21.7273 23.6413 21.7675 23.8021 21.693 23.9262C21.6186 24.05 21.458 24.0907 21.3337 24.0159L19.0445 22.6425C18.9389 22.5792 18.8151 22.5605 18.6951 22.5905C18.5757 22.6203 18.4747 22.6951 18.4112 22.8009C18.3477 22.9068 18.3292 23.0311 18.3587 23.1503C18.3886 23.2697 18.4635 23.3704 18.5696 23.4342L23.2103 26.2181C23.9634 26.6699 24.8319 26.8264 25.6548 26.6584C26.4692 26.4922 27.1419 26.0269 27.5489 25.3483C28.2067 24.2525 28.1121 23.0081 27.2962 22.0198L27.2959 22.0198Z" fill="#103E13"/>
</svg>
