<svg width="46" height="40" viewBox="0 0 46 40" fill="none" xmlns="http://www.w3.org/2000/svg">
<path d="M45.9187 26.5517C45.9187 33.4714 40.3092 39.0809 33.3894 39.0809L14.5956 39.0809C12.6734 39.0809 11.1152 37.5227 11.1152 35.6006L11.1152 11.9342C11.1152 8.08993 14.2316 4.97353 18.0759 4.97353L42.4384 4.97353C44.3605 4.97353 45.9187 6.53173 45.9187 8.45388L45.9187 26.5517Z" fill="#F0EDFF"/>
<path d="M17.3729 7.06177C14.8871 7.06177 12.8634 9.10395 12.8634 11.6004C12.8634 13.1796 13.6743 14.5741 14.8989 15.3869C13.4199 15.8814 12.1401 16.8057 11.2014 18.0149C10.6824 17.6157 10.1025 17.2947 9.47742 17.0646C10.4254 16.3609 11.0448 15.2304 11.0448 13.9598C11.0448 11.8425 9.33245 10.1093 7.22801 10.1093C5.12358 10.1093 3.41119 11.8425 3.41119 13.9598C3.41119 15.2311 4.03118 16.3621 4.97993 17.0659C2.46811 17.9928 0.674194 20.4195 0.674194 23.2755V25.2817C0.674451 25.4346 0.735627 25.5811 0.844097 25.6888C0.952566 25.7968 1.09934 25.8569 1.25228 25.8564H10.0541C10.0754 25.8587 10.0967 25.86 10.1181 25.8598H24.6282C24.6495 25.86 24.6711 25.8587 24.6922 25.8564H33.4947C33.8111 25.8551 34.0673 25.5984 34.0681 25.2817V23.2755C34.0681 20.4195 32.2773 17.9928 29.7668 17.0656C30.7155 16.3621 31.3355 15.2308 31.3355 13.9595C31.3355 11.8423 29.6231 10.109 27.5187 10.109C25.4143 10.109 23.7019 11.8423 23.7019 13.9595C23.7019 15.2301 24.3216 16.3608 25.2696 17.0644C24.6432 17.2949 24.063 17.617 23.5433 18.0172C22.6051 16.8073 21.3271 15.8817 19.8481 15.3869C21.0723 14.5741 21.8836 13.1796 21.8836 11.6004C21.8836 9.10395 19.8589 7.06177 17.373 7.06177H17.3729ZM17.3729 8.21332C19.2321 8.21332 20.7309 9.72217 20.7309 11.6004C20.7309 13.4639 19.2554 14.9581 17.4168 14.982C17.4022 14.982 17.3878 14.98 17.3729 14.98C17.358 14.98 17.3438 14.982 17.3289 14.982C15.4903 14.9584 14.0159 13.464 14.0159 11.6004C14.0159 9.72191 15.5134 8.21332 17.3726 8.21332H17.3729ZM7.22808 11.2608C8.70325 11.2608 9.89335 12.4581 9.89335 13.9597C9.89335 15.4514 8.71864 16.6435 7.25736 16.6597C7.24759 16.6597 7.23808 16.6587 7.22806 16.6587C7.21829 16.6587 7.20878 16.6597 7.19876 16.6597C5.73748 16.6435 4.56277 15.4511 4.56277 13.9597C4.56277 12.4581 5.75287 11.2608 7.22804 11.2608H7.22808ZM27.5184 11.2608C28.9935 11.2608 30.1836 12.4581 30.1836 13.9597C30.1836 15.4514 29.0089 16.6435 27.5476 16.6597C27.5379 16.6597 27.5284 16.6587 27.5183 16.6587C27.5086 16.6587 27.4991 16.6597 27.489 16.6597C26.0277 16.6435 24.853 15.4511 24.853 13.9597C24.853 12.4581 26.0431 11.2608 27.5183 11.2608H27.5184ZM17.3288 16.1335C17.3435 16.1338 17.3578 16.1356 17.3728 16.1356C17.3874 16.1356 17.4018 16.1335 17.4167 16.1335C21.104 16.1572 24.0549 19.1335 24.0549 22.8592L24.0546 24.7079H10.6914V22.8592C10.6914 19.1331 13.6415 16.1572 17.3283 16.1335H17.3288ZM7.18399 17.8126C7.19864 17.8128 7.21304 17.8146 7.22795 17.8146C7.24286 17.8146 7.25699 17.8126 7.2719 17.8126C8.51906 17.8226 9.65725 18.2526 10.5636 18.9721C9.91503 20.1195 9.53999 21.444 9.53999 22.8596V24.7038H1.82528V23.2754C1.82528 20.2474 4.20602 17.8362 7.18386 17.8123L7.18399 17.8126ZM27.4743 17.8126C27.4892 17.8128 27.5033 17.8146 27.5182 17.8146C27.5331 17.8146 27.5473 17.8126 27.5622 17.8126C30.54 17.8362 32.9208 20.2478 32.9208 23.2757V24.7038H25.2021L25.2018 22.8596C25.2018 21.4448 24.8278 20.1213 24.1806 18.9741C25.0871 18.2536 26.2261 17.8226 27.4743 17.8126H27.4743Z" fill="#103E13"/>
</svg>
