<svg width="382" height="291" viewBox="0 0 382 291" fill="none" xmlns="http://www.w3.org/2000/svg">
<g clip-path="url(#clip0_1_246)">
<path d="M290.791 40.5081C287.365 28.0099 314.997 17.2925 322.254 27.3573C323.263 25.9264 326.992 25.0572 328.703 25.4962C330.413 25.9351 331.852 27.0325 333.256 28.0947C335.186 29.5784 337.187 31.1147 338.371 33.2479C339.564 35.3724 339.749 38.2695 338.143 40.113C336.871 41.5791 333.116 42.5272 331.203 42.9135C329.869 43.1856 328.746 43.4051 327.781 43.5631C326.905 42.2994 326.501 40.7671 326.641 39.2351C325.991 39.6736 325.446 40.2505 325.046 40.9244C324.646 41.5983 324.399 42.3525 324.324 43.133C324.298 43.4578 335.107 83.2524 335.107 83.2524C333.809 83.992 332.443 84.6064 331.028 85.0872C328.228 80.8066 326.084 76.1314 324.667 71.2166C324.341 74.503 324.382 77.8155 324.789 81.0928C325.006 82.9306 325.317 84.756 325.719 86.562C312.875 89.3362 293.555 88.4232 285.149 76.6244C285.148 76.5756 285.146 76.5267 285.145 76.4779C285.139 76.0121 284.97 75.5632 284.669 75.2079C284.368 74.8526 283.953 74.6131 283.495 74.5303C283.037 74.4476 282.564 74.5268 282.158 74.7543C281.752 74.9819 281.438 75.3437 281.269 75.7777C281.065 76.2983 280.877 76.7488 280.71 77.1072C278.262 68.3459 281.429 58.2063 290.791 40.5081Z" fill="#2F2E41"/>
<path d="M268.933 250.044V250.453C268.917 250.317 268.917 250.18 268.933 250.044Z" fill="#2F2E41"/>
<path d="M281.512 179.313C281.839 179.224 282.171 179.16 282.507 179.119C282.121 179.182 281.79 179.247 281.512 179.313Z" fill="#2F2E41"/>
<path d="M281.221 179.387C281.309 179.362 281.407 179.337 281.512 179.313C281.415 179.338 281.321 179.357 281.221 179.387Z" fill="#2F2E41"/>
<path d="M374.155 290.998H327.072C326.401 290.462 325.934 289.711 325.75 288.87C325.567 288.03 325.678 287.153 326.064 286.385C327.351 283.433 324.83 280.736 324.83 280.736C323.975 279.733 323.38 278.534 323.098 277.246C322.817 275.958 322.857 274.62 323.216 273.351C324.464 268.992 319.575 256.687 319.575 256.687C319.575 256.687 316.94 272.575 313.711 290.998H268.933C268.183 289.72 267.787 288.264 267.787 286.782C267.787 285.299 268.183 283.844 268.933 282.565C271.542 278.138 268.933 277.289 268.933 277.289C268.933 277.289 266.323 272.335 268.933 268.738C271.542 265.141 268.933 250.453 268.933 250.453C269.031 251.103 269.775 249.922 270.919 247.446C272.662 243.68 275.325 236.907 278.015 229.043C279.939 223.431 281.878 217.256 283.498 211.219H283.502C283.927 209.633 284.33 208.061 284.71 206.504C285.453 203.45 286.09 200.482 286.574 197.696C287.624 191.694 287.971 186.538 287.164 183.185C286.496 180.394 285.032 178.856 282.507 179.119C283.86 178.895 285.843 178.682 288.285 178.482C288.726 178.446 289.182 178.411 289.654 178.372C307.874 176.994 346.964 176.203 346.964 176.203L358.937 197.656L374.1 224.832C374.1 224.832 373.687 261.288 374.155 290.998Z" fill="#2F2E41"/>
<path d="M323.901 83.478L296.316 77.6232L290.839 88.6543L272.394 99.3389C272.394 99.3389 284.283 147.979 284.215 154.82C284.043 172.188 256.269 211.122 277.248 208.127C298.226 205.132 302.488 192.586 309.222 194.57C315.296 196.359 322.713 204.318 327.678 198.626C332.643 192.933 334.392 199.507 337.531 199.734C339.023 199.842 338.125 192.546 341.879 199.96C345.633 207.375 365.539 197.394 358.792 190.643C347.555 179.4 345.272 96.5199 345.272 96.5199L332.763 92.6689L323.901 83.478Z" fill="#FF0004"/>
<path d="M271.872 260.118C272.981 258.796 273.53 257.093 273.402 255.372C273.275 253.651 272.481 252.047 271.191 250.903C270.924 250.674 270.64 250.468 270.34 250.286L274.952 227.638L264.29 221.252L261.324 252.962C260.668 254.265 260.461 255.749 260.737 257.182C261.012 258.615 261.754 259.916 262.846 260.883C263.473 261.427 264.201 261.843 264.988 262.105C265.775 262.368 266.606 262.473 267.434 262.415C268.262 262.356 269.07 262.135 269.812 261.763C270.555 261.392 271.217 260.878 271.761 260.251C271.798 260.207 271.836 260.163 271.872 260.118Z" fill="#A0616A"/>
<path d="M304.978 140.735C304.912 140.007 303.983 139.676 302.697 139.22C301.405 138.821 300.177 138.239 299.051 137.492C296.203 135.433 297.324 133.281 298.874 130.305C299.177 129.727 299.491 129.125 299.786 128.499C300.664 126.645 299.267 118.998 295.629 105.766C294.508 101.693 294.512 98.8161 293.737 96.9073C292.966 94.9985 291.42 94.0578 287.207 93.8611C282.116 93.6039 277.129 95.3772 273.342 98.7924C273.24 98.883 273.134 98.9814 273.031 99.0758C272.839 99.2569 272.65 99.4418 272.465 99.6308C268.963 103.156 266.959 107.9 266.872 112.87L266.852 113.716L265.983 154.144L263.54 189.62L260.173 238.489L262.667 238.611L272.618 239.107L273.826 239.166L276.69 227.146L280.135 212.683L281.402 207.369L285.331 190.887L287.164 183.185L288.285 178.482L288.741 176.561L290.968 167.226C291.019 167.029 296.14 146.811 302.044 143.431C304.247 142.171 305.041 141.439 304.978 140.735Z" fill="#FF0004"/>
<path d="M371.221 259.878C369.977 258.682 369.249 257.048 369.191 255.323C369.133 253.598 369.75 251.919 370.91 250.642C371.15 250.386 371.411 250.151 371.69 249.938L364.673 227.916L374.588 220.422L380.941 251.629C381.733 252.854 382.097 254.307 381.978 255.761C381.858 257.216 381.26 258.589 380.278 259.668C379.713 260.276 379.034 260.767 378.279 261.113C377.525 261.459 376.71 261.653 375.881 261.683C375.051 261.714 374.224 261.581 373.446 261.292C372.668 261.002 371.955 260.563 371.347 259.998C371.305 259.958 371.263 259.918 371.221 259.878Z" fill="#A0616A"/>
<path d="M376.072 212.092C376.072 212.092 368.339 184.868 370.697 181.921C373.055 178.973 366.09 178.398 369.092 172.909C372.093 167.42 367.95 166.502 367.95 166.502L365.702 153.882L361.683 122.884L361.561 121.962L360.392 112.944C360.066 110.368 359.223 107.885 357.916 105.642C356.608 103.399 354.862 101.444 352.781 99.8917C352.675 99.8103 352.567 99.7322 352.458 99.654C351.963 99.2976 351.458 98.9673 350.941 98.6633C347.083 96.386 342.553 95.525 338.129 96.2283C329.794 97.5272 332.388 100.637 331.036 108.97C328.839 122.518 328.269 130.269 329.34 132.02C329.701 132.61 330.08 133.174 330.442 133.715C332.303 136.511 333.648 138.528 331.037 140.885C329.996 141.746 328.838 142.455 327.598 142.99C326.37 143.585 325.481 144.012 325.493 144.743C325.507 145.451 326.375 146.091 328.698 147.105C331.514 148.338 334.538 152.999 337.015 157.761C338.981 161.6 340.734 165.543 342.266 169.574L363.556 229.487L367.029 239.257L368.227 239.068L378.064 237.507L380.531 237.117L376.072 212.092Z" fill="#FF0004"/>
<path d="M312.263 77.2094C324.692 77.2094 334.768 67.1277 334.768 54.6912C334.768 42.2547 324.692 32.1729 312.263 32.1729C299.833 32.1729 289.757 42.2547 289.757 54.6912C289.757 67.1277 299.833 77.2094 312.263 77.2094Z" fill="#A0616A"/>
<path d="M278.508 42.2639C275.082 29.7657 302.714 19.0483 309.971 29.1131C310.98 27.6822 314.708 26.813 316.419 27.252C318.13 27.6909 319.569 28.7883 320.973 29.8505C322.903 31.3342 324.904 32.8705 326.088 35.0037C327.281 37.1282 327.465 40.0253 325.86 41.8688C324.588 43.3349 320.833 44.283 318.92 44.6693C317.586 44.9414 316.463 45.1609 315.498 45.3189C314.621 44.0552 314.218 42.5229 314.357 40.9909C313.708 41.4294 313.163 42.0062 312.763 42.6801C312.362 43.3541 312.116 44.1083 312.041 44.8887C312.015 45.2136 322.824 85.0082 322.824 85.0082C321.525 85.7478 320.159 86.3621 318.744 86.843C315.945 82.5624 313.801 77.8872 312.383 72.9724C312.057 76.2588 312.099 79.5713 312.506 82.8486C312.723 84.6863 313.033 86.5118 313.436 88.3178C300.591 91.092 281.271 90.179 272.866 78.3802C272.865 78.3314 272.863 78.2825 272.862 78.2336C272.855 77.7679 272.687 77.319 272.386 76.9637C272.085 76.6084 271.67 76.3689 271.212 76.2861C270.754 76.2034 270.281 76.2826 269.875 76.5101C269.469 76.7377 269.155 77.0995 268.986 77.5335C268.782 78.0541 268.594 78.5046 268.427 78.863C265.979 70.1017 269.146 59.9621 278.508 42.2639Z" fill="#2F2E41"/>
<path d="M80.9203 27.3578C80.5021 28.3329 67.6076 28.2284 67.0171 29.0967C62.4638 35.8002 78.8775 64.3218 74.3242 71.034L73.6899 71.7905C75.1754 71.1055 76.6023 70.3 77.9564 69.3821C78.0781 66.6346 78.1998 63.8784 78.3301 61.131C79.6939 62.8767 80.7947 64.8129 81.5973 66.878C82.6575 66.1303 83.5271 64.7442 88.071 62.0178C89.9106 59.9959 92.0313 58.2492 94.368 56.8314L80.9203 27.3578Z" fill="#2F2E41"/>
<path d="M90.2836 82.2966C88.8607 81.3691 87.2372 80.7946 85.5479 80.6206C83.8587 80.4466 82.1522 80.6782 80.5703 81.2962C78.9884 81.9142 77.5766 82.9008 76.452 84.174C75.3275 85.4473 74.5226 86.9705 74.1042 88.6174L54.5092 139.703L20.8277 120.57C20.6798 118.371 19.8396 116.275 18.4277 114.583C17.0158 112.892 15.1046 111.691 12.9683 111.153C10.832 110.615 8.58031 110.768 6.53621 111.589C4.49211 112.411 2.7606 113.859 1.59002 115.727C0.419442 117.594 -0.13007 119.784 0.0203008 121.983C0.170672 124.182 1.0132 126.277 2.42705 127.967C3.8409 129.658 5.75342 130.856 7.89032 131.392C10.0272 131.927 12.2787 131.772 14.3219 130.948C21.4149 138.523 52.1658 169.579 64.8965 157.444C75.5973 147.245 91.0397 107.715 94.757 94.0647C95.3525 91.882 95.2402 89.5664 94.4363 87.4515C93.6324 85.3367 92.1784 83.5317 90.2836 82.2966Z" fill="#FFB6B6"/>
<path d="M53.4896 159.585L59.6732 187.55L104.89 191.642L109.045 167.293L53.4896 159.585Z" fill="#FFB6B6"/>
<path d="M122.558 231.298C122.538 231.699 122.513 232.096 122.484 232.497C122.05 238.291 121.555 244.974 121.018 252.297C120.171 263.919 119.225 277.153 118.271 290.998H23.4292L41.8228 235.681C41.8228 235.681 49.2496 231.589 45.4685 224.716C41.6874 217.843 49.1273 223.32 49.1965 213.504C49.2657 203.689 55.9325 193.246 55.9325 193.246L57.0272 178.384L57.6509 178.396L107.007 179.219L107.907 179.235L109.423 191.994C118.628 202.953 123.323 217.003 122.558 231.298Z" fill="#2F2E41"/>
<path d="M81.7106 68.7439L104.217 67.5838L114.671 84.1113C114.671 84.1113 134.339 87.4016 132.976 110.592C131.613 133.783 109.045 154.132 109.045 154.132L110.01 150.823L108.334 155.613L108.549 158.303L110.835 161.151L111.07 164.097L109.045 168.758C109.308 169.18 109.448 169.668 109.448 170.166C109.449 170.663 109.31 171.151 109.047 171.574C108.784 171.997 108.408 172.337 107.962 172.557C107.515 172.777 107.016 172.867 106.521 172.817L74.0013 169.556C73.261 167.518 72.6669 165.08 69.6991 169.139L66.6357 168.842L53.901 167.608L53.1514 164.876C52.7255 163.323 52.6591 161.694 52.9573 160.112C53.2555 158.53 53.9105 157.037 54.8723 155.747C53.7661 152.281 54.0558 148.52 55.6797 145.265L55.7407 145.143L57.093 144.015C57.093 144.015 42.2977 121.774 59.2823 105.023L66.0991 93.4278L73.7265 84.1166L81.7106 68.7439Z" fill="#FF0004"/>
<path d="M87.3121 58.9877C99.0991 58.9877 108.654 49.4269 108.654 37.6332C108.654 25.8394 99.0991 16.2786 87.3121 16.2786C75.5251 16.2786 65.9698 25.8394 65.9698 37.6332C65.9698 49.4269 75.5251 58.9877 87.3121 58.9877Z" fill="#FFB6B6"/>
<path d="M103.522 68.3959C101.784 66.9429 100.574 64.9562 100.081 62.7445C99.6859 65.4298 99.789 68.165 100.385 70.813C99.229 71.6824 98.1081 72.5084 97.0479 73.2561C96.2453 71.191 95.1445 69.2548 93.7807 67.5091C93.6504 70.2565 93.5287 73.0127 93.407 75.7602C92.0529 76.6781 90.626 77.4836 89.1405 78.1685L89.7748 77.4121C94.3281 70.6999 82.5452 58.345 87.0984 51.6416C88.3758 49.7635 82.606 34.922 78.2091 34.2525C74.2988 33.6613 74.4639 34.7916 70.6753 35.6176C70.2818 33.9758 69.6711 32.3939 68.8592 30.9138C69.0753 32.563 69.0254 34.2363 68.7115 35.8697C67.3646 35.9218 66.3049 35.0631 64.8707 34.8437C55.7207 33.4439 56.6504 23.5409 59.1964 20.4021C61.7512 17.2721 70.2321 16.3331 74.1424 15.3158C74.4987 14.9681 75.3068 15.1854 75.6631 14.855C83.1569 7.99285 93.1794 6.85642 102.199 9.89789C111.817 13.1414 117.814 19.419 120.892 29.0967L121.775 36.8413C122.567 39.3314 121.57 50.9178 120.892 53.4413C118.255 63.2505 112.638 58.3537 103.522 68.3959Z" fill="#2F2E41"/>
<path d="M134.641 169.568L133.8 104.092C133.757 101.318 132.625 98.673 130.649 96.7269C128.673 94.7808 126.011 93.69 123.238 93.6901C121.804 93.6901 120.385 93.9823 119.067 94.5491C117.749 95.1159 116.561 95.9452 115.574 96.9866C114.587 98.028 113.822 99.2596 113.326 100.606C112.83 101.953 112.614 103.387 112.69 104.82L115.647 172.807L115.703 214.194C113.96 214.933 112.487 216.191 111.484 217.797C110.481 219.403 109.997 221.28 110.097 223.171C110.196 225.062 110.876 226.877 112.042 228.368C113.208 229.86 114.805 230.956 116.616 231.508C118.427 232.06 120.363 232.04 122.163 231.452C123.962 230.865 125.537 229.737 126.673 228.222C127.81 226.708 128.453 224.88 128.515 222.987C128.577 221.094 128.055 219.228 127.02 217.642L134.641 169.568Z" fill="#FFB6B6"/>
<path d="M244.79 254.279C244.79 254.279 243.491 277.663 242.894 291H198.157C197.236 278.863 196.926 269.946 196.926 269.946L194.478 291H149.258L146.455 252.007L160.002 218.405C160.002 218.405 233.421 213.311 240.231 219.774C247.037 226.232 244.79 254.279 244.79 254.279Z" fill="#2F2E41"/>
<path d="M205.23 57.5637C218.726 57.5637 229.666 46.6168 229.666 33.1131C229.666 19.6093 218.726 8.66239 205.23 8.66239C191.734 8.66239 180.793 19.6093 180.793 33.1131C180.793 46.6168 191.734 57.5637 205.23 57.5637Z" fill="#FFB6B6"/>
<path d="M233.713 25.1681C231.203 26.3133 229.577 34.607 227.604 32.6789C225.631 30.7508 225.763 28.2416 223.103 27.53C220.955 26.9529 218.644 27.6125 216.685 28.6527C216.335 28.8362 215.996 29.0358 215.665 29.2342C215.447 29.0884 215.23 28.9511 214.997 28.8245C213.244 27.8861 211.199 27.6559 209.282 28.1813C210.797 28.689 212.114 29.6602 213.046 30.9577C212.391 31.3974 211.727 31.8382 211.047 32.2288C205.372 35.5058 197.296 28.38 191.322 25.703C195.064 32.729 193.222 35.6387 189.973 42.905L189.86 43.3188C190.045 41.4976 184.413 40.1404 184.739 42.7041C184.971 44.5242 186.546 48.57 187.427 50.1771C181.146 42.9104 176.854 34.0181 177.76 24.8449C177.957 22.9179 177.898 20.8847 178.891 19.2122C179.885 17.5483 181.959 16.3806 183.793 17.0151C183.637 14.0897 184.277 11.1768 185.644 8.58614C187.011 5.99547 189.054 3.82385 191.556 2.30216C194.058 0.780479 196.925 -0.0343984 199.853 -0.0558401C202.781 -0.0772817 205.66 0.695519 208.184 2.1804C210.529 3.55733 212.487 5.50475 214.636 7.18456C216.786 8.86435 219.264 10.3286 221.989 10.4672C223.718 10.5507 225.6 10.1283 227.085 11.0244C228.806 12.0641 229.101 14.241 229.359 16.3357C227.824 16.4871 226.369 17.093 225.18 18.0758C226.768 17.9137 228.367 18.2568 229.749 19.0563C229.775 19.0682 229.8 19.0824 229.824 19.0988C230.734 22.5607 230.64 23.3282 233.713 25.1681Z" fill="#2F2E41"/>
<path d="M149.366 230.235C170.176 205.862 163.147 174.863 154.888 143.57L156.46 97.3419C156.537 95.0743 157.158 92.8584 158.271 90.8816C159.384 88.9047 160.956 87.2249 162.855 85.9839L184.099 72.0972L192.367 60.1353L215.16 62.4158L227.799 75.7899L241.789 86.4765C245.302 89.1597 247.975 92.7919 249.492 96.9449C251.01 101.098 251.31 105.598 250.355 109.916L236.967 170.497C236.967 170.497 242.567 201.902 239.15 205.371C235.733 208.839 226.93 205.373 233.911 209.266C242.29 213.939 249.908 213.077 245.668 217.319C241.428 221.561 246.794 227.459 246.794 227.459L149.366 230.235Z" fill="#FF0004"/>
<path d="M158.264 265.656L161.733 240.925L147.89 236.971L145.152 263.249C144.006 264.3 143.176 265.65 142.756 267.147C142.335 268.644 142.34 270.229 142.77 271.723C143.2 273.218 144.038 274.563 145.19 275.607C146.342 276.651 147.762 277.352 149.291 277.633C150.819 277.914 152.396 277.762 153.844 277.195C155.291 276.629 156.552 275.669 157.484 274.425C158.416 273.18 158.983 271.701 159.121 270.151C159.259 268.602 158.962 267.046 158.264 265.656Z" fill="#FFB6B6"/>
<path d="M184.618 76.5553C184.618 76.5553 145.215 89.3869 144.276 98.7757C143.336 108.165 143.648 113.912 139.489 151.482L139.708 252.685C139.708 252.685 166.125 258.344 163.416 252.294C160.707 246.243 161.652 243.396 161.652 243.396C161.652 243.396 167.316 241.16 165.898 234.055C164.481 226.951 171.591 191.743 171.591 191.743L176.078 128.599L184.618 76.5553Z" fill="#FF0004"/>
<path d="M233.203 264.346L231.356 239.442L245.428 236.402L246.444 262.802C247.518 263.925 248.258 265.327 248.58 266.848C248.902 268.37 248.794 269.951 248.267 271.414C247.741 272.877 246.816 274.164 245.599 275.131C244.381 276.097 242.918 276.705 241.374 276.885C239.83 277.065 238.267 276.81 236.859 276.15C235.452 275.49 234.257 274.45 233.408 273.147C232.559 271.845 232.09 270.331 232.054 268.776C232.017 267.221 232.415 265.687 233.203 264.346Z" fill="#FFB6B6"/>
<path d="M219.258 73.9263C219.258 73.9263 257.738 89.3076 258.062 98.7378C258.387 108.168 257.7 113.883 259.396 151.644L252.566 252.617C252.566 252.617 225.835 256.536 228.934 250.675C232.033 244.815 231.275 241.912 231.275 241.912C231.275 241.912 225.77 239.31 227.649 232.314C229.528 225.317 224.733 189.719 224.733 189.719L224.38 126.418L219.258 73.9263Z" fill="#FF0037"/>
</g>
<defs>
<clipPath id="clip0_1_246">
<rect width="382" height="291" fill="white"/>
</clipPath>
</defs>
</svg>
