<svg width="467" height="445" viewBox="0 0 467 445" fill="none" xmlns="http://www.w3.org/2000/svg">
<g clip-path="url(#clip0_1_277)">
<path d="M268.367 221.575C270.232 229.039 267.737 236.044 262.794 237.219C257.852 238.394 252.334 233.296 250.469 225.829C249.682 222.856 249.646 219.74 250.366 216.741L242.879 185.015L258.442 181.845L264.171 213.458C266.226 215.798 267.664 218.581 268.367 221.575Z" fill="#FDADB0"/>
<path d="M203.115 402.988L204.074 423.782L203.113 429.536L206.474 436.249L232.882 439.126L234.323 426.659L220.399 419.467L219.994 407.717L203.115 402.988Z" fill="#FDADB0"/>
<path d="M230.962 434.331L229.521 436.249L201.866 428.29C201.866 428.29 203.113 440.565 203.113 442.962C203.113 445.36 248.727 445.36 255.591 444.401C262.455 443.442 260.251 437.208 260.251 437.208L231.786 423.753L230.962 434.331Z" fill="#2F2E43"/>
<path d="M134.312 387.682L128.557 407.689L125.804 412.833L126.837 420.267L150.934 431.433L156.294 420.082L145.407 408.817L152.236 391.132L134.312 387.682Z" fill="#FDADB0"/>
<path d="M150.651 426.276L148.672 427.633L125.021 411.254C125.021 411.254 122.269 423.282 121.501 425.553C120.733 427.824 163.948 442.402 170.758 443.687C177.568 444.973 177.478 438.362 177.478 438.362L154.822 416.517L150.651 426.276Z" fill="#2F2E43"/>
<path d="M204.976 59.6894L205.985 76.0432L175.406 77.5923L184.875 56.046L204.976 59.6894Z" fill="#FDADB0"/>
<path d="M206.765 73.5971C198.569 77.2479 185.459 76.2491 170.602 73.5971L168.28 176.386C168.28 176.386 214.754 185.717 230.733 168.5L222.323 84.5151L206.765 73.5971Z" fill="#E0E1E2"/>
<path d="M225.687 171.02L160.078 177.496L127.7 397.044H152.509L194.991 246.606L198.355 417.096H221.062L240.404 208.393L225.687 171.02Z" fill="#2F2E43"/>
<path d="M179.93 67.2982L157.886 80.3255C149.535 85.2606 145.599 95.2229 148.325 104.523L165.363 162.634C165.363 162.634 137.619 210.231 146.634 214.431C166.892 223.867 197.122 221.569 197.122 221.569L190.366 107.611L179.93 67.2982Z" fill="#3F3D58"/>
<path d="M205.807 73.1649L230.733 82.8354L236.62 154.643L253.106 212.49C225.182 222.669 227.789 217.926 227.789 217.926L223.164 118.109L205.807 73.1649Z" fill="#3F3D58"/>
<path d="M242.22 211.267L242.134 210.874L216.655 93.1891C215.943 89.9009 216.854 86.6048 219.153 84.1456C221.452 81.686 224.683 80.5532 228.017 81.0373C232.129 81.6344 235.422 84.6259 236.404 88.6587L264.39 203.539L242.22 211.267Z" fill="#3F3D58"/>
<path d="M191.708 64.0341C205.409 64.0341 216.517 52.9418 216.517 39.2589C216.517 25.5759 205.409 14.4837 191.708 14.4837C178.006 14.4837 166.899 25.5759 166.899 39.2589C166.899 52.9418 178.006 64.0341 191.708 64.0341Z" fill="#FDADB0"/>
<path d="M203.511 7.16076C208.975 9.07876 212.102 10.1763 214.966 12.9319C219.804 17.5866 220.603 23.8069 221.345 29.5866C221.925 34.108 222.676 39.954 220.024 46.6331C219.12 48.9125 214.731 59.0678 206.33 60.3512C204.68 60.6032 200.807 60.6694 201.923 59.8463C212.256 52.2283 216.665 47.6294 216.304 35.8889C216.079 28.5938 204.917 20.7176 198.289 19.3017C195.497 18.7053 191.78 19.2501 189.114 21.4353C183.544 26.0023 183.782 44.8875 177.908 48.8353C175.492 50.4588 177.102 39.0303 175.4 40.8836C172.041 44.5405 174.195 50.1407 174.799 52.2734C177.662 62.3896 183.059 63.3797 185.855 72.0185C188.874 81.3451 185.074 90.1262 184.173 92.2084C182.606 95.8307 179.916 102.047 173.771 105.03C165.971 108.815 159.822 103.886 156.196 108.112C154.169 110.474 155.265 112.976 151.604 120.325C150.408 122.724 149.811 123.923 149.282 123.881C146.778 123.679 142.724 103.665 149.281 85.0261C152.032 77.2039 154.728 69.5402 161.953 63.5475C165.773 60.3792 168.977 59.2391 169.889 55.5393C171.192 50.2536 165.782 47.9975 164.697 39.6575C163.956 33.9538 163.436 25.7963 165.452 20.5678C167.356 15.6303 169.01 11.3442 173.336 7.45805C174.376 6.52463 182.765 0.179876 191.659 0.000901018C195.754 -0.0813747 198.763 5.49437 203.511 7.16076Z" fill="#2F2E43"/>
<path d="M255.932 223.583C289.444 223.583 316.611 196.454 316.611 162.987C316.611 129.521 289.444 102.391 255.932 102.391C222.42 102.391 195.254 129.521 195.254 162.987C195.254 196.454 222.42 223.583 255.932 223.583Z" fill="#6C63FF"/>
<path d="M240.578 202.521C244.262 189.252 247.946 175.983 251.629 162.714C252.413 159.889 253.02 156.751 254.815 154.354C256.203 152.5 258.385 151.288 260.695 152.05C266.203 153.867 266.114 161.804 266.016 166.434C265.868 173.424 264.288 180.398 261.38 186.76C260.981 187.633 261.131 188.673 262.018 189.192C262.783 189.639 264.052 189.431 264.453 188.554C267.365 182.183 269.096 175.364 269.499 168.367C269.847 162.33 269.873 154.368 264.633 150.253C262.072 148.242 258.803 147.644 255.8 149.034C252.833 150.408 251.021 153.252 249.881 156.197C248.614 159.472 247.86 162.983 246.922 166.362L243.9 177.249C241.649 185.358 239.397 193.467 237.146 201.576C236.534 203.784 239.966 204.726 240.578 202.521Z" fill="white"/>
<path d="M256.36 184.041C258.64 175.497 259.804 166.662 259.814 157.821C259.816 155.533 256.257 155.53 256.255 157.821C256.245 166.363 255.13 174.842 252.928 183.096C252.338 185.309 255.77 186.253 256.36 184.041Z" fill="white"/>
<path d="M219.771 183.938C222.156 172.453 224.738 160.931 228.049 149.672C230.733 140.542 235.362 130.196 245.131 126.885C249.983 125.241 255.242 125.506 260.208 126.46C265.132 127.406 270.12 128.814 274.658 130.967C278.954 133.006 282.929 135.815 285.757 139.686C288.549 143.506 290.288 147.94 291.225 152.557C293.399 163.272 290.84 174.218 287.972 184.546C287.59 185.92 287.2 187.292 286.809 188.664C286.182 190.868 289.615 191.809 290.242 189.609C293.411 178.475 296.703 166.844 295.226 155.158C294.588 150.105 293.168 145.14 290.639 140.692C288.046 136.134 284.306 132.409 279.822 129.701C275.3 126.97 270.209 125.231 265.112 123.926C259.698 122.54 254.063 121.687 248.487 122.462C243.228 123.192 238.491 125.682 234.767 129.441C230.952 133.292 228.372 138.104 226.469 143.134C224.37 148.68 222.999 154.507 221.554 160.249C220.028 166.318 218.604 172.413 217.283 178.53C216.962 180.017 216.648 181.505 216.339 182.994C216.144 183.932 216.613 184.914 217.582 185.18C218.463 185.422 219.575 184.883 219.771 183.938Z" fill="white"/>
<path d="M238.114 147.197C240.89 138.786 249.827 133.579 258.481 134.156C268.072 134.796 276.386 141.791 279.754 150.594C281.754 155.825 282.342 161.582 281.501 167.117C281.357 168.064 281.74 169.027 282.744 169.303C283.585 169.534 284.788 169.016 284.933 168.062C286.614 156.999 283.524 144.944 274.806 137.464C270.718 133.956 265.711 131.528 260.351 130.801C255.196 130.102 250 131.054 245.437 133.56C240.431 136.309 236.477 140.815 234.682 146.252C233.964 148.429 237.4 149.363 238.114 147.197Z" fill="white"/>
<path d="M230.541 163.497C229.777 172.615 227.476 181.631 223.753 189.993C223.363 190.87 223.498 191.903 224.391 192.425C225.15 192.868 226.434 192.669 226.826 191.787C230.822 182.812 233.28 173.288 234.101 163.497C234.181 162.54 233.225 161.72 232.321 161.72C231.291 161.72 230.622 162.537 230.541 163.497Z" fill="white"/>
<path d="M273.533 173.675C272.769 182.793 270.467 191.809 266.744 200.171C266.354 201.048 266.489 202.081 267.383 202.603C268.141 203.046 269.425 202.847 269.818 201.965C273.814 192.99 276.271 183.466 277.092 173.675C277.172 172.718 276.217 171.898 275.313 171.898C274.283 171.898 273.613 172.715 273.533 173.675Z" fill="white"/>
<path d="M239.497 166.602C241.785 157.539 245.577 148.95 250.721 141.142C251.984 139.226 248.903 137.444 247.648 139.348C242.349 147.39 238.422 156.322 236.065 165.657C235.504 167.875 238.936 168.822 239.497 166.602Z" fill="white"/>
<path d="M204.715 150.629C212.377 149.824 218.974 153.267 219.452 158.319C219.929 163.371 214.105 168.117 206.441 168.921C203.383 169.286 200.288 168.887 197.415 167.757L164.912 170.743L163.937 154.911L196.082 153.648C198.688 151.942 201.648 150.907 204.715 150.629Z" fill="#FDADB0"/>
<path d="M165.116 81.0767C157.248 79.9701 149.867 85.1361 148.232 92.9008C142.526 119.99 132.288 177.694 148.368 178.657C169.393 179.917 189.577 174.878 189.577 174.878L184.531 145.903L168.132 144.223L177.778 99.1642C179.61 90.6086 173.791 82.2969 165.116 81.0767Z" fill="#3F3D58"/>
</g>
<defs>
<clipPath id="clip0_1_277">
<rect width="520.824" height="445" fill="white" transform="translate(0.175911)"/>
</clipPath>
</defs>
</svg>
