<svg width="22" height="22" viewBox="0 0 22 22" fill="none" xmlns="http://www.w3.org/2000/svg">
<path d="M19.7259 9.9099L18.4874 8.50152C18.2506 8.23411 18.0594 7.73493 18.0594 7.37838V5.86304C18.0594 4.91819 17.2671 4.14269 16.3018 4.14269H14.7537C14.3986 4.14269 13.8795 3.9555 13.6063 3.72374L12.1675 2.51147C11.5391 1.98556 10.5101 1.98556 9.87265 2.51147L8.44289 3.73265C8.1697 3.9555 7.65063 4.14269 7.29548 4.14269H5.72005C4.75476 4.14269 3.9625 4.91819 3.9625 5.86304V7.3873C3.9625 7.73493 3.77126 8.23411 3.5436 8.50152L2.31422 9.91882C1.78605 10.5339 1.78605 11.5322 2.31422 12.1473L3.5436 13.5645C3.77126 13.832 3.9625 14.3311 3.9625 14.6788V16.203C3.9625 17.1479 4.75476 17.9234 5.72005 17.9234H7.29548C7.65063 17.9234 8.1697 18.1106 8.44289 18.3423L9.88176 19.5546C10.5101 20.0805 11.5391 20.0805 12.1766 19.5546L13.6154 18.3423C13.8886 18.1106 14.3986 17.9234 14.7628 17.9234H16.3109C17.2762 17.9234 18.0685 17.1479 18.0685 16.203V14.6877C18.0685 14.34 18.2597 13.832 18.4965 13.5645L19.735 12.1562C20.2632 11.5411 20.2632 10.525 19.7259 9.9099ZM14.8084 9.34833L10.4099 13.6537C10.2824 13.7785 10.1094 13.8498 9.92729 13.8498C9.74516 13.8498 9.57213 13.7785 9.44464 13.6537L7.24084 11.4966C6.97675 11.2381 6.97675 10.8102 7.24084 10.5517C7.50492 10.2932 7.94204 10.2932 8.20612 10.5517L9.92729 12.2364L13.8431 8.40347C14.1072 8.14497 14.5443 8.14497 14.8084 8.40347C15.0725 8.66197 15.0725 9.08983 14.8084 9.34833Z" fill="white"/>
</svg>
